<svg xmlns="http://www.w3.org/2000/svg" width="108.481" height="97.07" viewBox="0 0 108.481 97.07">
  <g id="Group_15615" data-name="Group 15615" transform="translate(-85.43 -246.422)">
    <g id="book" transform="translate(85.43 246.422)" opacity="0.6">
      <path id="Path_16180" data-name="Path 16180" d="M25.321,8.365c2.619,1.973,4.626,3.759,4.881,3.521.238-.2-1.446-2.432-4.167-4.473-2.7-2.058-5.307-3.061-5.443-2.772S22.718,6.375,25.321,8.365Z" transform="translate(12.54 -4.365)" fill="#5b83f9"/>
      <path id="Path_16181" data-name="Path 16181" d="M28.26,10.5c.2-.221-2.126-2.415-5.817-3.572-3.674-1.174-6.854-.731-6.8-.425,0,.357,2.993.442,6.446,1.565,3.453,1.072,5.953,2.721,6.174,2.432Z" transform="translate(9.073 -3.267)" fill="#5b83f9"/>
      <path id="Path_16182" data-name="Path 16182" d="M44.822,11.823c-.748,1.055-1,1.837-.867,1.9.306.187,2.007-2.415,5.2-4.286,3.164-1.939,6.259-2.211,6.225-2.568,0-.153-.8-.289-2.092-.136a12.712,12.712,0,0,0-8.47,5.085Z" transform="translate(28.892 -2.908)" fill="#5b83f9"/>
      <path id="Path_16183" data-name="Path 16183" d="M46.545,7.063c3.181-2.075,6.429-1.854,6.446-2.211.017-.136-.782-.425-2.126-.391A10.16,10.16,0,0,0,45.9,6.043a10.048,10.048,0,0,0-3.555,3.793c-.612,1.208-.7,2.041-.561,2.075.323.17,1.531-2.857,4.762-4.847Z" transform="translate(27.356 -4.458)" fill="#5b83f9"/>
      <path id="Path_16184" data-name="Path 16184" d="M109.266,52.3c-.238-5.783-.476-10.987-.6-15.58-.051-2.3-.1-4.422-.1-6.378-.051-1.99.119-3.691-.085-5.46a3.3,3.3,0,0,0-.459-1.259,2.377,2.377,0,0,0-.986-.867,6.836,6.836,0,0,0-2.041-.6,15.248,15.248,0,0,0-3.2-.119,11.71,11.71,0,0,0-1.446.187c.017-.442.017-.9.034-1.344-.068-.969.306-2.364-.272-3.878a3.879,3.879,0,0,0-1.582-1.871,6.409,6.409,0,0,0-2.024-.748c-1.31-.238-2.415-.323-3.623-.493-1.191-.136-2.4-.272-3.606-.408-2.415-.255-4.9-.425-7.4-.442a40.532,40.532,0,0,0-15.154,2.551,23.015,23.015,0,0,0-6.905,4.133,18.25,18.25,0,0,0-2.789,3.044c-.085.119-.017.034-.051.068l-.1-.153A18.315,18.315,0,0,0,50.655,17.3,36.115,36.115,0,0,0,43.324,14.3a98.711,98.711,0,0,0-14.882-3.027,49.874,49.874,0,0,0-7.467-.323,15.712,15.712,0,0,0-3.861.493,5.042,5.042,0,0,0-3.4,2.823,13.014,13.014,0,0,0-.6,3.844c-.068,1.174-.153,2.33-.221,3.487-.119,2.313-.255,4.609-.374,6.871-.425,9.014-.612,17.621-.7,25.665-.034,4.014-.051,7.909-.085,11.634,0,1.871,0,3.691-.017,5.477a4.94,4.94,0,0,0,.68,3.1,2.846,2.846,0,0,0,1.548.969,13.089,13.089,0,0,0,1.378.238c6.939.867,13.13.255,18.42,1.055a25.428,25.428,0,0,1,7.109,1.888,27.333,27.333,0,0,1,5.256,3.334,54.116,54.116,0,0,0,7.109,5.256,4.627,4.627,0,0,0,2.262.663c.527,0,.8-.085.782-.136a6.009,6.009,0,0,1-2.789-.935,71.242,71.242,0,0,1-6.769-5.562,25.609,25.609,0,0,0-5.358-3.64,26.077,26.077,0,0,0-7.416-2.177c-5.46-.935-11.753-.442-18.369-1.395-.884-.1-1.6-.255-1.8-.6a3.749,3.749,0,0,1-.289-2.024c.034-1.786.051-3.623.085-5.477q.1-5.587.221-11.634c.17-8.028.442-16.6.918-25.614q.2-3.368.408-6.837c.085-1.157.153-2.313.238-3.47a11.771,11.771,0,0,1,.442-3.113c.544-1.5,2.908-1.854,5.239-1.871a50.358,50.358,0,0,1,7.126.34A97.737,97.737,0,0,1,42.627,16.6c4.711,1.412,9.474,3.538,12.28,7.484a6.026,6.026,0,0,1,.442.663l.493.867,1.107,1.575s-.722,60.465-.716,60.471.085.017.085.017a.108.108,0,0,0,.1,0,5.413,5.413,0,0,0,.612-.051,6.6,6.6,0,0,0,2.177-.867,23.562,23.562,0,0,0,3.027-2.245,26.387,26.387,0,0,1,4.031-2.976,31.137,31.137,0,0,1,12.96-4.082,85.389,85.389,0,0,1,8.606-.391H92.58c.816,0,1.65-.017,2.483-.017.408-.017.833,0,1.361-.068a2.729,2.729,0,0,0,1.633-.731,1.866,1.866,0,0,0,.51-.952,3.906,3.906,0,0,0,.085-.816l.034-1.31.051-2.653c.017-1.786.034-3.623.051-5.494q.025-5.587.034-11.634c-.017-8.028.765-16.515,1.293-25.6.085-1.718.153-3.47.187-5.239a12.557,12.557,0,0,1,1.463-.034,17.259,17.259,0,0,1,3.061.34,6.828,6.828,0,0,1,1.769.612,1.792,1.792,0,0,1,.918,1.548c.1,1.446-.119,3.351-.136,5.307-.068,1.973-.085,4.116-.1,6.412-.017,4.609.119,9.831.238,15.614s.221,12.076-.017,18.862q-.128,5.1-.289,10.528c-.068,1.786-.051,3.708-.2,5.426a6.6,6.6,0,0,1-.578,2.313,2.173,2.173,0,0,1-1.514,1.14,21.649,21.649,0,0,1-5.443.2l-5.936-.2q-6-.2-12.229-.408c-2.092-.085-4.167-.085-6.225-.306a57.369,57.369,0,0,0-6.514-.374,14.982,14.982,0,0,0-6.786,1.633c-2.092,1.14-3.742,2.806-5.358,3.368-1.514.561-2.568-.663-4.014-2.6a9.627,9.627,0,0,0-2.874-2.33,9.2,9.2,0,0,0-3.538-.935,50.436,50.436,0,0,0-6.548.272l-6.259.2q-6.225.2-12.229.391c-4.048.1-7.977.68-11.5.17A7.445,7.445,0,0,1,5.175,87.59a8.392,8.392,0,0,1-1.82-4.422c-.17-1.65-.17-3.47-.2-5.222-.017-1.752-.034-3.47-.051-5.171-.034-6.786.068-13.113.136-18.879.068-5.783.136-11,.119-15.614-.017-2.3-.034-4.439-.051-6.412,0-1.973-.2-3.776.357-5.136a4.984,4.984,0,0,1,2.874-2.551,10.182,10.182,0,0,1,2.993-.544,14.532,14.532,0,0,0,2.585-.1,8.207,8.207,0,0,0-2.585-.374,9.17,9.17,0,0,0-3.215.357,5.692,5.692,0,0,0-3.5,2.84c-.765,1.667-.578,3.572-.646,5.511-.034,1.973-.085,4.1-.136,6.4-.136,4.592-.289,9.814-.476,15.58-.187,5.783-.374,12.11-.425,18.913,0,1.7-.017,3.436-.017,5.188.017,1.769-.017,3.521.17,5.46a10.342,10.342,0,0,0,2.3,5.6,9.356,9.356,0,0,0,5.6,2.806c4.065.612,7.994.017,11.923-.051q6-.153,12.229-.34c2.092-.068,4.2-.119,6.31-.187a52.488,52.488,0,0,1,6.225-.255,6.493,6.493,0,0,1,4.8,2.449,13.982,13.982,0,0,0,2.381,2.619,4.442,4.442,0,0,0,1.99.884,4.5,4.5,0,0,0,2.194-.17,12.067,12.067,0,0,0,3.181-1.8A25.59,25.59,0,0,1,63,93.22a12.473,12.473,0,0,1,5.715-1.361,55.989,55.989,0,0,1,6.242.357c2.143.221,4.269.221,6.327.289q6.251.179,12.246.357c2.007.051,3.98.119,5.936.17a22.789,22.789,0,0,0,6.106-.323,4.309,4.309,0,0,0,2.84-2.245,8.472,8.472,0,0,0,.782-3.113c.153-1.99.1-3.759.17-5.579.051-3.623.119-7.143.17-10.528.153-6.82-.051-13.181-.272-18.947ZM98.159,19.931l-.017.935c0,2.3-.085,4.558-.187,6.82-.442,8.98-1.174,17.621-1.072,25.682q.051,6.046.1,11.634c0,1.854.017,3.691.017,5.477,0,.884-.017,1.769-.017,2.653-.017.816.017,1.99-.136,1.939a1.18,1.18,0,0,1-.663.255,11.166,11.166,0,0,1-1.157.068c-.833.017-1.65.051-2.466.068-1.633.034-3.215.051-4.745.085a82.306,82.306,0,0,0-8.759.578,31.834,31.834,0,0,0-13.283,4.609,25.285,25.285,0,0,0-4.014,3.232,27.306,27.306,0,0,1-2.806,2.364,7.559,7.559,0,0,1-2.432,1.174l-.289.058.716-60.376c.025.013,1.308-2.154,1.971-3.021a15.079,15.079,0,0,1,2.432-2.67,21.05,21.05,0,0,1,6.208-3.708,37.926,37.926,0,0,1,14.253-2.415A112.774,112.774,0,0,1,96,16.615c1.055.2,1.735.578,1.956,1.208a3.58,3.58,0,0,1,.187,1.293,3.263,3.263,0,0,1,.017.816Z" transform="translate(-1.11 0.073)" fill="#5b83f9"/>
    </g>
    <path id="Path_16186" data-name="Path 16186" d="M-22.288,8.064A8.311,8.311,0,0,1-26.4,7.04a7.81,7.81,0,0,1-2.912-2.768A7.335,7.335,0,0,1-30.384.352a10.141,10.141,0,0,1,.56-3.344,10.16,10.16,0,0,1,1.648-2.992,10.828,10.828,0,0,1,2.688-2.4L-22.7-4.352A8.253,8.253,0,0,0-25.136-1.92a5.611,5.611,0,0,0-.9,3.072,4.585,4.585,0,0,0,.56,2.32,3.83,3.83,0,0,0,1.552,1.5,4.762,4.762,0,0,0,2.272.528,3.287,3.287,0,0,0,2.48-.944,5.474,5.474,0,0,0,1.312-2.48,13.041,13.041,0,0,0,.4-3.3,23.949,23.949,0,0,0-.352-4.272q-.352-1.936-.928-3.984l5.6-.9q.16.96.208,1.632t.08,1.312a5.359,5.359,0,0,1,.032.592q0,.3,0,.624A29.668,29.668,0,0,1-13.2-1.024a15.867,15.867,0,0,1-1.456,4.592,8.264,8.264,0,0,1-2.912,3.28A8.5,8.5,0,0,1-22.288,8.064ZM-9.744.288A5.619,5.619,0,0,1-12.48-.384,4.816,4.816,0,0,1-14.432-2.4a7.134,7.134,0,0,1-.72-3.392l2.336-.416a6.152,6.152,0,0,0,.56,2.56,1.909,1.909,0,0,0,1.872.96,1.672,1.672,0,0,0,1.632-.864A4.7,4.7,0,0,0-8.3-5.728a12.448,12.448,0,0,0-.064-1.328,11.013,11.013,0,0,0-.208-1.232q-.144-.64-.368-1.536l5.5-.768q0,.512-.016,1.168T-3.472-8a11.752,11.752,0,0,1-.784,4.592A6.026,6.026,0,0,1-6.448-.64,5.851,5.851,0,0,1-9.744.288ZM-.08.352a5.475,5.475,0,0,1-2.848-.7,5.308,5.308,0,0,1-1.84-1.76A4.821,4.821,0,0,1-5.52-4.224L-3.472-8a16.309,16.309,0,0,0,.224,2.832,4.254,4.254,0,0,0,.832,2,2.078,2.078,0,0,0,1.7.736A1.615,1.615,0,0,0,.848-3.3,4.7,4.7,0,0,0,1.3-5.472,16.069,16.069,0,0,0,.944-8.528a33.681,33.681,0,0,0-1.056-3.92L5.424-13.6q.256,1.5.4,2.64t.208,2.112q.064.976.064,2.064a10,10,0,0,1-.608,3.52A5.62,5.62,0,0,1,3.536-.64,5.958,5.958,0,0,1-.08.352ZM8.56-18.976a2.625,2.625,0,0,1-1.936-.656,2.086,2.086,0,0,1-.656-1.52,2.819,2.819,0,0,1,.576-1.792A3.928,3.928,0,0,1,7.952-24.08a3.689,3.689,0,0,1,1.6-.4,3.046,3.046,0,0,1,2.048.656,2.179,2.179,0,0,1,.768,1.744,2.665,2.665,0,0,1-1.152,2.256A4.362,4.362,0,0,1,8.56-18.976Zm-.1-1.312a1.658,1.658,0,0,0,1.2-.416,1.207,1.207,0,0,0,.432-.864,1.012,1.012,0,0,0-.288-.72,1.136,1.136,0,0,0-.864-.3,1.71,1.71,0,0,0-1.184.464,1.284,1.284,0,0,0-.512.912Q7.248-20.288,8.464-20.288Zm.8,32.128L5.136,7.52A35.412,35.412,0,0,0,9.888,2.832,17.853,17.853,0,0,0,12.752-1.92a13.566,13.566,0,0,0,.96-5.024,13.313,13.313,0,0,0-.224-2.448,10.992,10.992,0,0,0-.7-2.32l3.04-1.088A21.427,21.427,0,0,1,16.96-8.768,26.426,26.426,0,0,1,17.36-4,17.9,17.9,0,0,1,16.576.992a21.371,21.371,0,0,1-2.544,5.456A25.209,25.209,0,0,1,9.264,11.84Zm7.424-31.52v-2.144q1.536-.288,2.768-.512t2.416-.432q1.184-.208,2.56-.432v1.312q-1.472.384-2.576.688t-2.288.656Q18.384-20.192,16.688-19.68ZM20.08,0l-.32-2.88a11.719,11.719,0,0,0,1.52.176,10.017,10.017,0,0,0,1.7-.048,6.03,6.03,0,0,0,1.568-.384,2.921,2.921,0,0,0,1.168-.816,2.029,2.029,0,0,0,.448-1.36,5.037,5.037,0,0,0-.288-1.472,20.463,20.463,0,0,0-.752-1.952q-.464-1.056-1.056-2.176t-1.2-2.144l5.7-1.344a24.315,24.315,0,0,1,1.04,3.12,27.213,27.213,0,0,1,.592,2.88,16.324,16.324,0,0,1,.192,2.288,5.406,5.406,0,0,1-.784,3.04,5.272,5.272,0,0,1-2.208,1.856,11.6,11.6,0,0,1-3.28.944A27.874,27.874,0,0,1,20.08,0Z" transform="translate(139.429 302.422)" fill="#5b83f9"/>
  </g>
</svg>
