<svg id="Group_3167" data-name="Group 3167" xmlns="http://www.w3.org/2000/svg" width="194.717" height="142.615" viewBox="0 0 194.717 142.615">
  <g id="Group_3154" data-name="Group 3154" transform="translate(0.241 64.21)">
    <path id="Path_5342" data-name="Path 5342" d="M17.74,243.117H3.528a2.891,2.891,0,1,1,0-5.781H17.74a2.891,2.891,0,1,1,0,5.781Z" transform="translate(-0.633 -237.336)" fill="#fca863"/>
  </g>
  <g id="Group_3155" data-name="Group 3155" transform="translate(0 116.961)">
    <path id="Path_5343" data-name="Path 5343" d="M17.347,381.824H2.895a2.891,2.891,0,1,1,0-5.781H17.347a2.891,2.891,0,1,1,0,5.781Z" transform="translate(0 -376.043)" fill="#fca863"/>
  </g>
  <g id="Group_3156" data-name="Group 3156" transform="translate(17.349 41.909)">
    <path id="Path_5344" data-name="Path 5344" d="M199.759,188.458v81.187a9.644,9.644,0,0,1-1.112,4.506,9.808,9.808,0,0,1-4.2,4.167A9.581,9.581,0,0,1,190,279.4H55.375a9.556,9.556,0,0,1-3.038-.489,9.8,9.8,0,0,1-4.921-3.65,9.673,9.673,0,0,1-1.8-5.62V188.458a9.792,9.792,0,0,1,9.757-9.759H190A9.787,9.787,0,0,1,199.759,188.458Z" transform="translate(-45.618 -178.699)" fill="#fcd79f" fill-rule="evenodd"/>
  </g>
  <g id="Group_3157" data-name="Group 3157" transform="translate(27.106 41.91)">
    <path id="Path_5345" data-name="Path 5345" d="M71.275,185.837v74.116c0,4.863,5.722,8.841,10.58,8.841h133.8V258.347H90.334a9.966,9.966,0,0,1-9.934-9.934V178.7H71.275Z" transform="translate(-71.275 -178.701)" fill="#fac574" fill-rule="evenodd"/>
  </g>
  <g id="Group_3158" data-name="Group 3158" transform="translate(0 88.875)">
    <path id="Path_5346" data-name="Path 5346" d="M36.231,307.973H2.895a2.891,2.891,0,1,1,0-5.781H36.231a2.891,2.891,0,1,1,0,5.781Z" transform="translate(0 -302.192)" fill="#fca863"/>
  </g>
  <g id="Group_3159" data-name="Group 3159" transform="translate(157.486 102.628)">
    <path id="Path_5347" data-name="Path 5347" d="M424.048,347.35a9.968,9.968,0,0,1-9.945,9.934h14A9.971,9.971,0,0,0,438,347.35l-9.89-6.371-4.059-2.623Z" transform="translate(-414.103 -338.356)" fill="#fac574" fill-rule="evenodd"/>
  </g>
  <g id="Group_3160" data-name="Group 3160" transform="translate(19.147 118.665)">
    <path id="Path_5348" data-name="Path 5348" d="M83.409,385.846l-28.14,18.139a9.8,9.8,0,0,1-4.921-3.65,3.064,3.064,0,0,1,.424-.332l29.5-19.018a2.893,2.893,0,1,1,3.138,4.861Z" transform="translate(-50.347 -380.525)" fill="#fca863"/>
  </g>
  <g id="Group_3161" data-name="Group 3161" transform="translate(137.633 118.666)">
    <path id="Path_5349" data-name="Path 5349" d="M394.644,399.222a9.809,9.809,0,0,1-4.2,4.167l-27.226-17.542a2.894,2.894,0,0,1,3.142-4.86l28.148,18.143A1,1,0,0,1,394.644,399.222Z" transform="translate(-361.898 -380.525)" fill="#fca863"/>
  </g>
  <g id="Group_3162" data-name="Group 3162" transform="translate(36.23 20.764)">
    <path id="Path_5350" data-name="Path 5350" d="M240.417,133.019v80.936a9.753,9.753,0,0,1-.517,3.145,9.979,9.979,0,0,1-9.429,6.788H105.2a9.973,9.973,0,0,1-9.367-6.641,9.8,9.8,0,0,1-.567-3.292V133.019c0-.112,0-.227.008-.339v-.023A9.966,9.966,0,0,1,105.2,123.1H230.471a9.968,9.968,0,0,1,9.947,9.921Z" transform="translate(-95.265 -123.098)" fill="#fcd79f" fill-rule="evenodd"/>
  </g>
  <g id="Group_3163" data-name="Group 3163" transform="translate(167.432 32.315)">
    <path id="Path_5351" data-name="Path 5351" d="M440.253,164.913v58.871l4.059,2.623,9.89,6.371V153.471l-13.949,10.218Z" transform="translate(-440.253 -153.471)" fill="#fac574" fill-rule="evenodd"/>
  </g>
  <path id="Path_5352" data-name="Path 5352" d="M240.417,226.124v3.408a9.753,9.753,0,0,1-.517,3.145l-56.968-36.768-10.911,7.99c-.56.4-1.011.751-1.39,1.045-1.552,1.195-2.686,1.792-3.817,1.792s-2.265-.6-3.817-1.8c-.378-.289-.83-.64-1.382-1.041l-9.8-7.185-55.98,36.108a9.8,9.8,0,0,1-.567-3.292v-3.222l51.549-33.253-36.192-26.5L95.265,155.329l.008-7.073v-.023a2.858,2.858,0,0,1,.475.281l18.3,13.379,50.993,37.342c.405.3,1.038.778,1.432,1.079a.568.568,0,0,0,.691,0c.394-.3,1.031-.786,1.436-1.087L206.472,171.5a2.893,2.893,0,1,1,3.424,4.664l-21.969,16.085Z" transform="translate(-59.035 -117.91)" fill="#fca863"/>
  <g id="Group_3164" data-name="Group 3164" transform="translate(134.478)">
    <path id="Path_5353" data-name="Path 5353" d="M383.724,68.5A30.086,30.086,0,1,1,353.6,98.586,30.1,30.1,0,0,1,383.724,68.5Z" transform="translate(-353.604 -68.5)" fill="#d6d4d4" fill-rule="evenodd"/>
  </g>
  <g id="Group_3165" data-name="Group 3165" transform="translate(155.615 0)">
    <path id="Path_5354" data-name="Path 5354" d="M409.183,69.856a30.193,30.193,0,0,1,18.96,17.464,29.868,29.868,0,0,1,2.177,11.267,29.982,29.982,0,0,1-21.137,28.72,30.08,30.08,0,1,0,0-57.451Z" transform="translate(-409.183 -68.501)" fill="#d6d4d4" fill-rule="evenodd"/>
  </g>
  <g id="Group_3166" data-name="Group 3166" transform="translate(150.533 18.529)">
    <path id="Path_5355" data-name="Path 5355" d="M406.151,140.323a2.887,2.887,0,0,1-1.879-.693l-7.44-6.35a2.893,2.893,0,1,1,3.762-4.4l5.244,4.476,13.02-15.134a2.893,2.893,0,0,1,4.391,3.767l-14.9,17.321A2.888,2.888,0,0,1,406.151,140.323Z" transform="translate(-395.818 -117.22)" fill="#f8f6f6"/>
  </g>
</svg>
