<svg id="Group_496" data-name="Group 496" xmlns="http://www.w3.org/2000/svg" width="91.085" height="90.77" viewBox="0 0 91.085 90.77">
  <path id="Path_336" data-name="Path 336" d="M124.333,243.138a16.13,16.13,0,0,0,.569-4.94c-.03-.683.131-.933.877-1.083a94.487,94.487,0,0,0,10.631-2.272,26.976,26.976,0,0,0,4.934-2.078c6.1-3.43,8.647-9.121,7.166-15.966-.729-3.37-1.947-6.472-4.768-8.66-3.689-2.861-7.877-2.9-12.14-1.823a15.359,15.359,0,0,0-10.843,8.973c-.037-1.146-.086-2.169-.179-3.139-.017-.118-.032-.261-.045-.433-.013-.117-.027-.234-.042-.35-.287-1.693-1.844-1.706-2.649-1.593-.159.032-.424.064-.584.1h-.11c-1.551.354-3.158.548-5.177.954h.031c-2.675.443-2.707,2.774-2.571,3.815a3.708,3.708,0,0,0,.115.617h.006c.992,5.1,1.985,10.222,2.946,15.349.6,3.215,1.408,6.4,1.171,9.718a4.787,4.787,0,0,1-3.5,4.694,5.052,5.052,0,0,1-5.957-1.836,10.722,10.722,0,0,1-1.62-3.28,32.085,32.085,0,0,1-1.281-11.934c0-.018,0-.033,0-.052.076-1.941-1.861-1.469-1.861-1.469v0c-2.325.907-4.662,1.787-6.995,2.675a3.874,3.874,0,0,0-2.339,3.139,30.533,30.533,0,0,0,2.836,14.64c1.943,4.01,5.038,6.716,9.556,7.4a23.382,23.382,0,0,0,16.2-3.375A12.648,12.648,0,0,0,124.333,243.138Zm-.4-16.977a15.058,15.058,0,0,1,4.263-8.688c.032-.031.062-.062.1-.091,1.823-1.557,3.867-2.623,6.245-1.59,2.256.98,2.417,3.226,2.614,4.953.04,3.054-1.115,4.681-3.863,5.662a49.884,49.884,0,0,1-7.414,1.575C123.64,228.412,123.574,228.353,123.928,226.161Z" transform="translate(-90.093 -191.824)" fill="#5b83f9"/>
  <path id="Path_337" data-name="Path 337" d="M621.151,227.331l-.017-.082,0-.016h0q-.347-1.633-.674-3.269c0-.007,0-.013-.005-.021-.449-2.189-2.8-1.837-3.576-1.656l-.2.05-.057.017v0c-1.641.415-3.3.747-4.977,1.005-2.389.368-4.783.649-7.142-.185a4.2,4.2,0,0,1-2.928-3.681,4.1,4.1,0,0,1,1.945-4.269,10.923,10.923,0,0,1,3.752-1.51c3.117-.649,6.278-.99,9.439-1.327a4.408,4.408,0,0,0,4.24-4.122,53.677,53.677,0,0,0-.967-10.579c-1.332-5.909-4.459-10.254-10.63-11.719-5.747-1.364-11.388-.526-16.992.791-2.3.84-1.747,3.668-1.747,3.668l-.007-.007q.175,1.354.349,2.707h0s.528,2.829,3.09,2.321l.013,0a47.5,47.5,0,0,1,5.248-.885c5.981-.71,9.665,2.41,9.991,8.326.065,1.187-.327,1.493-1.366,1.619a28.053,28.053,0,0,0-8.663,2.482c-4.608,2.18-9.512,6.456-9.02,13.786.362,5.389,3.362,9.56,8.432,11.2a19.947,19.947,0,0,0,5.671.913,53.614,53.614,0,0,0,14.309-1.924A2.979,2.979,0,0,0,621.151,227.331Z" transform="translate(-530.126 -173.877)" fill="#5b83f9"/>
  <path id="Path_338" data-name="Path 338" d="M357.046,597.8a19.588,19.588,0,0,0-13.707-2.148c-6.568,1.348-10.779,6.516-11.339,13.8-.521,6.778,2.722,10.551,8,12.692a18.891,18.891,0,0,0,3.738,1.152c3.78.673,7.57,1.293,11.358,1.923h0l.444.074c1.248.16,4.728.255,5.322-3.523.151-.934.3-1.867.431-2.8.5-3.5,1.271-6.96,1.466-10.5a13.471,13.471,0,0,0-.508-3.891A10.463,10.463,0,0,0,357.046,597.8Zm-13.565,14.041a6.741,6.741,0,0,1,1.28-6.419,4.037,4.037,0,0,1,4.557-1.106,3.718,3.718,0,0,1,2.414,3.568c.03.348,0,.7,0,1.05a24.9,24.9,0,0,1-.508,4.113c0,.02-.007.037-.011.059-.39,2.533-2.814,2.186-3.429,2.055C345.857,614.71,344.049,613.969,343.481,611.841Z" transform="translate(-302.887 -534.585)" fill="#5b83f9"/>
  <path id="Path_339" data-name="Path 339" d="M334.751,100.263c.592,1.761,1.645,3.172,3.609,3.387a4.761,4.761,0,0,0,4.993-2.437c.332-.584.527-.659,1.155-.314,3.433,1.882,8.067-.876,8.093-5.145a7.887,7.887,0,0,0-.428-1.935c-.388-1.15-.372-2.884-1.29-3.279-.876-.376-2.274.531-3.461.786-.787.169-.832.479-.6,1.187a34.839,34.839,0,0,1,.943,3.668.911.911,0,0,1-.7,1.213,1.054,1.054,0,0,1-1.294-.632c-.11-.237-.174-.495-.286-.731-.51-1.08-.263-2.857-1.334-3.2-.964-.3-2.282.6-3.466.875-.76.177-.745.561-.55,1.141.306.907.614,1.815.858,2.739.161.61.453,1.382-.461,1.641s-1.161-.438-1.442-1.14c-.44-1.1-.191-2.863-1.287-3.192-.979-.294-2.3.561-3.476.908a1.3,1.3,0,0,1-.128.028c-.544.1-.677.371-.5.921C334.092,97.915,334.363,99.109,334.751,100.263Z" transform="translate(-304.372 -90.449)" fill="#5b83f9"/>
  <path id="Path_340" data-name="Path 340" d="M503.494,508.666a4.985,4.985,0,0,0,4.11,2.46,5.163,5.163,0,0,0,5.209-5.112,4.854,4.854,0,0,0-4.739-5.3,5.055,5.055,0,0,0-5.287,4.975,5.317,5.317,0,0,0,.214,1.831,3.052,3.052,0,0,0,4.459-1.07c.277-.424.961-.029.682.4A3.923,3.923,0,0,1,503.494,508.666Zm1.856-3.577a.691.691,0,1,1,.73-.649A.691.691,0,0,1,505.349,505.088Z" transform="translate(-453.195 -451.414)" fill="#5b83f9"/>
  <path id="Path_341" data-name="Path 341" d="M628.386,609.113c-4.021-.59-8.035-1.225-12.334-1.89-.463-.255-.67.235-.837.8-.349,1.172-.649,2.362-1.073,3.506-.3.818-.026,1.044.738,1.153q5.9.844,11.781,1.753c.5.076.8.067.952-.524.36-1.35.794-2.68,1.212-4.015C628.961,609.459,629,609.2,628.386,609.113Z" transform="translate(-551.072 -545.073)" fill="#5b83f9"/>
  <g id="Group_496-2" data-name="Group 496" transform="translate(36.726 47.963)">
    <path id="Path_342" data-name="Path 342" d="M405.887,494.285a5.127,5.127,0,0,0-5.523-4.614,5.213,5.213,0,0,0-4.58,5.718,5.152,5.152,0,0,0,5.59,4.706,4.933,4.933,0,0,0,3.331-1.9c.228-.31-.231-.576-.233-.577l-2.805-1.543h0l-.044-.024c-.112-.065-.366-.238.106-.238l3.564.533h0a.414.414,0,0,0,.471-.346A5.471,5.471,0,0,0,405.887,494.285Zm-2.23-.017a.691.691,0,1,1,.62-.755A.691.691,0,0,1,403.656,494.268Z" transform="translate(-395.766 -489.65)" fill="#5b83f9"/>
  </g>
</svg>
