<svg xmlns="http://www.w3.org/2000/svg" width="160.41" height="150.175" viewBox="0 0 160.41 150.175">
  <g id="password" transform="translate(-0.001 -16.334)">
    <g id="Group_12601" data-name="Group 12601" transform="translate(0.001 16.334)">
      <path id="Path_14477" data-name="Path 14477" d="M100.8,106.2a9.3,9.3,0,0,1-8.655,8.944c-4.445.325-8.933.493-13.335.493s-8.886-.168-13.331-.493a9.3,9.3,0,0,1-8.655-8.944c-.712-20.774-.712-41.818,0-62.546a9.3,9.3,0,0,1,8.655-8.944c4.445-.325,8.933-.493,13.335-.493s8.89.168,13.339.493a9.3,9.3,0,0,1,8.655,8.944q.158,4.6.266,9.21H118.96q-.111-4.926-.281-9.824A27.148,27.148,0,0,0,93.463,16.874c-4.883-.36-9.808-.54-14.648-.54s-9.766.18-14.644.54A27.155,27.155,0,0,0,38.951,43.04c-.723,21.134-.723,42.588,0,63.769A27.152,27.152,0,0,0,64.17,132.978c4.879.36,9.809.54,14.644.54s9.766-.18,14.648-.54a27.158,27.158,0,0,0,25.215-26.169q.088-2.621.164-5.254H100.949q-.064,2.328-.145,4.644Z" transform="translate(-26.376 -16.335)" fill="#665e66"/>
      <g id="Group_12600" data-name="Group 12600" transform="translate(12.036)">
        <path id="Path_14478" data-name="Path 14478" d="M190.6,73.9c-2.936-.215-5.891-.352-8.827-.426,1.509-.039,3.018-.066,4.512-.066,4.4,0,8.89.168,13.335.493a9.3,9.3,0,0,1,8.655,8.944q.158,4.6.266,9.21h-9.019q-.111-4.615-.266-9.21A9.3,9.3,0,0,0,190.6,73.9Z" transform="translate(-136.861 -55.528)" fill="#544f57"/>
        <path id="Path_14479" data-name="Path 14479" d="M73.2,132.977A27.155,27.155,0,0,1,47.98,106.81c-.725-21.18-.726-42.636,0-63.769A27.154,27.154,0,0,1,73.2,16.874c3.372-.248,6.765-.405,10.137-.482-1.509-.034-3.014-.058-4.51-.058-4.838,0-9.766.182-14.647.54A27.154,27.154,0,0,0,38.959,43.041c-.723,21.134-.722,42.589,0,63.769a27.155,27.155,0,0,0,25.215,26.167c4.88.359,9.808.541,14.646.541,1.5,0,3-.024,4.51-.058C79.96,133.382,76.567,133.225,73.2,132.977Z" transform="translate(-38.417 -16.334)" fill="#544f57"/>
      </g>
      <path id="Path_14480" data-name="Path 14480" d="M52.441,274.231c-11.836,0-23.771-.343-35.687-1.025A16.96,16.96,0,0,1,.8,257.343a400.161,400.161,0,0,1,0-50.532A16.959,16.959,0,0,1,16.75,190.948c11.905-.68,23.856-1.023,35.691-1.023s23.786.343,35.691,1.023a16.959,16.959,0,0,1,15.953,15.862,400.162,400.162,0,0,1,0,50.532,16.96,16.96,0,0,1-15.953,15.864C76.212,273.888,64.276,274.231,52.441,274.231Z" transform="translate(-0.001 -135.539)" fill="#ffd24c"/>
      <path id="Path_14481" data-name="Path 14481" d="M20.814,275.191c-1.355-.063-2.709-.139-4.059-.215A16.957,16.957,0,0,1,.8,259.113a400.368,400.368,0,0,1,0-50.534A16.964,16.964,0,0,1,16.75,192.717c1.355-.076,2.7-.152,4.059-.215a18.043,18.043,0,0,0-8.888,14.441,425.354,425.354,0,0,0,0,53.807,18.044,18.044,0,0,0,8.888,14.441Z" transform="translate(-0.002 -137.308)" fill="#ecc32e"/>
    </g>
    <g id="Group_12603" data-name="Group 12603" transform="translate(37.99 114.572)">
      <path id="Path_14482" data-name="Path 14482" d="M234.958,383.784q-47.276,1.768-94.553,0a11.028,11.028,0,0,1-10.445-9.261,82.048,82.048,0,0,1,0-26.887,11.028,11.028,0,0,1,10.445-9.261q47.276-1.768,94.553,0a11.028,11.028,0,0,1,10.445,9.261,82.048,82.048,0,0,1,0,26.887A11.028,11.028,0,0,1,234.958,383.784Z" transform="translate(-126.471 -335.11)" fill="#f9f6f9"/>
      <path id="Path_14483" data-name="Path 14483" d="M182.466,381.829c-15.825,0-31.651-.294-47.365-.881a13.462,13.462,0,0,1-12.709-11.256,84.8,84.8,0,0,1,0-27.664A13.462,13.462,0,0,1,135.1,330.773c31.43-1.175,63.3-1.175,94.731,0a13.462,13.462,0,0,1,12.709,11.256,84.8,84.8,0,0,1,0,27.664,13.462,13.462,0,0,1-12.709,11.256C214.116,381.536,198.291,381.829,182.466,381.829Zm47.276-3.264h0Zm-47.276-43.9c-15.766,0-31.531.293-47.187.878a8.677,8.677,0,0,0-8.182,7.266,80.039,80.039,0,0,0,0,26.111,8.677,8.677,0,0,0,8.182,7.266c31.312,1.171,63.063,1.171,94.374,0a8.677,8.677,0,0,0,8.182-7.266,80.038,80.038,0,0,0,0-26.111,8.677,8.677,0,0,0-8.182-7.266C214,334.954,198.231,334.662,182.466,334.662Z" transform="translate(-121.255 -329.892)" fill="#e2dfe2"/>
      <g id="Group_12602" data-name="Group 12602" transform="translate(9.427 12.719)">
        <path id="Path_14484" data-name="Path 14484" d="M174.614,377.115a2.385,2.385,0,0,0-3.258-.873l-5.831,3.367v-6.734a2.385,2.385,0,0,0-4.77,0v6.734l-5.832-3.367a2.385,2.385,0,1,0-2.385,4.131l5.832,3.367-5.832,3.367a2.385,2.385,0,1,0,2.385,4.131l5.832-3.367V394.6a2.385,2.385,0,1,0,4.77,0V387.87l5.831,3.367a2.385,2.385,0,0,0,2.385-4.131l-5.832-3.367,5.832-3.367A2.384,2.384,0,0,0,174.614,377.115Z" transform="translate(-151.346 -370.49)" fill="#5b83f9"/>
        <path id="Path_14485" data-name="Path 14485" d="M258.374,377.115a2.385,2.385,0,0,0-3.258-.873l-5.832,3.367v-6.734a2.385,2.385,0,0,0-4.77,0v6.734l-5.832-3.367a2.385,2.385,0,1,0-2.385,4.131l5.832,3.367-5.832,3.367a2.385,2.385,0,1,0,2.385,4.131l5.832-3.367V394.6a2.385,2.385,0,0,0,4.77,0v-6.734l5.832,3.367a2.385,2.385,0,0,0,2.385-4.131l-5.832-3.367,5.832-3.367A2.385,2.385,0,0,0,258.374,377.115Z" transform="translate(-208.864 -370.49)" fill="#5b83f9"/>
        <path id="Path_14486" data-name="Path 14486" d="M342.134,377.115a2.385,2.385,0,0,0-3.258-.873l-5.832,3.367v-6.734a2.385,2.385,0,0,0-4.77,0v6.734l-5.832-3.367a2.385,2.385,0,1,0-2.385,4.131l5.832,3.367-5.832,3.367a2.385,2.385,0,1,0,2.385,4.131l5.832-3.367V394.6a2.385,2.385,0,0,0,4.77,0v-6.734l5.832,3.367a2.385,2.385,0,0,0,2.385-4.131l-5.832-3.367,5.832-3.367A2.384,2.384,0,0,0,342.134,377.115Z" transform="translate(-266.382 -370.49)" fill="#5b83f9"/>
        <path id="Path_14487" data-name="Path 14487" d="M425.023,387.105l-5.832-3.367,5.832-3.367a2.385,2.385,0,1,0-2.385-4.131l-5.831,3.367v-6.734a2.385,2.385,0,0,0-4.77,0v6.734l-5.832-3.367a2.385,2.385,0,1,0-2.385,4.131l5.832,3.367-5.832,3.367a2.385,2.385,0,1,0,2.385,4.131l5.832-3.367V394.6a2.385,2.385,0,1,0,4.77,0v-6.734l5.831,3.367a2.385,2.385,0,1,0,2.385-4.13Z" transform="translate(-323.901 -370.489)" fill="#5b83f9"/>
      </g>
    </g>
    <g id="Group_12604" data-name="Group 12604" transform="translate(98.665 43.314)">
      <path id="Path_14488" data-name="Path 14488" d="M317.305,116.945a2.386,2.386,0,0,1-2.154-3.405l4.6-9.725a2.385,2.385,0,0,1,4.312,2.04l-4.6,9.725A2.385,2.385,0,0,1,317.305,116.945Z" transform="translate(-314.922 -102.449)" fill="#dd636e"/>
    </g>
    <g id="Group_12605" data-name="Group 12605" transform="translate(103.306 66.01)">
      <path id="Path_14489" data-name="Path 14489" d="M341.844,184.263a2.371,2.371,0,0,1-1.018-.23l-9.725-4.6a2.385,2.385,0,0,1,2.039-4.311l9.725,4.6a2.385,2.385,0,0,1-1.021,4.541Z" transform="translate(-329.735 -174.892)" fill="#dd636e"/>
    </g>
    <g id="Group_12606" data-name="Group 12606" transform="translate(103.672 54.939)">
      <path id="Path_14490" data-name="Path 14490" d="M333.289,147.949a2.385,2.385,0,0,1-.8-4.631l10.129-3.624a2.385,2.385,0,0,1,1.607,4.491l-10.129,3.624A2.383,2.383,0,0,1,333.289,147.949Z" transform="translate(-330.903 -139.554)" fill="#dd636e"/>
    </g>
  </g>
</svg>
