<svg id="Component_2_1" data-name="Component 2 – 1" xmlns="http://www.w3.org/2000/svg" width="169.429" height="151.608" viewBox="0 0 169.429 151.608">
  <g id="book" opacity="0.6">
    <path id="Path_16180" data-name="Path 16180" d="M27.981,10.485c4.091,3.081,7.225,5.871,7.624,5.5.372-.319-2.258-3.8-6.508-6.986-4.224-3.214-8.288-4.782-8.5-4.33S23.916,7.377,27.981,10.485Z" transform="translate(31.151 -4.238)" fill="#fff"/>
    <path id="Path_16181" data-name="Path 16181" d="M35.351,12.936c.319-.345-3.321-3.772-9.085-5.578-5.738-1.833-10.705-1.142-10.626-.664,0,.558,4.675.691,10.068,2.444,5.393,1.674,9.3,4.25,9.643,3.8Z" transform="translate(22.957 -1.642)" fill="#fff"/>
    <path id="Path_16182" data-name="Path 16182" d="M45.329,14.718c-1.169,1.647-1.567,2.869-1.355,2.975.478.292,3.135-3.772,8.129-6.694,4.941-3.028,9.776-3.453,9.722-4.011,0-.239-1.249-.452-3.267-.213a19.854,19.854,0,0,0-13.229,7.943Z" transform="translate(69.8 -0.794)" fill="#fff"/>
    <path id="Path_16183" data-name="Path 16183" d="M49.252,8.527c4.967-3.241,10.041-2.9,10.068-3.453C59.347,4.861,58.1,4.41,56,4.463a15.867,15.867,0,0,0-7.757,2.47,15.693,15.693,0,0,0-5.552,5.924c-.956,1.886-1.089,3.188-.877,3.241.5.266,2.391-4.463,7.438-7.571Z" transform="translate(66.169 -4.458)" fill="#fff"/>
    <path id="Path_16184" data-name="Path 16184" d="M170.031,75.544c-.372-9.032-.744-17.16-.93-24.333-.08-3.586-.159-6.907-.159-9.962-.08-3.108.186-5.764-.133-8.527a5.157,5.157,0,0,0-.717-1.966,3.713,3.713,0,0,0-1.541-1.355,10.677,10.677,0,0,0-3.188-.93,23.814,23.814,0,0,0-4.994-.186,18.287,18.287,0,0,0-2.258.292c.027-.691.027-1.408.053-2.1-.106-1.514.478-3.692-.425-6.057a6.058,6.058,0,0,0-2.47-2.922,10.011,10.011,0,0,0-3.161-1.169c-2.045-.372-3.772-.5-5.658-.77-1.859-.213-3.746-.425-5.632-.638-3.772-.4-7.65-.664-11.555-.691a63.3,63.3,0,0,0-23.669,3.985,35.946,35.946,0,0,0-10.785,6.455,28.5,28.5,0,0,0-4.357,4.755c-.133.186-.027.053-.08.106l-.159-.239a28.605,28.605,0,0,0-9.722-8.421A56.406,56.406,0,0,0,67.042,16.2,154.171,154.171,0,0,0,43.8,11.471a77.9,77.9,0,0,0-11.662-.5,24.54,24.54,0,0,0-6.03.77,7.875,7.875,0,0,0-5.313,4.41c-.877,2.311-.744,4.2-.93,6-.106,1.833-.239,3.639-.345,5.446-.186,3.613-.4,7.2-.584,10.732-.664,14.079-.956,27.52-1.089,40.085-.053,6.269-.08,12.352-.133,18.17,0,2.922,0,5.764-.027,8.554.053,1.328-.186,3.081,1.063,4.835a4.445,4.445,0,0,0,2.417,1.514,20.433,20.433,0,0,0,2.152.372c10.838,1.355,20.508.4,28.769,1.647a39.715,39.715,0,0,1,11.1,2.949,42.69,42.69,0,0,1,8.208,5.207c4.6,3.746,8.288,6.694,11.1,8.208a7.227,7.227,0,0,0,3.533,1.036c.823,0,1.249-.133,1.222-.213.027-.213-1.806.239-4.357-1.461-2.63-1.7-6.057-4.728-10.573-8.686a40,40,0,0,0-8.368-5.685,40.728,40.728,0,0,0-11.582-3.4c-8.527-1.461-18.356-.691-28.689-2.178-1.381-.159-2.5-.4-2.816-.93-.425-.531-.478-1.753-.452-3.161.053-2.789.08-5.658.133-8.554q.159-8.726.345-18.17c.266-12.538.691-25.927,1.434-40.006q.319-5.26.638-10.679c.133-1.806.239-3.613.372-5.419a18.384,18.384,0,0,1,.691-4.861c.85-2.338,4.542-2.9,8.182-2.922a78.651,78.651,0,0,1,11.13.531,152.649,152.649,0,0,1,22.606,4.675c7.358,2.2,14.8,5.525,19.179,11.688a9.414,9.414,0,0,1,.691,1.036l.77,1.355,1.729,2.461S87.2,130.762,87.2,130.77c0,.027.133.027.133.027a.169.169,0,0,0,.159,0,8.457,8.457,0,0,0,.956-.08,10.3,10.3,0,0,0,3.4-1.355,36.8,36.8,0,0,0,4.728-3.506,41.211,41.211,0,0,1,6.3-4.649,48.631,48.631,0,0,1,20.242-6.375,133.36,133.36,0,0,1,13.441-.611h7.411c1.275,0,2.577-.027,3.878-.027.638-.027,1.3,0,2.125-.106a4.263,4.263,0,0,0,2.55-1.142,2.915,2.915,0,0,0,.8-1.488,6.1,6.1,0,0,0,.133-1.275l.053-2.045.08-4.144c.027-2.789.053-5.658.08-8.58q.04-8.726.053-18.17c-.027-12.538,1.2-25.794,2.019-39.979.133-2.683.239-5.419.292-8.182a19.611,19.611,0,0,1,2.285-.053,26.956,26.956,0,0,1,4.782.531,10.664,10.664,0,0,1,2.763.956,2.8,2.8,0,0,1,1.434,2.417c.159,2.258-.186,5.233-.213,8.288-.106,3.081-.133,6.429-.159,10.015-.027,7.2.186,15.354.372,24.386s.345,18.861-.027,29.46q-.2,7.969-.452,16.443c-.106,2.789-.08,5.791-.319,8.474a10.3,10.3,0,0,1-.9,3.613,3.394,3.394,0,0,1-2.364,1.78c-2.391.611-5.472.4-8.5.319-3.055-.106-6.136-.213-9.271-.319q-9.364-.319-19.1-.638c-3.267-.133-6.508-.133-9.722-.478a89.605,89.605,0,0,0-10.174-.584,23.4,23.4,0,0,0-10.6,2.55c-3.267,1.78-5.844,4.383-8.368,5.26-2.364.877-4.011-1.036-6.269-4.064a15.036,15.036,0,0,0-4.489-3.639,14.371,14.371,0,0,0-5.525-1.461c-3.692-.266-6.986.266-10.227.425-3.294.106-6.535.213-9.776.319q-9.722.319-19.1.611c-6.322.159-12.459,1.063-17.957.266a11.627,11.627,0,0,1-6.694-3.294,13.108,13.108,0,0,1-2.842-6.907c-.266-2.577-.266-5.419-.319-8.155-.027-2.736-.053-5.419-.08-8.076-.053-10.6.106-20.481.213-29.486.106-9.032.213-17.187.186-24.386-.027-3.586-.053-6.933-.08-10.015,0-3.081-.319-5.9.558-8.022a7.785,7.785,0,0,1,4.489-3.985,15.9,15.9,0,0,1,4.675-.85c2.63-.08,4.038,0,4.038-.159,0-.106-1.355-.425-4.038-.584a14.321,14.321,0,0,0-5.021.558,8.89,8.89,0,0,0-5.472,4.436c-1.2,2.6-.9,5.578-1.009,8.607-.053,3.081-.133,6.4-.213,9.988C2.332,60.8,2.093,68.956,1.8,77.961c-.292,9.032-.584,18.914-.664,29.539,0,2.656-.027,5.366-.027,8.1.027,2.763-.027,5.5.266,8.527a16.152,16.152,0,0,0,3.586,8.74,14.612,14.612,0,0,0,8.74,4.383c6.349.956,12.485.027,18.621-.08q9.364-.239,19.1-.531c3.267-.106,6.561-.186,9.855-.292,3.347-.159,6.694-.638,9.722-.4a10.14,10.14,0,0,1,7.491,3.825,21.838,21.838,0,0,0,3.719,4.091,6.939,6.939,0,0,0,3.108,1.381,7.029,7.029,0,0,0,3.427-.266,18.847,18.847,0,0,0,4.967-2.816,39.97,39.97,0,0,1,4.064-2.71,19.481,19.481,0,0,1,8.926-2.125,87.448,87.448,0,0,1,9.749.558c3.347.345,6.668.345,9.882.452q9.762.279,19.126.558c3.135.08,6.216.186,9.271.266,3.081.027,6.11.345,9.537-.5a6.729,6.729,0,0,0,4.436-3.506,13.232,13.232,0,0,0,1.222-4.861c.239-3.108.159-5.871.266-8.713.08-5.658.186-11.157.266-16.443.239-10.652-.08-20.587-.425-29.592ZM152.685,24.992l-.027,1.461c0,3.586-.133,7.119-.292,10.652-.691,14.026-1.833,27.52-1.674,40.112q.08,9.444.159,18.17c0,2.9.027,5.764.027,8.554,0,1.381-.027,2.763-.027,4.144-.027,1.275.027,3.108-.213,3.028a1.842,1.842,0,0,1-1.036.4,17.433,17.433,0,0,1-1.806.106c-1.3.027-2.577.08-3.852.106-2.55.053-5.021.08-7.411.133a128.553,128.553,0,0,0-13.681.9,49.72,49.72,0,0,0-20.747,7.2,39.491,39.491,0,0,0-6.269,5.047,42.651,42.651,0,0,1-4.383,3.692,11.806,11.806,0,0,1-3.8,1.833l-.452.091,1.118-94.3c.038.02,2.043-3.364,3.079-4.719a23.55,23.55,0,0,1,3.8-4.171,32.877,32.877,0,0,1,9.7-5.791,59.234,59.234,0,0,1,22.261-3.772,176.134,176.134,0,0,1,22.154,1.939c1.647.319,2.71.9,3.055,1.886a5.591,5.591,0,0,1,.292,2.019,5.1,5.1,0,0,1,.027,1.275Z" transform="translate(-1.11 6.252)" fill="#fff"/>
  </g>
  <path id="Path_16185" data-name="Path 16185" d="M-38.307,13.86a14.284,14.284,0,0,1-7.068-1.76A13.424,13.424,0,0,1-50.38,7.343,12.607,12.607,0,0,1-52.222.605a17.43,17.43,0,0,1,.963-5.748,17.463,17.463,0,0,1,2.833-5.143,18.611,18.611,0,0,1,4.62-4.125l4.785,6.93A14.186,14.186,0,0,0-43.2-3.3a9.644,9.644,0,0,0-1.54,5.28,7.88,7.88,0,0,0,.963,3.988,6.583,6.583,0,0,0,2.667,2.585,8.184,8.184,0,0,0,3.905.907,5.65,5.65,0,0,0,4.262-1.622A9.408,9.408,0,0,0-30.69,3.575,22.415,22.415,0,0,0-30-2.09a41.163,41.163,0,0,0-.6-7.343q-.605-3.327-1.6-6.847l9.625-1.54q.275,1.65.357,2.8t.138,2.255a9.211,9.211,0,0,1,.055,1.017q0,.523,0,1.073a50.992,50.992,0,0,1-.66,8.91,27.271,27.271,0,0,1-2.5,7.893,14.2,14.2,0,0,1-5.005,5.638A14.613,14.613,0,0,1-38.307,13.86ZM-16.747.5A9.658,9.658,0,0,1-21.45-.66a8.277,8.277,0,0,1-3.355-3.465,12.261,12.261,0,0,1-1.237-5.83l4.015-.715a10.574,10.574,0,0,0,.962,4.4,3.282,3.282,0,0,0,3.217,1.65,2.873,2.873,0,0,0,2.805-1.485,8.082,8.082,0,0,0,.77-3.74,21.394,21.394,0,0,0-.11-2.283,18.928,18.928,0,0,0-.357-2.117q-.248-1.1-.632-2.64l9.46-1.32q0,.88-.028,2.007t-.028,2.448A20.2,20.2,0,0,1-7.315-5.858,10.357,10.357,0,0,1-11.082-1.1,10.057,10.057,0,0,1-16.747.5Zm16.61.11a9.41,9.41,0,0,1-4.9-1.21A9.122,9.122,0,0,1-8.195-3.63,8.287,8.287,0,0,1-9.487-7.26l3.52-6.49a28.03,28.03,0,0,0,.385,4.867,7.312,7.312,0,0,0,1.43,3.438A3.572,3.572,0,0,0-1.237-4.18,2.775,2.775,0,0,0,1.458-5.665a8.082,8.082,0,0,0,.77-3.74,27.618,27.618,0,0,0-.605-5.253A57.889,57.889,0,0,0-.192-21.4l9.515-1.98q.44,2.585.688,4.537t.357,3.63q.11,1.678.11,3.547A17.193,17.193,0,0,1,9.432-5.61,9.659,9.659,0,0,1,6.077-1.1,10.241,10.241,0,0,1-.137.605Zm14.85-33.22a4.512,4.512,0,0,1-3.327-1.128,3.586,3.586,0,0,1-1.128-2.612,4.845,4.845,0,0,1,.99-3.08,6.752,6.752,0,0,1,2.42-1.953,6.34,6.34,0,0,1,2.75-.687,5.236,5.236,0,0,1,3.52,1.127,3.745,3.745,0,0,1,1.32,3,4.581,4.581,0,0,1-1.98,3.878A7.5,7.5,0,0,1,14.712-32.615Zm-.165-2.255a2.85,2.85,0,0,0,2.063-.715,2.074,2.074,0,0,0,.743-1.485,1.739,1.739,0,0,0-.5-1.237,1.953,1.953,0,0,0-1.485-.523,2.939,2.939,0,0,0-2.035.8,2.206,2.206,0,0,0-.88,1.567Q12.457-34.87,14.547-34.87Zm1.375,55.22L8.827,12.925a60.864,60.864,0,0,0,8.167-8.058A30.686,30.686,0,0,0,21.917-3.3a23.317,23.317,0,0,0,1.65-8.635,22.881,22.881,0,0,0-.385-4.207,18.892,18.892,0,0,0-1.21-3.988L27.2-22a36.827,36.827,0,0,1,1.952,6.93,45.42,45.42,0,0,1,.688,8.2,30.773,30.773,0,0,1-1.347,8.58,36.731,36.731,0,0,1-4.373,9.378A43.328,43.328,0,0,1,15.922,20.35Zm12.76-54.175V-37.51q2.64-.495,4.758-.88t4.153-.743q2.035-.357,4.4-.742v2.255q-2.53.66-4.428,1.183T33.632-35.31Q31.6-34.705,28.682-33.825ZM34.512,0l-.55-4.95a20.141,20.141,0,0,0,2.612.3A17.218,17.218,0,0,0,39.49-4.73a10.364,10.364,0,0,0,2.695-.66,5.02,5.02,0,0,0,2.007-1.4,3.488,3.488,0,0,0,.77-2.338,8.657,8.657,0,0,0-.495-2.53,35.17,35.17,0,0,0-1.292-3.355q-.8-1.815-1.815-3.74T39.3-22.44l9.79-2.31a41.792,41.792,0,0,1,1.788,5.363,46.772,46.772,0,0,1,1.017,4.95,28.056,28.056,0,0,1,.33,3.932A9.291,9.291,0,0,1,50.875-5.28a9.062,9.062,0,0,1-3.8,3.19A19.938,19.938,0,0,1,41.442-.468,47.909,47.909,0,0,1,34.512,0Z" transform="translate(85 89)" fill="#fff"/>
</svg>
