<svg xmlns="http://www.w3.org/2000/svg" width="173.612" height="133.427" viewBox="0 0 173.612 133.427">
  <g id="Group_12664" data-name="Group 12664" transform="translate(-66.472 -55.402)">
    <g id="Group_12663" data-name="Group 12663" transform="translate(66.472 55.402)">
      <g id="Group_12661" data-name="Group 12661">
        <path id="Path_14559" data-name="Path 14559" d="M870.043,706.294a42.312,42.312,0,0,1,5.584-8.9c18.1-22.14,53.66-20.274,74.512-2.428,23.127,19.792,20.988,53.1,20.516,58.794-1.644,19.8-11.924,52.029-35.569,58.595-10.984,3.05-21.466-.38-30.61-6.742a19.16,19.16,0,0,0-23.636,1.334,32.717,32.717,0,0,1-8.742,5.445,31.309,31.309,0,0,1-16.63,1.824c-21.964-3.008-43.419-28.015-43.217-51.4C812.482,735.991,841.2,715.411,870.043,706.294Z" transform="translate(-812.249 -681.186)" fill="#ecf3fe"/>
        <g id="Group_12644" data-name="Group 12644" transform="translate(38.36 21.378)">
          <path id="Path_14560" data-name="Path 14560" d="M1691.743,1836.723v52.75c0,.064,0,.128-.006.2,0,.031,0,.061-.006.092s0,.058-.006.089c0,.012,0,.024,0,.037s-.006.04-.009.058c0,.046-.012.092-.018.138s-.015.089-.024.131a.484.484,0,0,1-.016.064.138.138,0,0,1-.009.049.543.543,0,0,1-.015.064c-.009.04-.021.079-.031.116a.053.053,0,0,1-.006.021c-.021.067-.04.135-.064.2a.012.012,0,0,1,0,.009c-.012.034-.025.067-.037.1s-.025.058-.034.085a.138.138,0,0,0-.009.025c-.037.082-.073.168-.116.247-.012.024-.027.055-.043.083s-.031.052-.046.079-.028.052-.046.076c-.031.052-.064.1-.1.153-.021.034-.043.061-.061.092-.052.067-.1.134-.156.2-.04.049-.079.095-.119.138s-.083.089-.125.131c-.018.021-.04.04-.061.061a.479.479,0,0,1-.058.052c-.021.021-.046.043-.07.064-.006.006-.015.012-.021.018-.058.052-.119.1-.18.147a.066.066,0,0,0-.018.015c-.049.034-.1.07-.15.1-.018.012-.034.025-.049.034s-.055.037-.082.052a.47.47,0,0,1-.067.04c-.024.016-.049.031-.073.043a3.421,3.421,0,0,1-.538.247c-.012,0-.021.009-.034.012l-.04.012c-.043.015-.086.031-.131.043-.076.024-.153.043-.229.061l-.119.028a.669.669,0,0,1-.077.012l-.095.018c-.006,0-.009,0-.012,0l-.076.009-.037,0-.067.009c-.012,0-.024,0-.04,0l-.141.009c-.067,0-.134.006-.2.006h-93.195c-.067,0-.135,0-.2-.006l-.141-.009a1.359,1.359,0,0,1-.156-.018.749.749,0,0,1-.089-.012c-.073-.009-.147-.024-.217-.04a.43.43,0,0,1-.061-.016c-.077-.018-.153-.037-.229-.061-.046-.015-.089-.027-.131-.043a4.1,4.1,0,0,1-.593-.26l-.137-.083c-.052-.03-.1-.064-.153-.1a3.8,3.8,0,0,1-.8-.73,2.519,2.519,0,0,1-.156-.2,3.6,3.6,0,0,1-.419-.752c-.024-.061-.049-.128-.073-.193s-.043-.131-.064-.2-.037-.134-.052-.2-.028-.125-.04-.189c0-.009,0-.021-.006-.031-.009-.061-.018-.125-.025-.186a.024.024,0,0,1,0-.016c-.006-.049-.009-.095-.012-.144-.009-.095-.012-.189-.012-.287v-52.75a3.761,3.761,0,0,1,1.375-2.912.2.2,0,0,1,.025-.018l.2-.15a3.744,3.744,0,0,1,2.179-.694h93.195a2.508,2.508,0,0,1,.269.012.13.13,0,0,1,.049,0c.086.006.174.015.257.027l.058.009c.073.012.147.027.217.046a.388.388,0,0,1,.055.012c.089.021.174.046.26.073s.162.055.238.085a3.107,3.107,0,0,1,.321.15,1.857,1.857,0,0,1,.171.092,2.454,2.454,0,0,1,.281.183s0,0,0,0l.2.15a.165.165,0,0,1,.024.018c.052.04.1.083.144.125s.07.064.1.1a3.338,3.338,0,0,1,.294.324q.064.078.119.156a3.551,3.551,0,0,1,.4.7c.031.067.058.138.086.208,0,0,0,.006,0,.009a3.461,3.461,0,0,1,.107.345c.015.058.028.113.04.171s.019.089.025.134.015.092.021.138a1.489,1.489,0,0,1,.018.165,1.08,1.08,0,0,1,.009.14C1691.74,1836.592,1691.743,1836.659,1691.743,1836.723Z" transform="translate(-1591 -1797.593)" fill="#dfe5ea"/>
          <path id="Path_14561" data-name="Path 14561" d="M1695.881,1153.022H1595.59a3.772,3.772,0,0,1,1.149-1.623.161.161,0,0,1,.024-.018l.2-.15,46.464-35.271a3.819,3.819,0,0,1,4.624,0l46.462,35.271s0,0,0,0l.2.15a.153.153,0,0,1,.024.018c.052.04.1.083.144.125s.07.064.1.1a3.335,3.335,0,0,1,.293.324q.064.078.119.156a3.54,3.54,0,0,1,.4.7c.031.067.058.138.086.208C1695.878,1153.016,1695.881,1153.019,1695.881,1153.022Z" transform="translate(-1595.364 -1115.181)" fill="#5b97ef"/>
          <path id="Rectangle_4187" data-name="Rectangle 4187" d="M43.76,0h0A43.76,43.76,0,0,1,87.52,43.76V86.167a0,0,0,0,1,0,0H0a0,0,0,0,1,0,0V43.76A43.76,43.76,0,0,1,43.76,0Z" transform="translate(5.989 6.741)" fill="#fff"/>
          <rect id="Rectangle_4188" data-name="Rectangle 4188" width="67.586" height="3.973" rx="1.986" transform="translate(15.957 21.835)" fill="#e4ecf9"/>
          <path id="Rectangle_4189" data-name="Rectangle 4189" d="M1.986,0H65.6a1.986,1.986,0,0,1,1.986,1.986v0A1.986,1.986,0,0,1,65.6,3.973H1.986A1.986,1.986,0,0,1,0,1.986v0A1.986,1.986,0,0,1,1.986,0Z" transform="translate(15.957 30.322)" fill="#e4ecf9"/>
          <path id="Rectangle_4190" data-name="Rectangle 4190" d="M1.986,0H65.6a1.986,1.986,0,0,1,1.986,1.986v0A1.986,1.986,0,0,1,65.6,3.973H1.986A1.986,1.986,0,0,1,0,1.986v0A1.986,1.986,0,0,1,1.986,0Z" transform="translate(15.957 38.809)" fill="#e4ecf9"/>
          <path id="Rectangle_4191" data-name="Rectangle 4191" d="M1.986,0H65.6a1.986,1.986,0,0,1,1.986,1.986v0A1.986,1.986,0,0,1,65.6,3.973H1.986A1.986,1.986,0,0,1,0,1.986v0A1.986,1.986,0,0,1,1.986,0Z" transform="translate(15.957 47.296)" fill="#e4ecf9"/>
          <path id="Rectangle_4192" data-name="Rectangle 4192" d="M1.986,0H65.6a1.986,1.986,0,0,1,1.986,1.986v0A1.986,1.986,0,0,1,65.6,3.973H1.986A1.986,1.986,0,0,1,0,1.986v0A1.986,1.986,0,0,1,1.986,0Z" transform="translate(15.957 55.783)" fill="#e4ecf9"/>
          <path id="Path_14562" data-name="Path 14562" d="M1641.373,1864.513v0a2.481,2.481,0,0,1-.52.428l-45.872,28.3h-.208a3.689,3.689,0,0,1-1.094-.162l-.144-.046a3.741,3.741,0,0,1-1.555-1.03c-.04-.043-.079-.089-.119-.138a3.481,3.481,0,0,1-.315-.443c-.034-.052-.061-.1-.092-.156s-.058-.11-.083-.165a3.755,3.755,0,0,1-.373-1.635v-52.75a3.761,3.761,0,0,1,1.375-2.912.2.2,0,0,1,.025-.018l.2-.15a3.744,3.744,0,0,1,2.179-.694h.862l4.028,2.484,37.129,22.91,1.4.862,2.665,1.644a2.461,2.461,0,0,1,.52.428v0A2.414,2.414,0,0,1,1641.373,1864.513Z" transform="translate(-1591 -1797.593)" fill="#3b82f4"/>
          <path id="Path_14563" data-name="Path 14563" d="M2651.953,1836.723v52.75c0,.064,0,.128-.006.2a.889.889,0,0,1-.006.092c0,.027,0,.058-.006.089,0,.012,0,.024,0,.037s-.006.04-.009.058c0,.046-.012.092-.019.138s-.015.089-.024.131c0,.006,0,.015,0,.021a.321.321,0,0,1-.013.043.135.135,0,0,1-.009.049.447.447,0,0,1-.016.064c-.009.04-.018.076-.03.116a.058.058,0,0,1-.006.021,2.06,2.06,0,0,1-.064.2.011.011,0,0,1,0,.009c-.012.034-.021.064-.037.1s-.021.055-.033.085a.179.179,0,0,0-.009.025c-.037.082-.073.168-.116.247-.012.024-.028.055-.043.083s-.031.052-.046.079-.028.052-.046.076c-.03.052-.064.1-.1.153-.021.034-.043.061-.061.092-.052.07-.1.134-.156.2-.04.049-.08.095-.119.138s-.082.089-.125.131c-.018.021-.04.04-.061.061a.479.479,0,0,1-.058.052c-.021.021-.046.043-.07.064l-.021.018c-.058.052-.119.1-.18.147a.068.068,0,0,0-.019.015c-.049.034-.1.07-.149.1-.019.012-.034.025-.049.034s-.055.037-.082.052a.446.446,0,0,1-.067.04c-.025.016-.049.031-.073.043a3.416,3.416,0,0,1-.538.247c-.012,0-.024.009-.033.012l-.04.012c-.043.015-.086.031-.131.043-.077.024-.153.043-.229.061l-.119.028a.671.671,0,0,1-.076.012l-.095.018h-.01c-.027,0-.055.009-.079.012l-.037,0-.067.009c-.012,0-.024,0-.04,0l-.141.009c-.067,0-.134.006-.2.006h-.208l-45.872-28.3a2.382,2.382,0,0,1-.516-.428v0a2.408,2.408,0,0,1,0-3.233v0a2.365,2.365,0,0,1,.516-.428l2.662-1.644,1.4-.862,37.132-22.91,4.027-2.484h.862a2.5,2.5,0,0,1,.269.012.13.13,0,0,1,.049,0c.085.006.174.015.257.027l.058.009c.073.012.147.027.217.046a.394.394,0,0,1,.055.012c.088.021.174.046.26.073s.162.055.238.085a3.1,3.1,0,0,1,.321.15,1.859,1.859,0,0,1,.171.092,2.42,2.42,0,0,1,.281.183s0,0,0,0l.2.15a.187.187,0,0,1,.024.018c.052.04.1.083.144.125s.07.064.1.1a3.259,3.259,0,0,1,.293.324q.064.078.119.156a3.57,3.57,0,0,1,.4.7c.031.067.058.138.085.208,0,0,0,.006,0,.009a3.593,3.593,0,0,1,.107.345c.015.058.028.113.04.171s.018.089.025.134.015.092.021.138a1.518,1.518,0,0,1,.018.165,1.039,1.039,0,0,1,.009.14C2651.95,1836.592,2651.953,1836.659,2651.953,1836.723Z" transform="translate(-2551.21 -1797.593)" fill="#3b82f4"/>
          <path id="Path_14564" data-name="Path 14564" d="M1691.743,2343.072v.548a3.86,3.86,0,0,1-3.774,3.939h-93.195a3.86,3.86,0,0,1-3.774-3.939v-.548l47.934-31.538a4.405,4.405,0,0,1,4.871,0Z" transform="translate(-1591 -2251.905)" fill="#474747" opacity="0.29"/>
          <path id="Path_14565" data-name="Path 14565" d="M1691.743,2373.05v.526a3.774,3.774,0,0,1-3.774,3.774h-93.195a3.774,3.774,0,0,1-3.774-3.774v-.526l47.934-30.214a4.567,4.567,0,0,1,4.871,0Z" transform="translate(-1591 -2281.695)" fill="#5b97ef"/>
          <rect id="Rectangle_4193" data-name="Rectangle 4193" width="31.323" height="3.973" rx="1.986" transform="translate(15.957 13.349)" fill="#3b82f4"/>
        </g>
        <path id="Path_14566" data-name="Path 14566" d="M880.033,1462.2h-.025c-1.117-.044-2.242-.141-3.343-.287a.618.618,0,1,1,.162-1.226c1.063.141,2.15.234,3.229.277a.619.619,0,0,1-.024,1.237Zm3.3-.016a.619.619,0,0,1-.029-1.237c1.066-.052,2.154-.151,3.232-.3a.618.618,0,1,1,.164,1.226c-1.113.149-2.235.251-3.336.3Zm-9.828-.854a.633.633,0,0,1-.139-.016c-1.084-.249-2.172-.554-3.232-.906a.618.618,0,1,1,.389-1.174c1.023.339,2.073.633,3.12.874a.619.619,0,0,1-.138,1.221Zm16.362-.012a.619.619,0,0,1-.13-1.223c1.049-.225,2.11-.5,3.152-.8a.619.619,0,0,1,.349,1.187c-1.072.316-2.163.594-3.242.825A.607.607,0,0,1,889.863,1461.317Zm6.328-1.857a.619.619,0,0,1-.216-1.2c1.01-.377,2.024-.794,3.012-1.242a.618.618,0,1,1,.51,1.127c-1.013.459-2.053.888-3.09,1.275A.618.618,0,0,1,896.191,1459.46Zm-28.95-.2a.622.622,0,0,1-.243-.05c-1-.429-2.019-.91-3.024-1.43a.618.618,0,1,1,.568-1.1c.979.506,1.97.974,2.944,1.391a.619.619,0,0,1-.244,1.187Zm34.958-2.528a.619.619,0,0,1-.295-1.163c.87-.47,1.7-.956,2.46-1.443a.619.619,0,0,1,.666,1.042c-.788.5-1.641,1-2.537,1.489A.614.614,0,0,1,902.2,1456.736Zm-40.821-.5a.616.616,0,0,1-.32-.09c-.958-.581-1.9-1.2-2.8-1.831a.619.619,0,0,1,.713-1.011c.875.617,1.792,1.217,2.725,1.784a.619.619,0,0,1-.321,1.148Zm-5.388-3.809a.616.616,0,0,1-.393-.141c-.839-.691-1.642-1.408-2.39-2.133a.627.627,0,0,1,.647-1.075,27.951,27.951,0,0,0,3.026.506.619.619,0,0,1-.136,1.23q-.573-.063-1.15-.151.389.338.791.669a.619.619,0,0,1-.394,1.1Zm4.113-1.442a.619.619,0,0,1-.005-1.237c.861-.007,1.731-.057,2.586-.148.175-.019.382-.041.638-.071a.618.618,0,1,1,.147,1.228c-.262.031-.474.054-.628.071q-1.38.147-2.732.158Zm6.554-.764a.619.619,0,0,1-.127-1.224c1.077-.227,2.135-.5,3.143-.811a.619.619,0,0,1,.365,1.182c-1.044.322-2.139.6-3.253.839A.615.615,0,0,1,866.658,1450.223Zm-16.261-.875a.618.618,0,0,1-.205-.035,30.954,30.954,0,0,1-3.108-1.288.619.619,0,0,1,.535-1.116,29.7,29.7,0,0,0,2.983,1.237.618.618,0,0,1-.2,1.2Zm22.56-1.083a.619.619,0,0,1-.245-1.187,24.807,24.807,0,0,0,2.871-1.454.618.618,0,1,1,.632,1.063,25.968,25.968,0,0,1-3.015,1.527A.617.617,0,0,1,872.957,1448.265Zm-21.668-.45a.617.617,0,0,1-.474-.221,28.513,28.513,0,0,1-2.016-2.7.618.618,0,1,1,1.035-.678,27.408,27.408,0,0,0,1.928,2.583.619.619,0,0,1-.473,1.016Zm-6.83-1.312a.617.617,0,0,1-.325-.093,31.828,31.828,0,0,1-2.762-1.919.618.618,0,1,1,.758-.977,30.693,30.693,0,0,0,2.654,1.843.619.619,0,0,1-.326,1.145Zm34.134-1.628a.619.619,0,0,1-.4-1.092,16.258,16.258,0,0,0,2.224-2.26.619.619,0,1,1,.964.775,17.535,17.535,0,0,1-2.393,2.432A.616.616,0,0,1,878.593,1444.875Zm-39.336-2.41a.616.616,0,0,1-.429-.173,31.1,31.1,0,0,1-2.295-2.459.618.618,0,0,1,.949-.793,30.046,30.046,0,0,0,2.2,2.362.619.619,0,0,1-.429,1.064Zm8.45-.169a.618.618,0,0,1-.561-.358,19.722,19.722,0,0,1-1.17-3.192.619.619,0,0,1,1.195-.321,18.465,18.465,0,0,0,1.1,2.991.618.618,0,0,1-.561.879Zm34.964-2.538a.619.619,0,0,1-.554-.893,14.648,14.648,0,0,0,1.037-2.791l.045-.175a.618.618,0,0,1,1.2.3l-.048.186a15.866,15.866,0,0,1-1.125,3.027A.619.619,0,0,1,882.672,1439.758Zm-47.635-2.346a.618.618,0,0,1-.516-.277,29.581,29.581,0,0,1-1.7-2.908.618.618,0,0,1,1.1-.561,28.367,28.367,0,0,0,1.626,2.786.619.619,0,0,1-.515.96Zm11-1.452a.618.618,0,0,1-.616-.578c-.023-.352-.034-.71-.034-1.064a16.634,16.634,0,0,1,.168-2.353.619.619,0,1,1,1.224.176,15.383,15.383,0,0,0-.156,2.177c0,.327.011.658.032.984a.619.619,0,0,1-.577.657Zm38.233-2.552h-.027a.618.618,0,0,1-.591-.645q.016-.358.015-.717a17.471,17.471,0,0,0-.176-2.458.618.618,0,0,1,1.225-.174,18.717,18.717,0,0,1,.188,2.632q0,.385-.016.771A.619.619,0,0,1,884.266,1433.409Zm-52.217-1.861a.618.618,0,0,1-.579-.4,30.515,30.515,0,0,1-1-3.214.618.618,0,1,1,1.2-.3,29.312,29.312,0,0,0,.958,3.083.619.619,0,0,1-.579.835Zm14.892-2.076a.619.619,0,0,1-.586-.818,22.441,22.441,0,0,1,1.337-3.115.619.619,0,0,1,1.1.571,21.186,21.186,0,0,0-1.264,2.942A.619.619,0,0,1,846.941,1429.471Zm36.414-2.561a.618.618,0,0,1-.589-.429,19.918,19.918,0,0,0-1.223-2.952.619.619,0,0,1,1.1-.563,21.2,21.2,0,0,1,1.3,3.136.619.619,0,0,1-.589.808Zm-52.918-1.747a.619.619,0,0,1-.612-.532,33.562,33.562,0,0,1-.3-3.347.619.619,0,0,1,1.236-.049,32.241,32.241,0,0,0,.29,3.222.619.619,0,0,1-.526.7A.645.645,0,0,1,830.437,1425.163Zm19.521-1.536a.619.619,0,0,1-.505-.975,26.711,26.711,0,0,1,2.115-2.631.618.618,0,1,1,.913.834,25.532,25.532,0,0,0-2.017,2.509A.617.617,0,0,1,849.958,1423.627Zm30.408-2.568a.619.619,0,0,1-.5-.253,19.5,19.5,0,0,0-2.09-2.416.619.619,0,0,1,.865-.884,20.772,20.772,0,0,1,2.223,2.569.618.618,0,0,1-.5.984Zm-25.967-2.292a.618.618,0,0,1-.4-1.09,24.9,24.9,0,0,1,2.72-2.008.619.619,0,0,1,.664,1.044,23.67,23.67,0,0,0-2.584,1.908A.616.616,0,0,1,854.4,1418.767Zm-24.228-.186h-.036a.619.619,0,0,1-.582-.653,33.447,33.447,0,0,1,.359-3.341.618.618,0,0,1,1.221.2,32.162,32.162,0,0,0-.345,3.217A.619.619,0,0,1,830.171,1418.581Zm45.488-2.1a.617.617,0,0,1-.347-.107,16.082,16.082,0,0,0-2.785-1.517.618.618,0,1,1,.479-1.14,17.312,17.312,0,0,1,3,1.633.619.619,0,0,1-.348,1.13Zm-15.7-1.226a.619.619,0,0,1-.249-1.185,19.487,19.487,0,0,1,3.219-1.1.619.619,0,0,1,.292,1.2,18.228,18.228,0,0,0-3.014,1.027A.615.615,0,0,1,859.954,1415.253Zm9.66-1.291a.626.626,0,0,1-.112-.01,14.409,14.409,0,0,0-2.58-.232c-.175,0-.38,0-.569.011a.619.619,0,1,1-.048-1.236c.205-.008.425,0,.617-.012a15.644,15.644,0,0,1,2.8.253.619.619,0,0,1-.11,1.227Zm-38.38-1.881a.619.619,0,0,1-.6-.786,31.313,31.313,0,0,1,1.084-3.182.619.619,0,1,1,1.148.462,30.009,30.009,0,0,0-1.041,3.056A.619.619,0,0,1,831.234,1412.081Zm2.451-6.107a.619.619,0,0,1-.546-.908,32.731,32.731,0,0,1,1.727-2.884.619.619,0,0,1,1.027.689,31.516,31.516,0,0,0-1.661,2.774A.618.618,0,0,1,833.685,1405.974Zm3.666-5.473a.618.618,0,0,1-.476-1.012c.707-.856,1.469-1.691,2.262-2.482a.618.618,0,1,1,.873.876c-.765.763-1.5,1.568-2.182,2.394A.617.617,0,0,1,837.351,1400.5Zm4.666-4.654a.618.618,0,0,1-.394-1.1c.855-.706,1.758-1.385,2.682-2.016a.618.618,0,1,1,.7,1.021c-.894.611-1.766,1.266-2.593,1.949A.615.615,0,0,1,842.017,1395.847Zm5.442-3.721a.619.619,0,0,1-.3-1.158c.968-.542,1.975-1.051,2.994-1.511a.618.618,0,1,1,.509,1.127c-.987.446-1.962.938-2.9,1.463A.615.615,0,0,1,847.459,1392.126Zm6.008-2.717a.619.619,0,0,1-.206-1.2c1.046-.369,2.123-.7,3.2-.983a.619.619,0,1,1,.313,1.2c-1.046.274-2.09.594-3.1.953A.624.624,0,0,1,853.467,1389.409Z" transform="translate(-828.672 -1352.427)" fill="#f4b545"/>
        <g id="Group_12647" data-name="Group 12647" transform="translate(8.975 18.946)">
          <path id="Path_14567" data-name="Path 14567" d="M1041.118,1085.262l-46.666,6.227,11.314,8.581.177,15.794,9.75-8.281,5.479,4.131Z" transform="translate(-994.451 -1084.304)" fill="#232323" opacity="0.1"/>
          <g id="Group_12646" data-name="Group 12646" transform="translate(1.018)">
            <g id="Group_12645" data-name="Group 12645">
              <path id="Path_14568" data-name="Path 14568" d="M1243.407,1096.419l-.259-23.071,35.434-7.531Z" transform="translate(-1231.916 -1065.817)" fill="#46c1aa"/>
              <path id="Path_14569" data-name="Path 14569" d="M1026.514,1080.682c.179-.09,35.276-14.866,35.276-14.866l-46.667,6.227Z" transform="translate(-1015.123 -1065.816)" fill="#52d1bd"/>
              <path id="Path_14570" data-name="Path 14570" d="M1252.17,1409.362l-3.768,12.792,16.16-13.726Z" transform="translate(-1236.911 -1391.551)" fill="#3caf99"/>
              <path id="Path_14571" data-name="Path 14571" d="M1324.89,1083.628l11.46,8.641,19.948-26.452Z" transform="translate(-1309.631 -1065.817)" fill="#52d1bd"/>
            </g>
          </g>
        </g>
        <path id="Path_14572" data-name="Path 14572" d="M2968.2,1928.931a1.085,1.085,0,0,0-1.148-1.011l-41.7,2.651a1.085,1.085,0,0,0-1.011,1.148l1.077,16.939a1.085,1.085,0,0,0,1.148,1.011l41.7-2.651a1.085,1.085,0,0,0,1.011-1.148Z" transform="translate(-2820.295 -1866.505)" fill="#232323" opacity="0.1"/>
        <g id="Group_12652" data-name="Group 12652" transform="translate(104.129 59.855)">
          <path id="Path_14573" data-name="Path 14573" d="M2989.671,1915.4l-41.7,2.651a1.085,1.085,0,0,1-1.148-1.011l-1.077-16.939a1.085,1.085,0,0,1,1.011-1.148l41.7-2.651a1.086,1.086,0,0,1,1.148,1.011l1.077,16.939A1.086,1.086,0,0,1,2989.671,1915.4Z" transform="translate(-2944.779 -1896.302)" fill="#fff"/>
          <path id="Path_14574" data-name="Path 14574" d="M3379.109,1965.925l-18.2,1.157a.858.858,0,0,1-.908-.8l0-.043a.858.858,0,0,1,.8-.908l18.2-1.157a.858.858,0,0,1,.908.8l0,.043A.858.858,0,0,1,3379.109,1965.925Z" transform="translate(-3338.629 -1960.83)" fill="#3b82f4"/>
          <path id="Path_14575" data-name="Path 14575" d="M3384.036,2043.431l-18.2,1.157a.858.858,0,0,1-.908-.8l0-.043a.858.858,0,0,1,.8-.908l18.2-1.157a.858.858,0,0,1,.908.8l0,.043A.858.858,0,0,1,3384.036,2043.431Z" transform="translate(-3343.313 -2034.518)" fill="#ecf3fe"/>
          <path id="Path_14576" data-name="Path 14576" d="M3388.962,2120.937l-18.2,1.157a.858.858,0,0,1-.908-.8l0-.043a.858.858,0,0,1,.8-.908l18.2-1.156a.858.858,0,0,1,.908.8l0,.043A.858.858,0,0,1,3388.962,2120.937Z" transform="translate(-3347.997 -2108.206)" fill="#ecf3fe"/>
          <path id="Path_14577" data-name="Path 14577" d="M3393.889,2198.442l-18.2,1.156a.858.858,0,0,1-.908-.8l0-.043a.858.858,0,0,1,.8-.908l18.2-1.157a.858.858,0,0,1,.908.8l0,.043A.858.858,0,0,1,3393.889,2198.442Z" transform="translate(-3352.681 -2181.893)" fill="#ecf3fe"/>
          <g id="Group_12651" data-name="Group 12651" transform="translate(0 0.286)">
            <circle id="Ellipse_205" data-name="Ellipse 205" cx="8.032" cy="8.032" r="8.032" transform="translate(0 11.359) rotate(-45)" fill="#ecf3fe"/>
            <g id="Group_12650" data-name="Group 12650" transform="translate(6.955 4.95)">
              <path id="Path_14578" data-name="Path 14578" d="M3092.159,2199.6a6.32,6.32,0,0,1-1.374.921,6.089,6.089,0,0,1-.788.328,6.2,6.2,0,0,1-.889.231,6.422,6.422,0,0,1-.761.094,6.49,6.49,0,0,1-.767,0,6.359,6.359,0,0,1-3.214-1.082,3.706,3.706,0,0,1,2.117-1.936h0a3.49,3.49,0,0,1,.5-.137l.021,0a3.563,3.563,0,0,1,.464-.06l1.333-.085a3.518,3.518,0,0,1,.468,0h.021a3.529,3.529,0,0,1,.516.073h0A3.7,3.7,0,0,1,3092.159,2199.6Z" transform="translate(-3083.529 -2188.247)" fill="#727272"/>
              <path id="Path_14579" data-name="Path 14579" d="M3084.656,2006.02l.273,4.3a1.717,1.717,0,0,1-1.6,1.823l-4.039.257a1.718,1.718,0,0,1-1.823-1.605l-.273-4.3a3.5,3.5,0,0,1,3.5-3.882,4.451,4.451,0,0,1,1.95.3,3.182,3.182,0,0,1,1.979,2.747C3084.635,2005.773,3084.647,2005.895,3084.656,2006.02Z" transform="translate(-3076.694 -2002.601)" fill="#302f2f"/>
              <path id="Path_14580" data-name="Path 14580" d="M3139.006,2167.112l.08,1.264a1.172,1.172,0,0,1-2.307.147l-.08-1.264a.875.875,0,0,1,.2-.6.967.967,0,0,1,.106-.115,1.147,1.147,0,0,1,.252-.179,1.339,1.339,0,0,1,1.08-.069,1.132,1.132,0,0,1,.273.146l.013.009a.936.936,0,0,1,.108.092A.874.874,0,0,1,3139.006,2167.112Z" transform="translate(-3133.282 -2158.149)" fill="#f4b698"/>
              <path id="Path_14581" data-name="Path 14581" d="M3097.057,2038.34l.117,1.84a3.025,3.025,0,0,1-1.8,2.951l.031.485a2.984,2.984,0,0,1-1.019.249l-.247.016a2.982,2.982,0,0,1-1.042-.117l-.031-.486a3.025,3.025,0,0,1-2.157-2.7l-.117-1.84a3.024,3.024,0,0,1,2.818-3.185l.247-.016a3,3,0,0,1,1.912.537h0A3.014,3.014,0,0,1,3097.057,2038.34Z" transform="translate(-3089.635 -2033.909)" opacity="0.28"/>
              <path id="Path_14582" data-name="Path 14582" d="M3096.447,2028.494l.147,2.312a3,3,0,0,1-.425,1.739l0,0a3.188,3.188,0,0,1-.236.336,3.028,3.028,0,0,1-1.135.874,2.987,2.987,0,0,1-1.019.248l-.247.016a2.973,2.973,0,0,1-1.041-.117,3.026,3.026,0,0,1-2.158-2.7l-.146-2.3c0-.032,0-.064,0-.1a3.009,3.009,0,0,1,.911-2.264,3.061,3.061,0,0,1,.3-.255,2.99,2.99,0,0,1,1.612-.6l.246-.016a2.993,2.993,0,0,1,1.855.5,3.032,3.032,0,0,1,.737.693,3,3,0,0,1,.606,1.624Z" transform="translate(-3089.056 -2024.535)" fill="#f4b698"/>
              <g id="Group_12648" data-name="Group 12648" transform="translate(7.393 3.97)">
                <path id="Path_14583" data-name="Path 14583" d="M3218.716,2084.317a1.208,1.208,0,0,1-1.128,1.281l-.153-2.41a1.2,1.2,0,0,1,.477.066h0A1.207,1.207,0,0,1,3218.716,2084.317Z" transform="translate(-3217.434 -2083.186)" fill="#f4b698"/>
                <path id="Path_14584" data-name="Path 14584" d="M3218.818,2093.22a.748.748,0,0,1-.7.793l-.095-1.492A.747.747,0,0,1,3218.818,2093.22Z" transform="translate(-3217.995 -2092.061)" fill="#e29586"/>
              </g>
              <path id="Path_14585" data-name="Path 14585" d="M3130.676,2199.54h0l-.7,3.133a6.311,6.311,0,0,1-.761.094,6.391,6.391,0,0,1-.767,0l-1.1-3.018h0l.637-.04.024.021,1.071.975.94-1.1.021-.024Z" transform="translate(-3124.391 -2189.839)" fill="#565656"/>
              <g id="Group_12649" data-name="Group 12649" transform="translate(0 4.37)">
                <path id="Path_14586" data-name="Path 14586" d="M3068.488,2091.317l.153,2.41a1.208,1.208,0,0,1-.422-2.362l.056-.015.03-.006A1.237,1.237,0,0,1,3068.488,2091.317Z" transform="translate(-3067.358 -2091.317)" fill="#f4b698"/>
                <path id="Path_14587" data-name="Path 14587" d="M3076.688,2101.425a.747.747,0,0,0,.793.7l-.095-1.492A.748.748,0,0,0,3076.688,2101.425Z" transform="translate(-3076.227 -2100.172)" fill="#e29586"/>
              </g>
              <path id="Path_14588" data-name="Path 14588" d="M3199.124,2251.807a6.086,6.086,0,0,1-.788.328l-.017-.276Z" transform="translate(-3191.868 -2239.531)" fill="#565656"/>
              <path id="Path_14589" data-name="Path 14589" d="M3162.5,2200.7l.936.578.662-1.746Z" transform="translate(-3157.816 -2189.833)" fill="#363636" opacity="0.2"/>
              <path id="Path_14590" data-name="Path 14590" d="M3164.1,2197.484l-.681,1.688-.916-.519.961-1.128.125-.147Z" transform="translate(-3157.816 -2187.784)" fill="#eee"/>
              <path id="Path_14591" data-name="Path 14591" d="M3127.351,2203.829l.869,1.649.862-.692Z" transform="translate(-3124.396 -2193.917)" fill="#363636" opacity="0.2"/>
              <path id="Path_14592" data-name="Path 14592" d="M3129.083,2201.5l-.842.631-.89-1.588.494-.17.143.13Z" transform="translate(-3124.396 -2190.635)" fill="#eee"/>
              <path id="Path_14593" data-name="Path 14593" d="M3189.188,2017.367c-2.235.3-2.15-1.74-1.979-2.747A3.182,3.182,0,0,1,3189.188,2017.367Z" transform="translate(-3181.232 -2014.027)" fill="#302f2f"/>
              <path id="Path_14594" data-name="Path 14594" d="M3084.6,2018.422a2.869,2.869,0,0,1-2.147,1.659c-1.393.088-3.551,1.065-3.531,2.457s-2.013-4.124,2.188-4.831S3084.6,2018.422,3084.6,2018.422Z" transform="translate(-3077.898 -2016.775)" fill="#302f2f"/>
            </g>
          </g>
        </g>
        <path id="Path_14595" data-name="Path 14595" d="M2988.519,1548.163l-4-16.495a1.085,1.085,0,0,0-1.306-.8l-40.607,9.853a1.085,1.085,0,0,0-.8,1.307l4,16.495a1.085,1.085,0,0,0,1.306.8l40.607-9.853A1.085,1.085,0,0,0,2988.519,1548.163Z" transform="translate(-2836.879 -1488.989)" fill="#232323" opacity="0.1"/>
        <g id="Group_12657" data-name="Group 12657" transform="translate(105.586 40.135)">
          <rect id="Rectangle_4194" data-name="Rectangle 4194" width="43.949" height="19.137" rx="9.569" transform="translate(0 10.363) rotate(-13.639)" fill="#f4b545"/>
          <g id="Group_12656" data-name="Group 12656" transform="translate(0.527 6.097)">
            <circle id="Ellipse_206" data-name="Ellipse 206" cx="7.958" cy="7.958" r="7.958" transform="translate(0 11.254) rotate(-45)" fill="#ffdca4"/>
            <g id="Group_12655" data-name="Group 12655" transform="translate(6.934 4.275)">
              <path id="Path_14596" data-name="Path 14596" d="M3150.127,1923.055a1.171,1.171,0,0,1-.13.026h0a6.781,6.781,0,0,1-3.869-.319,3.747,3.747,0,0,1,1.793-2.412h0a3.336,3.336,0,0,1,.474-.224,3.616,3.616,0,0,1,.469-.149l1.31-.318a3.6,3.6,0,0,1,.483-.082h0a3.32,3.32,0,0,1,.523-.018,3.72,3.72,0,0,1,2.034.7,3.808,3.808,0,0,1,.613.556,6.82,6.82,0,0,1-3.189,2.1c-.058.019-.116.035-.177.051a.106.106,0,0,1-.028.009h0a.1.1,0,0,1-.038.009.078.078,0,0,1-.033.008,1.386,1.386,0,0,1-.138.038l-.033.008-.04.01-.012,0Z" transform="translate(-3144.209 -1909.063)" fill="#f4b545"/>
              <path id="Path_14597" data-name="Path 14597" d="M3111.249,1713s-1.486-4.331.916-5.006,3.242-1.529,3.871-1.465,2.051,3.982,2.087,4.8S3111.249,1713,3111.249,1713Z" transform="translate(-3110.619 -1706.524)" fill="#e09f36"/>
              <path id="Path_14598" data-name="Path 14598" d="M3190.783,1892.846l.3,1.24a1.181,1.181,0,0,1-2.263.549l-.3-1.24a.881.881,0,0,1,.093-.635.993.993,0,0,1,.085-.133,1.181,1.181,0,0,1,.219-.222,1.349,1.349,0,0,1,1.059-.257,1.174,1.174,0,0,1,.3.1l.014.007a1.01,1.01,0,0,1,.123.072A.882.882,0,0,1,3190.783,1892.846Z" transform="translate(-3184.493 -1882.984)" fill="#f4cb95"/>
              <path id="Path_14599" data-name="Path 14599" d="M3132.859,1764.932l.438,1.805a3.047,3.047,0,0,1-1.268,3.241l.115.476a3,3,0,0,1-.967.424l-.242.059a3,3,0,0,1-1.054.066l-.115-.476a3.048,3.048,0,0,1-2.613-2.3l-.438-1.805a3.046,3.046,0,0,1,2.238-3.652l.241-.059a3.022,3.022,0,0,1,1.991.2h0A3.036,3.036,0,0,1,3132.859,1764.932Z" transform="translate(-3125.678 -1759.863)" fill="#d8a471"/>
              <path id="Path_14600" data-name="Path 14600" d="M3130.515,1755.3l.55,2.268a3,3,0,0,1-.066,1.657c-.027.082-.059.162-.092.239a2.659,2.659,0,0,1-.135.278,3.021,3.021,0,0,1-1.941,1.491l-.24.058a3.043,3.043,0,0,1-3.666-2.234l-.571-2.353a3.036,3.036,0,0,1,.509-2.4,2.777,2.777,0,0,1,.25-.3,3.007,3.007,0,0,1,1.5-.874l.24-.058a2.945,2.945,0,0,1,1.364-.01,2.433,2.433,0,0,1,.259.067,2.855,2.855,0,0,1,.3.114A3.033,3.033,0,0,1,3130.515,1755.3Z" transform="translate(-3123.447 -1750.693)" fill="#f4cb95"/>
              <g id="Group_12653" data-name="Group 12653" transform="translate(7.072 4.585)">
                <path id="Path_14601" data-name="Path 14601" d="M3252.253,1800.533a1.217,1.217,0,0,1-.895,1.469l-.574-2.364a1.213,1.213,0,0,1,.485-.018h0A1.216,1.216,0,0,1,3252.253,1800.533Z" transform="translate(-3250.784 -1799.604)" fill="#edc28e"/>
                <path id="Path_14602" data-name="Path 14602" d="M3253.909,1809.583a.753.753,0,0,1-.554.909l-.355-1.464A.753.753,0,0,1,3253.909,1809.583Z" transform="translate(-3252.89 -1808.544)" fill="#d8a471"/>
              </g>
              <g id="Group_12654" data-name="Group 12654" transform="translate(0 6.11)">
                <path id="Path_14603" data-name="Path 14603" d="M3108.151,1830.562l.573,2.364a1.216,1.216,0,0,1-.832-2.269l.053-.024.029-.011A1.154,1.154,0,0,1,3108.151,1830.562Z" transform="translate(-3107.222 -1830.562)" fill="#edc28e"/>
                <path id="Path_14604" data-name="Path 14604" d="M3116.643,1840.607a.753.753,0,0,0,.909.554l-.355-1.464A.753.753,0,0,0,3116.643,1840.607Z" transform="translate(-3116.159 -1839.247)" fill="#d8a471"/>
              </g>
              <path id="Path_14605" data-name="Path 14605" d="M3181.129,1758.047l.55,2.268a3,3,0,0,1-.066,1.657c-.026.082-.06.162-.092.239-.451-4.419-1.319-4.864-2.333-4.61-1.09.27-1.665-1.012-1.665-1.012l1.563-.72a2.87,2.87,0,0,1,.3.114A3.033,3.033,0,0,1,3181.129,1758.047Z" transform="translate(-3174.061 -1753.438)" fill="#e5b67f"/>
              <path id="Path_14606" data-name="Path 14606" d="M3233.416,1922.9l.406.422-.77,1.5c-.058.019-.116.035-.177.05a.1.1,0,0,1-.028.009h0a.1.1,0,0,1-.037.009l.362-2.3v-.005l.06-.378,0,0,.005-.039-.148-.611.885.91-.53.412Z" transform="translate(-3226.621 -1910.964)" fill="#cc8e2b"/>
              <path id="Path_14607" data-name="Path 14607" d="M3194.783,1932.838l.033-.008c.047-.012.094-.023.137-.039a.082.082,0,0,0,.033-.008.11.11,0,0,0,.038-.009h0l.089-.271.469-1.456-.092-.378.209-.329-.261-.48a1.105,1.105,0,0,1-.042.125l0,.006v0a2.512,2.512,0,0,1-.646,1,1.481,1.481,0,0,1-.264.184,1.571,1.571,0,0,1-.435-.079,2.443,2.443,0,0,1-.914-.565l0,0a1.247,1.247,0,0,1-.094-.092l-.012.546.336.2.092.379.932.929.352.353,0,0Z" transform="translate(-3188.801 -1918.859)" fill="#fff"/>
              <path id="Path_14608" data-name="Path 14608" d="M3232.81,1921.381l.377.444-.947,1.547a.11.11,0,0,1-.028.009h0a.105.105,0,0,1-.038.009.081.081,0,0,1-.033.008l.349-2.2v0l.093-.59v0l0-.006-.148-.611.9.988-.578.357Z" transform="translate(-3225.986 -1909.465)" fill="#e09f36"/>
              <path id="Path_14609" data-name="Path 14609" d="M3187.133,1935.561a1.242,1.242,0,0,1-.131.027h0l-1.424-.972.168-.561-.036-.006-.66-.124.37-1.215.13.534.019.078,0,0,.011.017,0,0,.235.319v0l1.377,1.879-.04.01-.012,0Z" transform="translate(-3181.215 -1921.568)" fill="#cc8e2b"/>
              <path id="Path_14610" data-name="Path 14610" d="M3187.133,1934.063l-1.556-.945.131-.567.017-.071-.677-.052.351-1.293.019.078.13.534,0,0,.357.486v0l1.322,1.8-.033.008-.04.01-.012,0Z" transform="translate(-3181.215 -1920.071)" fill="#e09f36"/>
              <path id="Path_14611" data-name="Path 14611" d="M3123.279,1745.309a15.985,15.985,0,0,0-1.869-.018,5.238,5.238,0,0,0-1.179.467,5.732,5.732,0,0,0-1.237,1.1l-.086.344a1.056,1.056,0,0,0-.13.273c0,.029,0,.127.007.215l-.071.283c.017-.011.058-.036.106-.069l.134.223a2.633,2.633,0,0,1,.633-.9,2.42,2.42,0,0,1,2.166-.355c1.315.548,3.28-.435,3.28-.435Z" transform="translate(-3118.147 -1743.356)" fill="#e09f36"/>
            </g>
          </g>
          <path id="Path_14612" data-name="Path 14612" d="M3392.025,1577.476l-17.72,4.3a.858.858,0,0,1-1.033-.63l-.01-.042a.858.858,0,0,1,.63-1.033l17.72-4.3a.858.858,0,0,1,1.033.63l.01.042A.859.859,0,0,1,3392.025,1577.476Z" transform="translate(-3352.672 -1571.818)" fill="#e29d2d"/>
          <path id="Rectangle_4195" data-name="Rectangle 4195" d="M.877,0H19.068a.877.877,0,0,1,.877.877v0a.877.877,0,0,1-.877.877H.877A.877.877,0,0,1,0,.877v0A.877.877,0,0,1,.877,0Z" transform="translate(21.289 12.173) rotate(-13.639)" fill="#ffdca4"/>
          <path id="Rectangle_4196" data-name="Rectangle 4196" d="M.877,0H19.068a.877.877,0,0,1,.877.877v0a.877.877,0,0,1-.877.877H.877A.877.877,0,0,1,0,.877v0A.877.877,0,0,1,.877,0Z" transform="translate(22.191 15.891) rotate(-13.639)" fill="#ffdca4"/>
          <path id="Rectangle_4197" data-name="Rectangle 4197" d="M.877,0H19.068a.877.877,0,0,1,.877.877v0a.877.877,0,0,1-.877.877H.877A.877.877,0,0,1,0,.877v0A.877.877,0,0,1,.877,0Z" transform="translate(23.093 19.608) rotate(-13.639)" fill="#ffdca4"/>
        </g>
        <path id="Path_14613" data-name="Path 14613" d="M2813.033,2219.472q-.441,0-.881-.018a.618.618,0,1,1,.05-1.236,20.668,20.668,0,0,0,3.2-.119.619.619,0,0,1,.141,1.229A22.14,22.14,0,0,1,2813.033,2219.472Zm-4.125-.426a.624.624,0,0,1-.128-.013,20.307,20.307,0,0,1-3.252-.979.619.619,0,0,1,.455-1.151,18.979,18.979,0,0,0,3.052.919.619.619,0,0,1-.127,1.224Zm9.8-.325a.619.619,0,0,1-.157-1.217,24.736,24.736,0,0,0,3.051-1.019.619.619,0,0,1,.466,1.146,26.153,26.153,0,0,1-3.2,1.07A.638.638,0,0,1,2818.707,2218.721Zm-15.908-2.079a.616.616,0,0,1-.315-.087,23.749,23.749,0,0,1-2.775-1.939.619.619,0,0,1,.779-.962,22.452,22.452,0,0,0,2.628,1.838.619.619,0,0,1-.317,1.15Zm22.01-.39a.619.619,0,0,1-.3-1.159,28.383,28.383,0,0,0,2.728-1.724.619.619,0,1,1,.719,1.006,29.669,29.669,0,0,1-2.847,1.8A.611.611,0,0,1,2824.809,2216.252Zm-27.134-3.734a.617.617,0,0,1-.447-.19,30.981,30.981,0,0,1-2.193-2.556.619.619,0,0,1,.981-.754,29.592,29.592,0,0,0,2.1,2.454.619.619,0,0,1-.446,1.047Zm32.491-.092a.619.619,0,0,1-.415-1.078,27.779,27.779,0,0,0,2.267-2.294.618.618,0,1,1,.93.816,28.962,28.962,0,0,1-2.369,2.4A.617.617,0,0,1,2830.166,2212.426Zm2.125-3.675a.618.618,0,0,1-.06-1.234,15.139,15.139,0,0,0,1.781-.284.619.619,0,0,1-.026-.728,22.03,22.03,0,0,0,1.6-2.779.618.618,0,0,1,1.116.534,23,23,0,0,1-1.507,2.665l.14-.043a.619.619,0,0,1,.369,1.181,16.736,16.736,0,0,1-3.351.685ZM2829,2208.7a.589.589,0,0,1-.08-.005,17.6,17.6,0,0,1-3.327-.777.619.619,0,1,1,.393-1.173,16.372,16.372,0,0,0,3.092.724.618.618,0,0,1-.078,1.232Zm-35.355-1.4a.619.619,0,0,1-.526-.291c-.6-.961-1.152-1.949-1.642-2.935a.619.619,0,1,1,1.108-.551c.473.95,1.006,1.9,1.584,2.83a.619.619,0,0,1-.524.946Zm44.909-.483a.619.619,0,0,1-.291-1.165,19.036,19.036,0,0,0,2.679-1.732.619.619,0,1,1,.755.98,20.313,20.313,0,0,1-2.854,1.845A.614.614,0,0,1,2838.556,2206.816Zm-15.788-.177a.613.613,0,0,1-.294-.074,17.983,17.983,0,0,1-2.837-1.9.618.618,0,1,1,.785-.956,16.766,16.766,0,0,0,2.641,1.766.618.618,0,0,1-.3,1.162Zm21-3.822a.618.618,0,0,1-.448-1.044,22.226,22.226,0,0,0,2.031-2.48.618.618,0,0,1,1.011.713,23.367,23.367,0,0,1-2.145,2.619A.616.616,0,0,1,2843.766,2202.818Zm-26.029-.372a.618.618,0,0,1-.493-.244,12.077,12.077,0,0,1-1.688-3.024.619.619,0,1,1,1.157-.437,10.82,10.82,0,0,0,1.517,2.713.618.618,0,0,1-.492.993Zm19.566-.916a.618.618,0,0,1-.6-.782,14.284,14.284,0,0,0,.507-3.113.618.618,0,1,1,1.236.058,15.567,15.567,0,0,1-.55,3.383A.619.619,0,0,1,2837.3,2201.53Zm10.26-4.079a.619.619,0,0,1-.549-.9,24.7,24.7,0,0,0,1.284-2.948.619.619,0,0,1,1.164.419,25.9,25.9,0,0,1-1.349,3.1A.619.619,0,0,1,2847.564,2197.451Zm-32.1-1.086a.618.618,0,0,1-.617-.589q-.014-.286-.014-.572a12.606,12.606,0,0,1,.339-2.871.618.618,0,0,1,1.2.281,11.4,11.4,0,0,0-.306,2.59c0,.171,0,.341.012.512a.619.619,0,0,1-.588.648Zm22.1-1.362a.619.619,0,0,1-.606-.5,16.708,16.708,0,0,0-.926-3.04.619.619,0,0,1,1.145-.469,17.922,17.922,0,0,1,.994,3.266.62.62,0,0,1-.607.74Zm-20.658-5a.619.619,0,0,1-.551-.9,14.979,14.979,0,0,1,1.9-2.864.619.619,0,1,1,.945.8,13.691,13.691,0,0,0-1.74,2.626A.618.618,0,0,1,2816.911,2190Zm18.184-1.08a.617.617,0,0,1-.521-.285,15.223,15.223,0,0,0-1.963-2.48.618.618,0,1,1,.88-.868,16.386,16.386,0,0,1,2.125,2.682.618.618,0,0,1-.52.952Zm-13.947-3.9a.619.619,0,0,1-.357-1.124,10.793,10.793,0,0,1,3.123-1.544.618.618,0,0,1,.354,1.185,9.549,9.549,0,0,0-2.763,1.37A.616.616,0,0,1,2821.148,2185.024Zm9.3-.7a.615.615,0,0,1-.3-.079,7.877,7.877,0,0,0-2.877-.973.618.618,0,1,1,.153-1.227,9.087,9.087,0,0,1,3.328,1.121.618.618,0,0,1-.3,1.158Z" transform="translate(-2693.923 -2108.111)" fill="#52d1bd"/>
        <g id="Group_12660" data-name="Group 12660" transform="translate(139.525 61.122)">
          <circle id="Ellipse_207" data-name="Ellipse 207" cx="12.052" cy="12.052" r="12.052" transform="translate(0 17.044) rotate(-45)" fill="#232323" opacity="0.1"/>
          <g id="Group_12659" data-name="Group 12659" transform="translate(7.554 3.552)">
            <circle id="Ellipse_208" data-name="Ellipse 208" cx="12.052" cy="12.052" r="12.052" fill="#f4b545"/>
            <g id="Group_12658" data-name="Group 12658" transform="translate(3.626 3.728)">
              <path id="Path_14614" data-name="Path 14614" d="M3882.251,2074.628l.285-.947,2.288.163-1.759,6.12a5.008,5.008,0,0,0-.177.771.456.456,0,0,0,.078.319.308.308,0,0,0,.23.13,2.156,2.156,0,0,0,1.252-.525,5.306,5.306,0,0,0,1.41-1.572,5.087,5.087,0,0,0,.459-4.248,4.564,4.564,0,0,0-1.026-1.675,5.3,5.3,0,0,0-1.766-1.188,7.534,7.534,0,0,0-2.456-.558,8.68,8.68,0,0,0-2.617.184,6.563,6.563,0,0,0-2.146.91,5.952,5.952,0,0,0-1.612,1.6,7.412,7.412,0,0,0-.945,1.9,8.768,8.768,0,0,0-.434,2.172,6.225,6.225,0,0,0,.4,2.768,5.531,5.531,0,0,0,1.577,2.194,7.106,7.106,0,0,0,2.649,1.381,11.5,11.5,0,0,0,3.612.4,8.623,8.623,0,0,0,2.769-.535,5.355,5.355,0,0,0,1.991-1.374l1.846.131a6.148,6.148,0,0,1-1.292,1.571,6.68,6.68,0,0,1-1.781,1.106,8.874,8.874,0,0,1-2.229.6,12.513,12.513,0,0,1-2.644.073,12.342,12.342,0,0,1-3.8-.832,7.9,7.9,0,0,1-2.758-1.816,6.854,6.854,0,0,1-1.584-2.638,8.456,8.456,0,0,1-.368-3.271,9.576,9.576,0,0,1,.86-3.405,7.946,7.946,0,0,1,4.927-4.309,9.846,9.846,0,0,1,3.726-.405,9.111,9.111,0,0,1,2.986.7,6.7,6.7,0,0,1,2.254,1.549,6.039,6.039,0,0,1,1.343,2.242,7.022,7.022,0,0,1,.322,2.762,6.57,6.57,0,0,1-1.912,4.162,5.8,5.8,0,0,1-1.924,1.274,5.066,5.066,0,0,1-2.3.355,2.1,2.1,0,0,1-1.075-.316,1.178,1.178,0,0,1-.466-.795,3.368,3.368,0,0,1-1.8.816,3.236,3.236,0,0,1-1.885-.317,3.166,3.166,0,0,1-1.4-1.375,4.036,4.036,0,0,1-.411-2.242,6.557,6.557,0,0,1,.775-2.636,5.552,5.552,0,0,1,1.817-2.04,3.879,3.879,0,0,1,2.5-.667A2.5,2.5,0,0,1,3882.251,2074.628Zm-5.059,4.151a2.553,2.553,0,0,0,.32,1.625,1.376,1.376,0,0,0,1.1.635,1.932,1.932,0,0,0,1.48-.548,4.229,4.229,0,0,0,1.057-1.575,6.258,6.258,0,0,0,.457-1.9,2.95,2.95,0,0,0-.049-.835,1.971,1.971,0,0,0-.275-.669,1.4,1.4,0,0,0-.481-.456,1.558,1.558,0,0,0-.67-.191,1.927,1.927,0,0,0-1.416.5,3.885,3.885,0,0,0-1.05,1.476A5.96,5.96,0,0,0,3877.192,2078.78Z" transform="translate(-3871.678 -2069.796)" fill="#fff"/>
            </g>
          </g>
        </g>
      </g>
      <path id="Path_14615" data-name="Path 14615" d="M3259.865,868.3l1.3-.685a.4.4,0,0,1,.584.424l-.249,1.451a.4.4,0,0,0,.116.356l1.054,1.027a.4.4,0,0,1-.223.686l-1.456.212a.4.4,0,0,0-.3.22l-.651,1.32a.4.4,0,0,1-.721,0l-.651-1.32a.4.4,0,0,0-.3-.22l-1.456-.212a.4.4,0,0,1-.223-.686l1.054-1.027a.4.4,0,0,0,.116-.356l-.249-1.451a.4.4,0,0,1,.583-.424l1.3.685A.4.4,0,0,0,3259.865,868.3Z" transform="translate(-3136.157 -858.385)" fill="#4786d1"/>
      <g id="Group_12662" data-name="Group 12662" transform="translate(14.3 107.745)">
        <path id="Path_14616" data-name="Path 14616" d="M1106.016,2875.438a3.463,3.463,0,1,1,3.463-3.462A3.466,3.466,0,0,1,1106.016,2875.438Zm0-5.972a2.51,2.51,0,1,0,2.51,2.51A2.513,2.513,0,0,0,1106.016,2869.466Z" transform="translate(-1102.553 -2868.513)" fill="#4786d1"/>
        <circle id="Ellipse_209" data-name="Ellipse 209" cx="1.764" cy="1.764" r="1.764" transform="translate(0.969 3.463) rotate(-45)" fill="#4786d1"/>
      </g>
      <circle id="Ellipse_210" data-name="Ellipse 210" cx="1.592" cy="1.592" r="1.592" transform="translate(87.763 128.712)" fill="#4786d1"/>
      <circle id="Ellipse_211" data-name="Ellipse 211" cx="1.592" cy="1.592" r="1.592" transform="translate(61.344 2.289)" fill="#4786d1"/>
    </g>
  </g>
</svg>
