<svg xmlns="http://www.w3.org/2000/svg" xmlns:xlink="http://www.w3.org/1999/xlink" width="162.159" height="140.237" viewBox="0 0 162.159 140.237">
  <defs>
    <linearGradient id="linear-gradient" y1="0.5" x2="1" y2="0.5" gradientUnits="objectBoundingBox">
      <stop offset="0" stop-color="#ffe1e3"/>
      <stop offset="1" stop-color="#a3b7e9"/>
    </linearGradient>
    <linearGradient id="linear-gradient-2" x1="-0.758" y1="-1.632" x2="0.995" y2="1.338" xlink:href="#linear-gradient"/>
    <linearGradient id="linear-gradient-3" x1="-1.156" y1="-2.305" x2="2.1" y2="3.211" xlink:href="#linear-gradient"/>
    <linearGradient id="linear-gradient-4" x1="-2.284" y1="-4.233" x2="3.139" y2="4.991" xlink:href="#linear-gradient"/>
    <linearGradient id="linear-gradient-5" x1="-0.693" y1="-0.225" x2="0.587" y2="0.581" xlink:href="#linear-gradient"/>
    <linearGradient id="linear-gradient-6" x1="0.5" y1="2.369" x2="0.5" y2="-0.994" gradientUnits="objectBoundingBox">
      <stop offset="0" stop-color="#fff"/>
      <stop offset="1" stop-color="#b7c6ed"/>
    </linearGradient>
    <linearGradient id="linear-gradient-7" y1="0.5" x2="1" y2="0.5" gradientUnits="objectBoundingBox">
      <stop offset="0" stop-color="#435ac1"/>
      <stop offset="1" stop-color="#0f24a3"/>
    </linearGradient>
    <linearGradient id="linear-gradient-9" y1="0.5" x2="1" y2="0.5" gradientUnits="objectBoundingBox">
      <stop offset="0" stop-color="#7a8ed7"/>
      <stop offset="1" stop-color="#5b83f9"/>
    </linearGradient>
    <linearGradient id="linear-gradient-10" x1="-1.751" y1="-16.751" x2="-0.751" y2="-16.751" gradientUnits="objectBoundingBox">
      <stop offset="0" stop-color="#ffc0c1"/>
      <stop offset="1" stop-color="#fd948e"/>
    </linearGradient>
    <linearGradient id="linear-gradient-11" x1="-1.841" y1="0.5" x2="1.351" y2="0.5" xlink:href="#linear-gradient-6"/>
    <linearGradient id="linear-gradient-28" x1="-0.786" y1="0.5" x2="1.221" y2="0.5" xlink:href="#linear-gradient-6"/>
    <linearGradient id="linear-gradient-33" x1="-0.044" y1="0.425" x2="2.283" y2="0.765" gradientUnits="objectBoundingBox">
      <stop offset="0" stop-color="#a3b7e9"/>
      <stop offset="0.998" stop-color="#7a8ed7"/>
    </linearGradient>
    <linearGradient id="linear-gradient-34" y1="0.5" x2="1" y2="0.5" gradientUnits="objectBoundingBox">
      <stop offset="0" stop-color="#fd948e"/>
      <stop offset="1" stop-color="#f67c77"/>
    </linearGradient>
  </defs>
  <g id="Ñëîé_1" data-name="Ñëîé 1" transform="translate(-4.635)">
    <g id="Group_12739" data-name="Group 12739">
      <path id="Path_14705" data-name="Path 14705" d="M477.654,256.166a27.689,27.689,0,0,1-9.024-8.95,56.626,56.626,0,0,0-94.435-2.7,31.223,31.223,0,0,1-8.756,8.333,55.06,55.06,0,0,0,45.966,99,61.233,61.233,0,0,1,29.755-1.62,51.275,51.275,0,0,0,36.494-94.056Z" transform="translate(-335.315 -214.094)" opacity="0.4" fill="url(#linear-gradient)"/>
      <g id="Group_12698" data-name="Group 12698" transform="translate(82.032)" opacity="0.4">
        <path id="Path_14706" data-name="Path 14706" d="M2579.923,453.135l-1.057-7.519a1.3,1.3,0,0,0-1.47-1.108l-2.506.352a19.8,19.8,0,0,0-2.794-5.063l1.688-2.241a1.3,1.3,0,0,0-.256-1.823l-6.064-4.569a1.3,1.3,0,0,0-1.823.256l-1.588,2.107a19.811,19.811,0,0,0-5.459-1.461l-.423-3.007a1.3,1.3,0,0,0-1.47-1.108l-7.519,1.057a1.3,1.3,0,0,0-1.108,1.47l.423,3.007a19.814,19.814,0,0,0-4.588,2.7l-2.786-2.1a1.3,1.3,0,0,0-1.823.256l-4.569,6.064a1.3,1.3,0,0,0,.257,1.823l2.786,2.1a19.815,19.815,0,0,0-1.293,4.829l-3.854.542a1.3,1.3,0,0,0-1.108,1.47l1.057,7.519a1.3,1.3,0,0,0,1.47,1.108l3.687-.518a19.792,19.792,0,0,0,2.348,4.255l-2.422,3.214a1.3,1.3,0,0,0,.256,1.823l6.064,4.569a1.3,1.3,0,0,0,1.823-.256l2.177-2.89a19.837,19.837,0,0,0,4.762,1.483l.53,3.768a1.3,1.3,0,0,0,1.47,1.108l7.519-1.057a1.3,1.3,0,0,0,1.107-1.47l-.449-3.2a19.788,19.788,0,0,0,4.721-2.433l2.137,1.61a1.981,1.981,0,0,0,2.775-.39l4.16-5.521a1.3,1.3,0,0,0-.256-1.823l-2.222-1.674a19.837,19.837,0,0,0,1.676-5.387l2.907-.409A1.3,1.3,0,0,0,2579.923,453.135Zm-22.314,8.541a9.916,9.916,0,1,1,8.439-11.2A9.916,9.916,0,0,1,2557.609,461.677Z" transform="translate(-2508.98 -412.122)" fill="url(#linear-gradient-2)"/>
        <path id="Path_14707" data-name="Path 14707" d="M2061.26,237.987l-1.127-1a10.76,10.76,0,0,0,1.145-2.837l1.589-.092a.706.706,0,0,0,.664-.745l-.238-4.11a.705.705,0,0,0-.745-.664l-1.37.079a10.733,10.733,0,0,0-1.286-2.86l1.012-1.136a.706.706,0,0,0-.058-1l-3.075-2.738a.706.706,0,0,0-1,.058l-.951,1.068a10.742,10.742,0,0,0-2.886-1.032l-.1-1.644a.706.706,0,0,0-.745-.664l-4.11.238a.706.706,0,0,0-.664.745l.1,1.644a10.744,10.744,0,0,0-2.6,1.258L2043.4,221.3a.706.706,0,0,0-1,.058l-2.738,3.075a.706.706,0,0,0,.058,1l1.413,1.258a10.745,10.745,0,0,0-.913,2.552l-2.107.122a.706.706,0,0,0-.664.745l.238,4.11a.706.706,0,0,0,.745.664l2.016-.117a10.726,10.726,0,0,0,1.08,2.4l-1.452,1.63a.706.706,0,0,0,.058,1l3.075,2.738a.706.706,0,0,0,1-.058l1.3-1.465a10.756,10.756,0,0,0,2.508,1.013l.119,2.06a.706.706,0,0,0,.745.664l4.11-.238a.706.706,0,0,0,.664-.745l-.1-1.749a10.724,10.724,0,0,0,2.659-1.106l1.084.965a1.074,1.074,0,0,0,1.517-.088l2.493-2.8A.706.706,0,0,0,2061.26,237.987Zm-10.167-1.05a5.377,5.377,0,1,1,5.057-5.679A5.377,5.377,0,0,1,2051.092,236.937Z" transform="translate(-2037.456 -212.392)" fill="url(#linear-gradient-3)"/>
        <path id="Path_14708" data-name="Path 14708" d="M2614.635,92.638a.427.427,0,0,0,.552.244l1.107-.427a6.5,6.5,0,0,0,1.069,1.238l-.505,1.141a.427.427,0,0,0,.218.563l2.276,1.008a.427.427,0,0,0,.563-.217l.429-.968a6.486,6.486,0,0,0,1.736.14l.316.818a.65.65,0,0,0,.84.372l2.114-.816a.427.427,0,0,0,.244-.552l-.328-.851a6.508,6.508,0,0,0,1.4-1.209l.88.39a.427.427,0,0,0,.563-.217l1.008-2.276a.427.427,0,0,0-.217-.563l-.758-.336a6.481,6.481,0,0,0,.1-1.893l.858-.331a.427.427,0,0,0,.244-.552l-.9-2.322a.427.427,0,0,0-.552-.244l-.807.312a6.489,6.489,0,0,0-1.266-1.352l.4-.91a.427.427,0,0,0-.218-.563l-2.276-1.008a.426.426,0,0,0-.563.217l-.4.91a6.492,6.492,0,0,0-1.745-.042l-.412-1.067a.427.427,0,0,0-.552-.244l-2.322.9a.427.427,0,0,0-.244.552l.412,1.067a6.5,6.5,0,0,0-1.2,1.12l-1.167-.517a.427.427,0,0,0-.563.217l-1.008,2.276a.427.427,0,0,0,.218.563l1.116.494a6.478,6.478,0,0,0-.084,1.591l-1.231.475a.427.427,0,0,0-.244.552Zm4.124-5.12a3.251,3.251,0,1,1,1.656,4.289A3.251,3.251,0,0,1,2618.759,87.518Z" transform="translate(-2587.436 -81)" fill="url(#linear-gradient-4)"/>
      </g>
      <path id="Path_14710" data-name="Path 14710" d="M2797.6,2430.763c1.893,1.118,5.679,2.645,8.075,1.869,2.212-.716,2.359-3.774,4.261-4.671s7.108,1.587,9.644.812c3.008-.919,1.093-5.269,3.7-5.476s8.955,2.321,10.738.954-.278-2.989,4.011-4.719c3.632-1.465,8.439-3.351,7.786-6.346-.7-3.191-5.307-2.4-8.3-1.265-3.852,1.458-3.1-2.825-5.967-3.035-2.595-.191-7.622,6.358-9.905,6.595s-3.917-2.714-7.439-1.94-3.83,6.26-6.069,7.175-4.267-1.823-7.458-.532S2797.6,2430.763,2797.6,2430.763Z" transform="translate(-2680.911 -2302.742)" fill="url(#linear-gradient-5)"/>
      <g id="Group_12726" data-name="Group 12726" transform="translate(53.039 22.778)">
        <g id="Group_12705" data-name="Group 12705">
          <g id="Group_12704" data-name="Group 12704">
            <g id="Group_12703" data-name="Group 12703">
              <g id="Group_12702" data-name="Group 12702">
                <g id="Group_12701" data-name="Group 12701">
                  <g id="Group_12700" data-name="Group 12700">
                    <g id="Group_12699" data-name="Group 12699">
                      <path id="Path_14712" data-name="Path 14712" d="M1458.129,580.569h-47.906c-4.777,0-8.649,3.2-8.649,7.157v96.383c0,3.953,3.873,7.157,8.649,7.157h47.906c4.777,0,8.649-3.2,8.649-7.157V587.726C1466.778,583.773,1462.906,580.569,1458.129,580.569Z" transform="translate(-1401.573 -580.569)" fill="#03053e"/>
                      <path id="Path_14713" data-name="Path 14713" d="M1540.414,733.132v91.726a1.41,1.41,0,0,1-1.523,1.26h-54.77a1.41,1.41,0,0,1-1.523-1.26V733.132a1.411,1.411,0,0,1,1.523-1.26h54.77A1.411,1.411,0,0,1,1540.414,733.132Z" transform="translate(-1478.903 -724.973)" fill="url(#linear-gradient-6)"/>
                    </g>
                  </g>
                </g>
                <path id="Path_14714" data-name="Path 14714" d="M1458.129,580.569h-47.906c-4.777,0-8.649,3.2-8.649,7.157v96.383c0,3.953,3.873,7.157,8.649,7.157h47.906c4.777,0,8.649-3.2,8.649-7.157V587.726C1466.778,583.773,1462.906,580.569,1458.129,580.569Zm4.955,99.885a1.41,1.41,0,0,1-1.523,1.26h-54.77a1.41,1.41,0,0,1-1.523-1.26V588.728a1.411,1.411,0,0,1,1.523-1.26h54.77a1.411,1.411,0,0,1,1.523,1.26Z" transform="translate(-1401.573 -580.569)" fill="#03053e"/>
              </g>
            </g>
          </g>
        </g>
        <g id="Group_12712" data-name="Group 12712" transform="translate(6.512 17.873)">
          <rect id="Rectangle_4202" data-name="Rectangle 4202" width="52.159" height="19.373" rx="9.686" fill="#fff" opacity="0.7"/>
          <g id="Group_12711" data-name="Group 12711" transform="translate(3.852 2.462)">
            <g id="Group_12709" data-name="Group 12709">
              <g id="Group_12706" data-name="Group 12706">
                <circle id="Ellipse_217" data-name="Ellipse 217" cx="1.903" cy="1.903" r="1.903" transform="translate(3.535 13.962) rotate(-76.717)" fill="url(#linear-gradient-7)"/>
                <circle id="Ellipse_218" data-name="Ellipse 218" cx="1.079" cy="1.079" r="1.079" transform="translate(4.746)" fill="url(#linear-gradient-7)"/>
                <path id="Path_14715" data-name="Path 14715" d="M1640.491,1058.794l-.8-1.606a4.3,4.3,0,0,1-.449-2.129l.144-3.017a4.691,4.691,0,0,0-4.686-4.915h0a4.691,4.691,0,0,0-4.686,4.915l.144,3.017a4.3,4.3,0,0,1-.449,2.129l-.8,1.606a.291.291,0,0,0,.26.421h11.067A.291.291,0,0,0,1640.491,1058.794Z" transform="translate(-1628.872 -1046.189)" fill="url(#linear-gradient-9)"/>
              </g>
              <g id="Group_12708" data-name="Group 12708" transform="translate(7.179 0.533)">
                <circle id="Ellipse_219" data-name="Ellipse 219" cx="1.458" cy="1.458" r="1.458" transform="translate(0 2.062) rotate(-45)" fill="url(#linear-gradient-10)"/>
                <g id="Group_12707" data-name="Group 12707" transform="translate(1.467 1.163)">
                  <path id="Path_14716" data-name="Path 14716" d="M1818.516,1064.439v-.343a.725.725,0,0,0,.48-.339h.366v1.386h.343v.331h-1.112v-.331h.387v-.9A1.644,1.644,0,0,1,1818.516,1064.439Z" transform="translate(-1818.516 -1063.757)" fill="#fff"/>
                </g>
              </g>
            </g>
            <g id="Group_12710" data-name="Group 12710" transform="translate(16.057 1.939)">
              <rect id="Rectangle_4203" data-name="Rectangle 4203" width="27.661" height="1.516" fill="url(#linear-gradient-11)"/>
              <rect id="Rectangle_4204" data-name="Rectangle 4204" width="27.661" height="1.516" transform="translate(0 4.528)" fill="url(#linear-gradient-11)"/>
              <rect id="Rectangle_4205" data-name="Rectangle 4205" width="27.661" height="1.516" transform="translate(0 9.055)" fill="url(#linear-gradient-11)"/>
            </g>
          </g>
        </g>
        <g id="Group_12718" data-name="Group 12718" transform="translate(6.512 40.267)">
          <rect id="Rectangle_4206" data-name="Rectangle 4206" width="52.159" height="19.373" rx="9.686" fill="#fff" opacity="0.7"/>
          <g id="Group_12716" data-name="Group 12716" transform="translate(3.852 2.462)">
            <g id="Group_12713" data-name="Group 12713">
              <circle id="Ellipse_220" data-name="Ellipse 220" cx="1.903" cy="1.903" r="1.903" transform="translate(3.535 13.962) rotate(-76.717)" fill="url(#linear-gradient-7)"/>
              <circle id="Ellipse_221" data-name="Ellipse 221" cx="1.079" cy="1.079" r="1.079" transform="translate(4.746)" fill="url(#linear-gradient-7)"/>
              <path id="Path_14717" data-name="Path 14717" d="M1640.491,1549.947l-.8-1.606a4.3,4.3,0,0,1-.449-2.129l.144-3.017a4.691,4.691,0,0,0-4.686-4.915h0a4.691,4.691,0,0,0-4.686,4.915l.144,3.017a4.3,4.3,0,0,1-.449,2.129l-.8,1.606a.291.291,0,0,0,.26.421h11.067A.291.291,0,0,0,1640.491,1549.947Z" transform="translate(-1628.872 -1537.342)" fill="url(#linear-gradient-9)"/>
            </g>
            <g id="Group_12715" data-name="Group 12715" transform="translate(7.179 0.533)">
              <circle id="Ellipse_222" data-name="Ellipse 222" cx="1.458" cy="1.458" r="1.458" transform="translate(0 2.062) rotate(-45)" fill="url(#linear-gradient-10)"/>
              <g id="Group_12714" data-name="Group 12714" transform="translate(1.467 1.164)">
                <path id="Path_14718" data-name="Path 14718" d="M1818.516,1555.593v-.343a.724.724,0,0,0,.48-.339h.366v1.385h.343v.331h-1.112v-.331h.387v-.9A1.648,1.648,0,0,1,1818.516,1555.593Z" transform="translate(-1818.516 -1554.911)" fill="#fff"/>
              </g>
            </g>
          </g>
          <g id="Group_12717" data-name="Group 12717" transform="translate(19.909 4.4)">
            <rect id="Rectangle_4207" data-name="Rectangle 4207" width="27.661" height="1.516" fill="url(#linear-gradient-11)"/>
            <rect id="Rectangle_4208" data-name="Rectangle 4208" width="27.661" height="1.516" transform="translate(0 4.528)" fill="url(#linear-gradient-11)"/>
            <rect id="Rectangle_4209" data-name="Rectangle 4209" width="27.661" height="1.516" transform="translate(0 9.055)" fill="url(#linear-gradient-11)"/>
          </g>
        </g>
        <g id="Group_12725" data-name="Group 12725" transform="translate(6.512 62.66)">
          <rect id="Rectangle_4210" data-name="Rectangle 4210" width="52.159" height="28.132" rx="14.066" fill="#fff" opacity="0.7"/>
          <g id="Group_12722" data-name="Group 12722" transform="translate(3.852 2.462)">
            <g id="Group_12719" data-name="Group 12719">
              <circle id="Ellipse_223" data-name="Ellipse 223" cx="1.903" cy="1.903" r="1.903" transform="translate(3.535 13.962) rotate(-76.717)" fill="url(#linear-gradient-7)"/>
              <circle id="Ellipse_224" data-name="Ellipse 224" cx="1.079" cy="1.079" r="1.079" transform="translate(4.746)" fill="url(#linear-gradient-7)"/>
              <path id="Path_14719" data-name="Path 14719" d="M1640.491,2041.1l-.8-1.606a4.3,4.3,0,0,1-.449-2.129l.144-3.017a4.691,4.691,0,0,0-4.686-4.915h0a4.691,4.691,0,0,0-4.686,4.915l.144,3.017a4.3,4.3,0,0,1-.449,2.129l-.8,1.606a.291.291,0,0,0,.26.421h11.067A.291.291,0,0,0,1640.491,2041.1Z" transform="translate(-1628.872 -2028.495)" fill="url(#linear-gradient-9)"/>
            </g>
            <g id="Group_12721" data-name="Group 12721" transform="translate(7.179 0.533)">
              <circle id="Ellipse_225" data-name="Ellipse 225" cx="1.458" cy="1.458" r="1.458" transform="translate(0 2.062) rotate(-45)" fill="url(#linear-gradient-10)"/>
              <g id="Group_12720" data-name="Group 12720" transform="translate(1.467 1.164)">
                <path id="Path_14720" data-name="Path 14720" d="M1818.516,2046.746v-.343a.724.724,0,0,0,.48-.339h.366v1.386h.343v.331h-1.112v-.331h.387v-.9A1.644,1.644,0,0,1,1818.516,2046.746Z" transform="translate(-1818.516 -2046.064)" fill="#fff"/>
              </g>
            </g>
          </g>
          <g id="Group_12723" data-name="Group 12723" transform="translate(19.909 4.4)">
            <rect id="Rectangle_4211" data-name="Rectangle 4211" width="27.661" height="1.516" fill="url(#linear-gradient-11)"/>
            <rect id="Rectangle_4212" data-name="Rectangle 4212" width="27.661" height="1.516" transform="translate(0 4.528)" fill="url(#linear-gradient-11)"/>
            <rect id="Rectangle_4213" data-name="Rectangle 4213" width="27.661" height="1.516" transform="translate(0 9.055)" fill="url(#linear-gradient-11)"/>
          </g>
          <g id="Group_12724" data-name="Group 12724" transform="translate(3.561 18.971)">
            <rect id="Rectangle_4214" data-name="Rectangle 4214" width="44.009" height="1.516" fill="url(#linear-gradient-28)"/>
            <rect id="Rectangle_4215" data-name="Rectangle 4215" width="44.009" height="1.516" transform="translate(0 4.528)" fill="url(#linear-gradient-28)"/>
          </g>
        </g>
      </g>
      <g id="Group_12732" data-name="Group 12732" transform="translate(94.89 70.118)">
        <g id="Group_12729" data-name="Group 12729">
          <circle id="Ellipse_226" data-name="Ellipse 226" cx="8.511" cy="8.511" r="8.511" transform="translate(14.013 56.11) rotate(-45)" fill="url(#linear-gradient-7)"/>
          <circle id="Ellipse_227" data-name="Ellipse 227" cx="4.823" cy="4.823" r="4.823" transform="translate(21.225)" fill="url(#linear-gradient-7)"/>
          <path id="Path_14742" data-name="Path 14742" d="M2371.418,1763.072l-3.592-7.183a19.231,19.231,0,0,1-2.008-9.52l.646-13.493a20.979,20.979,0,0,0-20.955-21.982h0a20.979,20.979,0,0,0-20.955,21.982l.646,13.493a19.234,19.234,0,0,1-2.009,9.52l-3.591,7.183a1.3,1.3,0,0,0,1.164,1.883h49.491A1.3,1.3,0,0,0,2371.418,1763.072Z" transform="translate(-2319.46 -1706.698)" fill="url(#linear-gradient-9)"/>
        </g>
      </g>
      <g id="Group_12738" data-name="Group 12738" transform="translate(20.331 8.754)">
        <g id="Group_12735" data-name="Group 12735" transform="translate(0)">
          <g id="Group_12734" data-name="Group 12734">
            <g id="Group_12733" data-name="Group 12733">
              <path id="Path_14744" data-name="Path 14744" d="M723.98,277.158c-4.457-4.971-30.666-5.214-35.816-2.178-7.828,4.613-2.236,23.718,1.363,25.827a38.006,38.006,0,0,0,4,1.9,20.866,20.866,0,0,0,6.086,7.458,12.245,12.245,0,0,1-.732-5.394c6.31,2.194,13.913,4.043,19.1,3.408C726.38,307.154,728.437,282.129,723.98,277.158Z" transform="translate(-684.206 -272.997)" fill="url(#linear-gradient-33)"/>
            </g>
          </g>
        </g>
        <g id="Group_12737" data-name="Group 12737" transform="translate(9.96 4.455)">
          <circle id="Ellipse_229" data-name="Ellipse 229" cx="11.11" cy="11.11" r="11.11" fill="url(#linear-gradient-34)"/>
          <g id="Group_12736" data-name="Group 12736" transform="translate(8.948 2.859)">
            <path id="Path_14745" data-name="Path 14745" d="M1107.056,711.838a1.9,1.9,0,0,0-1.888,1.9h0a1.888,1.888,0,1,0,3.776,0h0A1.9,1.9,0,0,0,1107.056,711.838Z" transform="translate(-1104.883 -699.144)" fill="#fff"/>
            <path id="Path_14746" data-name="Path 14746" d="M1102.011,433.421h-1.877a1.23,1.23,0,0,0-1.217,1.362l.943,9.1a1.223,1.223,0,0,0,2.434,0l.934-9.1A1.23,1.23,0,0,0,1102.011,433.421Z" transform="translate(-1098.911 -433.421)" fill="#fff"/>
          </g>
        </g>
      </g>
    </g>
  </g>
</svg>
