<svg xmlns="http://www.w3.org/2000/svg" width="110.238" height="120" viewBox="0 0 110.238 120">
  <g id="Group_14430" data-name="Group 14430" transform="translate(-136.762 -539)">
    <path id="Path_13719" data-name="Path 13719" d="M5.6,22.229a2.915,2.915,0,1,0-3.694-1.87A2.91,2.91,0,0,0,5.6,22.229Z" transform="translate(135 540)" fill="#eaeef9"/>
    <path id="Path_13720" data-name="Path 13720" d="M12,12.724a1.982,1.982,0,1,0-2.512-1.272A1.98,1.98,0,0,0,12,12.724Z" transform="translate(135 540)" fill="#eaeef9"/>
    <path id="Path_13721" data-name="Path 13721" d="M13.13,108.118a1.857,1.857,0,0,0,.119-2.635,1.883,1.883,0,0,0-2.65-.118,1.856,1.856,0,0,0-.12,2.634A1.886,1.886,0,0,0,13.13,108.118Z" transform="translate(135 540)" fill="#eaeef9"/>
    <path id="Path_13722" data-name="Path 13722" d="M112,39.033V82.967a11.267,11.267,0,0,1-.117,1.981,15.982,15.982,0,0,1-7.974,12L65.681,118.859A15.937,15.937,0,0,1,53.72,120.49a16.688,16.688,0,0,1-4.221-1.631L11.154,96.834A16.221,16.221,0,0,1,2.945,82.85V39.033a15.985,15.985,0,0,1,8.091-13.984L49.382,3.141A16.233,16.233,0,0,1,61.46,1.51a20.959,20.959,0,0,1,4.221,1.631l38.228,21.908A16.281,16.281,0,0,1,112,39.033Z" transform="translate(135 538)" fill="#eaeef9" opacity="0.6"/>
  </g>
</svg>
