<svg xmlns="http://www.w3.org/2000/svg" xmlns:xlink="http://www.w3.org/1999/xlink" width="155.333" height="126.289" viewBox="0 0 155.333 126.289">
  <defs>
    <filter id="Path_15176" x="0" y="12.918" width="155.333" height="113.37" filterUnits="userSpaceOnUse">
      <feOffset dy="11" input="SourceAlpha"/>
      <feGaussianBlur stdDeviation="11" result="blur"/>
      <feFlood flood-opacity="0.161"/>
      <feComposite operator="in" in2="blur"/>
      <feComposite in="SourceGraphic"/>
    </filter>
  </defs>
  <g id="Group_12187" data-name="Group 12187" transform="translate(-111.858 -362.182)">
    <path id="Path_13864" data-name="Path 13864" d="M115.457,58.264l-1.285-3.578a2.147,2.147,0,0,0-2-1.431H89.621a3.234,3.234,0,0,0-3.283,3.291V98.764H162.7V63.129a3.234,3.234,0,0,0-3.283-3.292H117.454A2.526,2.526,0,0,1,115.457,58.264Z" transform="translate(65.434 327.817)" fill="#416ff4"/>
    <path id="Path_13865" data-name="Path 13865" d="M132.791,79.525H106.813a.765.765,0,0,1-.714-.715.675.675,0,0,1,.714-.716h25.978a.716.716,0,0,1,0,1.431Z" transform="translate(74.933 339.759)" fill="#ced7e2"/>
    <path id="Path_13866" data-name="Path 13866" d="M106.174,79.525h-4.567a.765.765,0,0,1-.714-.715.675.675,0,0,1,.714-.716h4.567a.765.765,0,0,1,.714.716A.675.675,0,0,1,106.174,79.525Z" transform="translate(72.431 339.759)" fill="#ced7e2"/>
    <path id="Path_13867" data-name="Path 13867" d="M128.11,74.789H116.549a.765.765,0,0,1-.714-.715.675.675,0,0,1,.714-.716H128.11a.716.716,0,0,1,0,1.431Z" transform="translate(79.614 337.482)" fill="#ced7e2"/>
    <path id="Path_13868" data-name="Path 13868" d="M118.643,74.789H101.8a.766.766,0,0,1-.714-.715.675.675,0,0,1,.714-.716h16.843a.765.765,0,0,1,.714.716A.675.675,0,0,1,118.643,74.789Z" transform="translate(72.524 337.482)" fill="#ced7e2"/>
    <path id="Path_13869" data-name="Path 13869" d="M125.891,70.053h-4.426a.716.716,0,0,1,0-1.431h4.426a.767.767,0,0,1,.714.716A.675.675,0,0,1,125.891,70.053Z" transform="translate(81.977 335.205)" fill="#ced7e2"/>
    <path id="Path_13870" data-name="Path 13870" d="M126.733,70.053H101.9a.716.716,0,0,1,0-1.431h24.836a.767.767,0,0,1,.714.716C127.3,69.767,127.017,70.053,126.733,70.053Z" transform="translate(72.57 335.205)" fill="#ced7e2"/>
    <path id="Path_13871" data-name="Path 13871" d="M111.563,84.744h-1.57a.765.765,0,0,1-.714-.715.675.675,0,0,1,.714-.716h1.57a.765.765,0,0,1,.714.716A.675.675,0,0,1,111.563,84.744Z" transform="translate(76.463 344.362)" fill="#ced7e2"/>
    <path id="Path_13872" data-name="Path 13872" d="M111.129,84.744h-9.136a.765.765,0,0,1-.714-.715.675.675,0,0,1,.714-.716h9.136a.716.716,0,0,1,0,1.431Z" transform="translate(72.616 344.362)" fill="#ced7e2"/>
    <g id="Group_12185" data-name="Group 12185" transform="translate(150.711 402.396)">
      <path id="Path_13883" data-name="Path 13883" d="M162.645,70.423l-5.418,23.434c-.37,1.384-2.094,2.421-4.065,2.421H94.172c-1.97,0-3.695-1.038-4.064-2.421l-4.434-19.2c-.369-1.47,1.232-2.767,3.325-2.767h33.251a2.455,2.455,0,0,0,2.217-1.124l.986-1.989a2.455,2.455,0,0,1,2.217-1.124h31.65C161.415,67.656,163.015,68.953,162.645,70.423Z" transform="translate(-85.621 -67.656)" fill="#2d5887"/>
    </g>
    <g id="Group_14362" data-name="Group 14362" transform="matrix(0.946, 0.326, -0.326, 0.946, 172.53, 362.182)">
      <path id="Path_15058" data-name="Path 15058" d="M35.034,41.145,2.578,43.154,0,1.491,24.1,0l8.849,7.421Z" fill="#fff"/>
      <path id="Path_15059" data-name="Path 15059" d="M0,0,8.848,7.421.491,7.939Z" transform="translate(24.098 0)" fill="#dbdbdb"/>
      <g id="Group_14361" data-name="Group 14361" transform="translate(10.911 9.977)">
        <path id="Path_15060" data-name="Path 15060" d="M4.19,18.054l-.126-.94a8.346,8.346,0,0,1,1.9-6.405C7.489,8.694,8.317,7.227,8.225,5.594c-.1-1.852-1.334-3.02-3.623-2.929A6.461,6.461,0,0,0,1,4L0,1.758A9.532,9.532,0,0,1,5.109.015c4.174-.234,6.206,2.238,6.36,5C11.608,7.48,10.328,9.335,8.7,11.5a7.182,7.182,0,0,0-1.77,5.452l.089.942ZM3.676,23.18a2.149,2.149,0,0,1,2.05-2.409,2.121,2.121,0,0,1,2.269,2.167,2.118,2.118,0,0,1-2.052,2.372A2.131,2.131,0,0,1,3.676,23.18Z" transform="translate(0 0)" fill="#ffcb42" opacity="0.5"/>
      </g>
    </g>
    <g transform="matrix(1, 0, 0, 1, 111.86, 362.18)" filter="url(#Path_15176)">
      <path id="Path_15176-2" data-name="Path 15176" d="M170.94,68.659l-6.28,38.784a4.879,4.879,0,0,1-4.71,4.007H91.58a4.879,4.879,0,0,1-4.71-4.007L81.731,75.671a3.887,3.887,0,0,1,3.854-4.58h38.538a2.745,2.745,0,0,0,2.571-1.861l1.142-3.291a2.743,2.743,0,0,1,2.569-1.861h36.684A3.887,3.887,0,0,1,170.94,68.659Z" transform="translate(-48.67 -29.16)" fill="#5b83f9"/>
    </g>
    <g id="Group_14418" data-name="Group 14418" transform="translate(174.433 420.785)">
      <circle id="Ellipse_248" data-name="Ellipse 248" cx="2.889" cy="2.889" r="2.889" fill="#2b2b2b"/>
      <circle id="Ellipse_249" data-name="Ellipse 249" cx="2.889" cy="2.889" r="2.889" transform="translate(22.837 0)" fill="#2b2b2b"/>
      <path id="Path_15161" data-name="Path 15161" d="M371.368,327.691l-.158-.3a5.506,5.506,0,0,0-4.51-2.786,3.574,3.574,0,0,0-3.433,2.708l-.081.331-.662-.16.08-.331a4.317,4.317,0,0,1,4.1-3.23,6.1,6.1,0,0,1,5.114,3.152l.159.3Z" transform="translate(-352.911 -321.452)" fill="#2b2b2b"/>
    </g>
  </g>
</svg>
