<svg xmlns="http://www.w3.org/2000/svg" xmlns:xlink="http://www.w3.org/1999/xlink" width="155.835" height="154.593" viewBox="0 0 155.835 154.593">
  <defs>
    <clipPath id="clip-path">
      <path id="Path_14793" data-name="Path 14793" d="M1442.656-945.2l-51.3-4.088a3.155,3.155,0,0,1-2.894-3.4l2.938-36.876a3.155,3.155,0,0,1,3.4-2.894l51.3,4.088a3.155,3.155,0,0,1,2.894,3.4l-2.938,36.876A3.155,3.155,0,0,1,1442.656-945.2Z" transform="translate(-1388.451 992.467)" fill="#5b83f9"/>
    </clipPath>
  </defs>
  <g id="Group_12753" data-name="Group 12753" transform="translate(-21.192 1538.912)">
    <path id="Path_14748" data-name="Path 14748" d="M1484.183-570.824h50.353a54.473,54.473,0,0,0,29.3-48.325,54.48,54.48,0,0,0-54.479-54.48,54.48,54.48,0,0,0-54.48,54.48A54.473,54.473,0,0,0,1484.183-570.824Z" transform="translate(-1386.813 -821.157)" fill="#ecf3fe"/>
    <ellipse id="Ellipse_230" data-name="Ellipse 230" cx="71.716" cy="9.896" rx="71.716" ry="9.896" transform="translate(31.879 -1404.111)" fill="#d7e4f9"/>
    <circle id="Ellipse_231" data-name="Ellipse 231" cx="54.479" cy="54.479" r="54.479" transform="translate(38.053 -1538.912)" fill="#ecf3fe"/>
    <path id="Path_14760" data-name="Path 14760" d="M1212.172-1014.373l-60.63-2.053a4.925,4.925,0,0,1-4.755-5.089l3.586-105.887a4.925,4.925,0,0,1,5.089-4.755l60.63,2.053a4.925,4.925,0,0,1,4.755,5.089l-3.585,105.887A4.925,4.925,0,0,1,1212.172-1014.373Z" transform="translate(-1083.546 -386.008)" fill="#003889" opacity="0.18" style="mix-blend-mode: multiply;isolation: isolate"/>
    <path id="Path_14761" data-name="Path 14761" d="M1391.238-1074.473l-60.63-2.053a4.925,4.925,0,0,1-4.755-5.089l3.585-105.887a4.925,4.925,0,0,1,5.089-4.755l60.63,2.053a4.925,4.925,0,0,1,4.755,5.089l-3.586,105.887A4.925,4.925,0,0,1,1391.238-1074.473Z" transform="translate(-1253.48 -328.974)" fill="#5b83f9"/>
    <path id="Path_14762" data-name="Path 14762" d="M1231.155-1036.328l-60.473-4.819a4.925,4.925,0,0,1-4.518-5.3l8.416-105.613a4.925,4.925,0,0,1,5.3-4.518l60.473,4.819a4.925,4.925,0,0,1,4.518,5.3l-8.416,105.613A4.925,4.925,0,0,1,1231.155-1036.328Z" transform="translate(-1101.923 -362.821)" fill="#fff"/>
    <g id="Group_12762" data-name="Group 12762" transform="translate(75.562 -1511.045)">
      <path id="Path_14763" data-name="Path 14763" d="M2456.159-508.339l-.3,2.5a1.1,1.1,0,0,0,.815,1.2l2.143.56.3.08a1.313,1.313,0,0,1,.44.206l1.508,1.087,1.678-2.573-1.46-.809c-.015-.008-.029-.018-.043-.027a.931.931,0,0,1-.393-.51l-.554-1.785a.976.976,0,0,0-.835-.683l-2.1-.214A1.1,1.1,0,0,0,2456.159-508.339Z" transform="translate(-2401.419 533.95)" fill="#fdc8aa"/>
      <g id="Group_12761" data-name="Group 12761" transform="translate(0 0)">
        <g id="Group_12760" data-name="Group 12760">
          <path id="Path_14784" data-name="Path 14784" d="M1442.656-945.2l-51.3-4.088a3.155,3.155,0,0,1-2.894-3.4l2.938-36.876a3.155,3.155,0,0,1,3.4-2.894l51.3,4.088a3.155,3.155,0,0,1,2.894,3.4l-2.938,36.876A3.155,3.155,0,0,1,1442.656-945.2Z" transform="translate(-1388.451 992.467)" fill="#ecf3fe"/>
          <g id="Group_12759" data-name="Group 12759" clip-path="url(#clip-path)">
            <path id="Path_14785" data-name="Path 14785" d="M2045.019-1044.817l2.316-1.046,1.9,8.335a1.478,1.478,0,0,0,2.173.976l38.527-17.4a2.4,2.4,0,0,0,1.365-2.573l-5.748-25.224a1.479,1.479,0,0,0-2.173-.976l-38.528,17.4a2.4,2.4,0,0,0-1.365,2.573l1.9,8.335-2.316,1.046a1.735,1.735,0,0,0-.987,1.861l1.365,5.988A1.069,1.069,0,0,0,2045.019-1044.817Z" transform="translate(-2008.718 1078.286)" fill="#1061b2"/>
            <ellipse id="Ellipse_232" data-name="Ellipse 232" cx="15.377" cy="15.429" rx="15.377" ry="15.429" transform="matrix(0.528, -0.849, 0.849, 0.528, 7.738, 30.906)" fill="#003889" opacity="0.18" style="mix-blend-mode: multiply;isolation: isolate"/>
            <g id="Group_12757" data-name="Group 12757" transform="translate(9.251 2.449)">
              <ellipse id="Ellipse_233" data-name="Ellipse 233" cx="15.377" cy="15.429" rx="15.377" ry="15.429" transform="matrix(0.528, -0.849, 0.849, 0.528, 0, 26.122)" fill="#f4b545"/>
              <g id="Group_12756" data-name="Group 12756" transform="translate(12.753 12.553)">
                <path id="Path_14786" data-name="Path 14786" d="M1836.529-690.268l-3.522-.84a2.815,2.815,0,0,0-1.417-3.28q-2.033-1.263-2.85.052a1.389,1.389,0,0,0-.171,1.123,4.5,4.5,0,0,0,1.327,1.7,20.125,20.125,0,0,1,2.712,2.946,4.931,4.931,0,0,1,.832,2.568,4.584,4.584,0,0,1-.705,2.724,5.357,5.357,0,0,1-3.651,2.471,7.493,7.493,0,0,1-5.423-1.37,8.136,8.136,0,0,1-3.2-3.4,5.707,5.707,0,0,1-.2-4.325l3.62,1.256q-.734,2.374,1.707,3.89a3.314,3.314,0,0,0,2.037.636,1.584,1.584,0,0,0,1.252-.726,1.33,1.33,0,0,0,.093-1.32,7.471,7.471,0,0,0-1.612-1.921,10.876,10.876,0,0,1-3-4.052,4.242,4.242,0,0,1,.627-3.661,5.1,5.1,0,0,1,3.458-2.4,6.352,6.352,0,0,1,4.682,1.057Q1837.428-694.464,1836.529-690.268Z" transform="translate(-1819.934 698.302)" fill="#fff"/>
              </g>
            </g>
            <path id="Path_14787" data-name="Path 14787" d="M2027.794-953.442l41-5.941a1.868,1.868,0,0,1,2.148,1.528l3.768,25.595a1.858,1.858,0,0,1-1.618,2.073l-41,5.942a1.867,1.867,0,0,1-2.147-1.528l-3.768-25.595A1.857,1.857,0,0,1,2027.794-953.442Z" transform="translate(-1993.636 961.09)" fill="#003889" opacity="0.18" style="mix-blend-mode: multiply;isolation: isolate"/>
            <g id="Group_12758" data-name="Group 12758" transform="translate(30.987 -5.343)">
              <path id="Path_14788" data-name="Path 14788" d="M2028.31-1088.065l40.416-9.115a1.867,1.867,0,0,1,2.26,1.356l5.749,25.224a1.858,1.858,0,0,1-1.451,2.193l-40.416,9.115a1.867,1.867,0,0,1-2.26-1.356l-5.749-25.224A1.858,1.858,0,0,1,2028.31-1088.065Z" transform="translate(-2025.248 1097.229)" fill="#5b83f9"/>
              <path id="Path_14789" data-name="Path 14789" d="M2074.78-1023.644l-.016,0a.19.19,0,0,1-.21-.169.19.19,0,0,1,.167-.21h.014a1.352,1.352,0,0,0,.138-.024l.816-.184a.189.189,0,0,1,.228.144.191.191,0,0,1-.144.228l-.816.184A1.719,1.719,0,0,1,2074.78-1023.644Zm1.96-.433a.191.191,0,0,1-.208-.147.19.19,0,0,1,.144-.228l.986-.222a.19.19,0,0,1,.228.144.191.191,0,0,1-.144.228l-.987.223Zm-2.937.2a.19.19,0,0,1-.128-.031,1.525,1.525,0,0,1-.643-.926.19.19,0,0,1,.143-.228.191.191,0,0,1,.229.143,1.144,1.144,0,0,0,.483.695.19.19,0,0,1,.052.264A.191.191,0,0,1,2073.8-1023.876Zm4.909-.646a.19.19,0,0,1-.208-.147.191.191,0,0,1,.144-.228l.987-.223a.19.19,0,0,1,.228.144.19.19,0,0,1-.144.228l-.987.222Zm1.973-.445a.191.191,0,0,1-.208-.147.191.191,0,0,1,.144-.228l.987-.222a.189.189,0,0,1,.228.144.191.191,0,0,1-.144.228l-.986.222Zm1.973-.445a.191.191,0,0,1-.208-.147.191.191,0,0,1,.144-.228l.986-.222a.19.19,0,0,1,.228.144.19.19,0,0,1-.144.228l-.986.222Zm1.972-.445a.19.19,0,0,1-.207-.147.19.19,0,0,1,.144-.228l.986-.222a.19.19,0,0,1,.228.144.19.19,0,0,1-.144.228l-.986.223Zm1.973-.445a.19.19,0,0,1-.208-.147.19.19,0,0,1,.144-.228l.986-.222a.19.19,0,0,1,.228.144.19.19,0,0,1-.144.228l-.986.222Zm1.972-.445a.191.191,0,0,1-.208-.147.191.191,0,0,1,.144-.228l.987-.222a.19.19,0,0,1,.228.144.191.191,0,0,1-.144.228l-.987.222Zm1.973-.445a.191.191,0,0,1-.208-.147.191.191,0,0,1,.144-.228l.987-.223a.191.191,0,0,1,.228.144.191.191,0,0,1-.144.228l-.986.222Zm1.973-.445a.191.191,0,0,1-.208-.147.191.191,0,0,1,.144-.228l.986-.222a.19.19,0,0,1,.228.144.19.19,0,0,1-.144.228l-.986.222Zm1.972-.445a.19.19,0,0,1-.208-.147.19.19,0,0,1,.144-.228l.986-.222a.191.191,0,0,1,.228.144.191.191,0,0,1-.144.228l-.987.223Zm-21.479,2.409a.191.191,0,0,1-.208-.147l-.225-.986a.19.19,0,0,1,.143-.228.191.191,0,0,1,.228.143l.224.986a.19.19,0,0,1-.143.228Zm23.452-2.854a.19.19,0,0,1-.208-.147.19.19,0,0,1,.144-.228l.986-.222a.191.191,0,0,1,.228.144.19.19,0,0,1-.144.228l-.986.222Zm1.973-.445a.191.191,0,0,1-.208-.147.191.191,0,0,1,.144-.228l.987-.223a.19.19,0,0,1,.228.144.191.191,0,0,1-.144.228l-.987.223Zm1.973-.445a.191.191,0,0,1-.208-.147.19.19,0,0,1,.144-.228l.986-.223a.191.191,0,0,1,.228.144.19.19,0,0,1-.144.228l-.986.222Zm1.973-.445a.19.19,0,0,1-.208-.147.19.19,0,0,1,.144-.228l.986-.222a.19.19,0,0,1,.228.144.19.19,0,0,1-.144.228l-.986.222Zm1.973-.445a.19.19,0,0,1-.208-.147.19.19,0,0,1,.144-.228l.986-.223a.19.19,0,0,1,.228.144.19.19,0,0,1-.144.228l-.986.223Zm1.972-.445a.19.19,0,0,1-.207-.147.191.191,0,0,1,.144-.228l.986-.222a.19.19,0,0,1,.228.144.19.19,0,0,1-.144.228l-.986.223Zm1.973-.445a.191.191,0,0,1-.208-.147.191.191,0,0,1,.144-.228l.986-.222a.191.191,0,0,1,.228.144.191.191,0,0,1-.144.228l-.986.222Zm1.973-.445a.19.19,0,0,1-.208-.147.19.19,0,0,1,.144-.228l.986-.222a.191.191,0,0,1,.228.144.191.191,0,0,1-.144.228l-.986.223Zm1.973-.445a.19.19,0,0,1-.208-.147.19.19,0,0,1,.144-.228l.128-.029a1.275,1.275,0,0,0,.655-.374.19.19,0,0,1,.269-.01.19.19,0,0,1,.01.269,1.652,1.652,0,0,1-.85.486l-.128.029Zm-39.683,4.441a.191.191,0,0,1-.208-.147l-.224-.986a.19.19,0,0,1,.143-.228.191.191,0,0,1,.228.144l.224.986a.19.19,0,0,1-.143.228Zm40.934-5.815h-.024a.19.19,0,0,1-.189-.192,1.132,1.132,0,0,0-.008-.138,1.186,1.186,0,0,0-.021-.12l-.157-.689a.191.191,0,0,1,.143-.228.191.191,0,0,1,.228.143l.157.689a1.572,1.572,0,0,1,.028.161,1.6,1.6,0,0,1,.01.184A.191.191,0,0,1,2113.5-1033.46Zm-41.383,3.844a.191.191,0,0,1-.208-.147l-.224-.986a.19.19,0,0,1,.143-.228.191.191,0,0,1,.228.143l.225.986a.19.19,0,0,1-.143.228Zm40.968-5.821a.191.191,0,0,1-.208-.147l-.225-.986a.19.19,0,0,1,.143-.228.191.191,0,0,1,.228.143l.225.986a.191.191,0,0,1-.144.228Zm-41.417,3.849a.191.191,0,0,1-.208-.147l-.224-.986a.191.191,0,0,1,.143-.228.19.19,0,0,1,.228.144l.225.986a.191.191,0,0,1-.144.228Zm40.968-5.82a.191.191,0,0,1-.208-.147l-.225-.986a.191.191,0,0,1,.143-.228.19.19,0,0,1,.228.143l.225.986a.19.19,0,0,1-.143.228Zm-41.418,3.849a.191.191,0,0,1-.208-.147l-.224-.986a.19.19,0,0,1,.143-.228.191.191,0,0,1,.228.143l.225.986a.19.19,0,0,1-.143.228Zm40.968-5.82a.191.191,0,0,1-.207-.147l-.225-.986a.191.191,0,0,1,.143-.228.19.19,0,0,1,.228.143l.225.986a.191.191,0,0,1-.144.228Zm-41.417,3.849a.19.19,0,0,1-.207-.147l-.225-.986a.19.19,0,0,1,.143-.228.19.19,0,0,1,.228.143l.225.986a.191.191,0,0,1-.144.228Zm40.968-5.82a.19.19,0,0,1-.207-.147l-.225-.986a.19.19,0,0,1,.143-.228.191.191,0,0,1,.228.144l.225.986a.19.19,0,0,1-.143.228Zm-41.417,3.849a.19.19,0,0,1-.208-.147l-.225-.986a.191.191,0,0,1,.143-.228.191.191,0,0,1,.228.144l.225.986a.19.19,0,0,1-.143.228Zm40.968-5.821a.19.19,0,0,1-.207-.147l-.225-.986a.19.19,0,0,1,.144-.228.19.19,0,0,1,.228.143l.225.986a.191.191,0,0,1-.144.228Zm-41.418,3.849a.19.19,0,0,1-.207-.147l-.225-.986a.191.191,0,0,1,.144-.228.191.191,0,0,1,.228.143l.225.986a.191.191,0,0,1-.143.228Zm40.969-5.821a.19.19,0,0,1-.208-.147l-.225-.986a.191.191,0,0,1,.143-.228.191.191,0,0,1,.228.144l.225.986a.19.19,0,0,1-.144.228Zm-41.418,3.849a.19.19,0,0,1-.208-.147l-.225-.986a.191.191,0,0,1,.143-.228.19.19,0,0,1,.228.143l.225.986a.19.19,0,0,1-.143.228Zm40.968-5.821a.19.19,0,0,1-.207-.147l-.225-.986a.191.191,0,0,1,.143-.228.191.191,0,0,1,.228.143l.225.986a.191.191,0,0,1-.143.228Zm-41.417,3.849a.19.19,0,0,1-.208-.147l-.225-.986a.19.19,0,0,1,.143-.228.191.191,0,0,1,.228.144l.225.986a.191.191,0,0,1-.143.228Zm40.968-5.82a.19.19,0,0,1-.207-.147l-.225-.986a.191.191,0,0,1,.144-.228.19.19,0,0,1,.228.143l.225.986a.191.191,0,0,1-.144.228Zm-41.417,3.849a.19.19,0,0,1-.208-.147l-.225-.986a.19.19,0,0,1,.143-.228.191.191,0,0,1,.228.143l.225.986a.191.191,0,0,1-.144.228Zm40.968-5.821a.19.19,0,0,1-.207-.147l-.225-.986a.19.19,0,0,1,.143-.228.191.191,0,0,1,.228.143l.225.986a.19.19,0,0,1-.143.228Zm-41.383,3.844h-.023a.19.19,0,0,1-.189-.192,1.548,1.548,0,0,1,.42-1.045.19.19,0,0,1,.269-.01.19.19,0,0,1,.01.269,1.17,1.17,0,0,0-.318.788A.191.191,0,0,1,2068.107-1047.366Zm40.934-5.815a.19.19,0,0,1-.207-.147l-.225-.986a.191.191,0,0,1,.144-.228.191.191,0,0,1,.228.143l.225.986a.19.19,0,0,1-.143.228Zm-39.686,4.439a.19.19,0,0,1-.208-.147.19.19,0,0,1,.144-.228l.987-.222a.19.19,0,0,1,.228.144.19.19,0,0,1-.144.228l-.987.223Zm1.973-.445a.19.19,0,0,1-.208-.147.19.19,0,0,1,.144-.228l.986-.222a.191.191,0,0,1,.228.144.19.19,0,0,1-.144.228l-.987.223Zm1.973-.445a.191.191,0,0,1-.208-.147.19.19,0,0,1,.144-.228l.986-.222a.19.19,0,0,1,.228.144.19.19,0,0,1-.144.228l-.986.222Zm1.973-.445a.19.19,0,0,1-.208-.147.191.191,0,0,1,.144-.228l.986-.222a.191.191,0,0,1,.228.144.191.191,0,0,1-.144.228l-.986.222Zm1.973-.445a.191.191,0,0,1-.208-.147.191.191,0,0,1,.144-.228l.986-.222a.19.19,0,0,1,.228.144.191.191,0,0,1-.144.228l-.986.222Zm1.973-.445a.19.19,0,0,1-.208-.147.191.191,0,0,1,.144-.228l.987-.222a.19.19,0,0,1,.228.144.19.19,0,0,1-.144.228l-.987.222Zm1.973-.445a.19.19,0,0,1-.208-.147.19.19,0,0,1,.144-.228l.987-.222a.191.191,0,0,1,.228.144.191.191,0,0,1-.144.228l-.987.222Zm1.973-.445a.191.191,0,0,1-.208-.147.19.19,0,0,1,.144-.228l.986-.223a.19.19,0,0,1,.228.144.19.19,0,0,1-.144.228l-.986.223Zm1.973-.445a.191.191,0,0,1-.208-.147.191.191,0,0,1,.144-.228l.986-.223a.191.191,0,0,1,.228.144.19.19,0,0,1-.144.228l-.986.223Zm23.455-2.851a.19.19,0,0,1-.208-.147l-.225-.986a.193.193,0,0,1,.142-.23.188.188,0,0,1,.228.14l-.186.043.187-.039.225.987a.19.19,0,0,1-.143.228Zm-21.482,2.406a.19.19,0,0,1-.208-.147.19.19,0,0,1,.144-.228l.986-.222a.191.191,0,0,1,.228.144.191.191,0,0,1-.144.228l-.987.222Zm1.973-.445a.191.191,0,0,1-.208-.147.19.19,0,0,1,.144-.228l.987-.223a.19.19,0,0,1,.228.144.191.191,0,0,1-.144.228l-.987.222Zm1.973-.445a.191.191,0,0,1-.208-.147.19.19,0,0,1,.144-.228l.986-.223a.191.191,0,0,1,.228.144.19.19,0,0,1-.144.228l-.987.222Zm1.973-.445a.191.191,0,0,1-.208-.147.191.191,0,0,1,.144-.228l.986-.222a.19.19,0,0,1,.228.144.191.191,0,0,1-.144.228l-.986.223Zm1.973-.445a.19.19,0,0,1-.208-.147.19.19,0,0,1,.144-.228l.986-.222a.19.19,0,0,1,.228.144.19.19,0,0,1-.144.228l-.986.223Zm1.973-.445a.19.19,0,0,1-.208-.147.191.191,0,0,1,.144-.228l.986-.222a.19.19,0,0,1,.228.144.19.19,0,0,1-.144.228l-.986.222Zm1.973-.445a.19.19,0,0,1-.208-.147.191.191,0,0,1,.144-.228l.987-.222a.191.191,0,0,1,.228.144.191.191,0,0,1-.144.228l-.987.222Zm1.973-.445a.191.191,0,0,1-.208-.147.19.19,0,0,1,.144-.228l.986-.223a.19.19,0,0,1,.228.144.19.19,0,0,1-.144.228l-.986.223Zm1.973-.445a.191.191,0,0,1-.208-.147.19.19,0,0,1,.144-.228l.986-.222a.19.19,0,0,1,.228.144.19.19,0,0,1-.144.228l-.986.223Zm4.91-.648a.191.191,0,0,1-.128-.031,1.262,1.262,0,0,0-.836-.2.191.191,0,0,1-.21-.169.19.19,0,0,1,.167-.21h0a1.642,1.642,0,0,1,1.089.264.191.191,0,0,1,.053.264A.19.19,0,0,1,2107.8-1056.953Zm-2.938.2a.19.19,0,0,1-.208-.147.19.19,0,0,1,.144-.228l.986-.222a.19.19,0,0,1,.228.144.191.191,0,0,1-.144.228l-.987.223Z" transform="translate(-2064.232 1059.596)" fill="#fff"/>
              <path id="Path_14790" data-name="Path 14790" d="M2025.347-716.859l9.515-2.146a1.35,1.35,0,0,1,1.634.981l1.365,5.988a1.343,1.343,0,0,1-1.049,1.586L2027.3-708.3a1.351,1.351,0,0,1-1.634-.981l-1.365-5.988A1.343,1.343,0,0,1,2025.347-716.859Z" transform="translate(-2022.828 738.326)" fill="#003889" opacity="0.18" style="mix-blend-mode: multiply;isolation: isolate"/>
              <path id="Path_14791" data-name="Path 14791" d="M1997.163-740.933l9.515-2.146a1.351,1.351,0,0,1,1.634.98l1.365,5.988a1.343,1.343,0,0,1-1.05,1.586l-9.515,2.146a1.35,1.35,0,0,1-1.634-.98l-1.365-5.988A1.343,1.343,0,0,1,1997.163-740.933Z" transform="translate(-1996.082 761.173)" fill="#c4d7f2"/>
              <path id="Path_14792" data-name="Path 14792" d="M2115.471-679.529a2,2,0,0,1,1.566-2.367,2.059,2.059,0,0,1,2.145.8,1.883,1.883,0,0,1,.294.664,2,2,0,0,1-1.566,2.367,2.117,2.117,0,0,1-1.027-.021A1.956,1.956,0,0,1,2115.471-679.529Z" transform="translate(-2109.338 703.127)" fill="#3b82f4"/>
            </g>
          </g>
        </g>
      </g>
      <path id="Path_14795" data-name="Path 14795" d="M2550.835-561.169l.272.157a1.312,1.312,0,0,1,.37.316l1.167,1.447,2.3-2.037-1.194-1.166-.034-.037Z" transform="translate(-2491.558 584.416)" fill="#efa37d"/>
    </g>
    <path id="Path_14797" data-name="Path 14797" d="M1677.638,168.888l-54.919-6.845a2.315,2.315,0,0,0-2.583,2.011l-3.605,28.927a2.315,2.315,0,0,0,2.011,2.583l54.919,6.845a2.315,2.315,0,0,0,2.583-2.011l3.605-28.927A2.314,2.314,0,0,0,1677.638,168.888Z" transform="translate(-1529.321 -1614.195)" fill="#003889" opacity="0.18" style="mix-blend-mode: multiply;isolation: isolate"/>
    <g id="Group_12765" data-name="Group 12765" transform="translate(85.79 -1453.598)">
      <path id="Path_14798" data-name="Path 14798" d="M1646.313,172.134l-55.167-4.419a2.315,2.315,0,0,1-2.123-2.492l2.328-29.057a2.315,2.315,0,0,1,2.492-2.122l55.167,4.419a2.315,2.315,0,0,1,2.122,2.492l-2.328,29.057A2.315,2.315,0,0,1,1646.313,172.134Z" transform="translate(-1589.016 -134.036)" fill="#ecf3fe"/>
      <g id="Group_12763" data-name="Group 12763" transform="translate(49.683 7.628)">
        <path id="Path_14799" data-name="Path 14799" d="M2576.5,283.62l-4.017,2.48,7.588.608Z" transform="translate(-2572.013 -283.62)" fill="#97b2d3"/>
        <rect id="Rectangle_4221" data-name="Rectangle 4221" width="0.936" height="4.31" transform="translate(1.612 2.917) rotate(4.58)" fill="#97b2d3"/>
        <rect id="Rectangle_4222" data-name="Rectangle 4222" width="0.936" height="4.31" transform="matrix(0.997, 0.08, -0.08, 0.997, 3.771, 3.09)" fill="#97b2d3"/>
        <rect id="Rectangle_4223" data-name="Rectangle 4223" width="0.936" height="4.31" transform="matrix(0.997, 0.08, -0.08, 0.997, 5.93, 3.263)" fill="#97b2d3"/>
        <rect id="Rectangle_4224" data-name="Rectangle 4224" width="7.612" height="0.896" transform="translate(0.072 7.463) rotate(4.58)" fill="#97b2d3"/>
      </g>
      <g id="Group_12764" data-name="Group 12764" transform="translate(6.066 17.952)">
        <path id="Path_14800" data-name="Path 14800" d="M1708.212,487.31l.054-.677a1.89,1.89,0,0,0,1.166-.58l.558.045-.219,2.735.91.073-.048.6-2.663-.213.048-.6,1,.08.151-1.88A7.306,7.306,0,0,1,1708.212,487.31Z" transform="translate(-1707.971 -486.053)" fill="#97b2d3"/>
        <path id="Path_14801" data-name="Path 14801" d="M1767.714,493.419l-.108.65-2.465-.2.051-.638q.128-.082.42-.255a7.932,7.932,0,0,0,1.048-.714.872.872,0,0,0,.354-.547.429.429,0,0,0-.1-.324.444.444,0,0,0-.32-.15q-.482-.039-.609.584l-.667-.206a1.2,1.2,0,0,1,1.356-.984,1.228,1.228,0,0,1,.87.377.989.989,0,0,1,.253.754,1.111,1.111,0,0,1-.389.756,5.989,5.989,0,0,1-1.269.768Z" transform="translate(-1762.226 -490.397)" fill="#97b2d3"/>
        <path id="Path_14802" data-name="Path 14802" d="M1822.913,496.451l.347.028a.52.52,0,0,0,.412-.091.4.4,0,0,0,.127-.254.391.391,0,0,0-.094-.287.432.432,0,0,0-.316-.148.485.485,0,0,0-.537.381l-.673-.163a1.07,1.07,0,0,1,.459-.6,1.274,1.274,0,0,1,.818-.185,1.426,1.426,0,0,1,.815.3.749.749,0,0,1,.286.673.739.739,0,0,1-.622.69.768.768,0,0,1,.6.833.886.886,0,0,1-.4.685,1.429,1.429,0,0,1-.955.2,1.344,1.344,0,0,1-.881-.359,1.155,1.155,0,0,1-.344-.744l.706-.045a.555.555,0,0,0,.547.555.547.547,0,0,0,.377-.091.4.4,0,0,0,.167-.31.39.39,0,0,0-.1-.33.82.82,0,0,0-.484-.145l-.3-.024Z" transform="translate(-1816.146 -494.667)" fill="#97b2d3"/>
        <path id="Path_14803" data-name="Path 14803" d="M1881.289,499.924l-.16,2,.46.037-.046.575-.46-.037-.061.758-.768-.061.061-.758-1.437-.115.046-.575,1.486-1.9ZM1879.5,501.8l.893.072.089-1.112q0-.065.017-.156l.016-.134Z" transform="translate(-1870.161 -499.15)" fill="#97b2d3"/>
        <path id="Path_14804" data-name="Path 14804" d="M1925.037,510.268l-.488-.039,2.678-3.919.482.039Z" transform="translate(-1913.504 -505.277)" fill="#97b2d3"/>
        <path id="Path_14805" data-name="Path 14805" d="M1988.394,509.754l.054-.676a1.889,1.889,0,0,0,1.166-.58l.559.045-.219,2.735.91.073-.048.6-2.663-.213.048-.6,1,.08.151-1.88A7.3,7.3,0,0,1,1988.394,509.754Z" transform="translate(-1973.865 -507.352)" fill="#97b2d3"/>
        <path id="Path_14806" data-name="Path 14806" d="M2047.9,515.864l-.108.65-2.465-.2.051-.638q.128-.082.42-.255a7.917,7.917,0,0,0,1.048-.714.871.871,0,0,0,.354-.547.429.429,0,0,0-.1-.324.446.446,0,0,0-.32-.151q-.482-.038-.609.584l-.667-.206a1.2,1.2,0,0,1,1.356-.984,1.229,1.229,0,0,1,.87.377.991.991,0,0,1,.253.755,1.111,1.111,0,0,1-.389.756,6.021,6.021,0,0,1-1.27.768Z" transform="translate(-2028.119 -511.698)" fill="#97b2d3"/>
        <path id="Path_14807" data-name="Path 14807" d="M2103.1,518.9l.347.028a.52.52,0,0,0,.412-.091.4.4,0,0,0,.127-.254.392.392,0,0,0-.094-.287.433.433,0,0,0-.317-.148.485.485,0,0,0-.537.381l-.673-.163a1.07,1.07,0,0,1,.459-.6,1.273,1.273,0,0,1,.818-.185,1.426,1.426,0,0,1,.815.3.749.749,0,0,1,.287.673.739.739,0,0,1-.622.69.768.768,0,0,1,.6.833.885.885,0,0,1-.4.685,1.428,1.428,0,0,1-.955.2,1.342,1.342,0,0,1-.881-.359,1.153,1.153,0,0,1-.344-.744l.706-.045a.555.555,0,0,0,.547.555.547.547,0,0,0,.376-.091.4.4,0,0,0,.167-.31.39.39,0,0,0-.1-.33.819.819,0,0,0-.484-.145l-.3-.024Z" transform="translate(-2082.04 -515.967)" fill="#97b2d3"/>
        <path id="Path_14808" data-name="Path 14808" d="M2161.471,522.368l-.16,2,.46.037-.046.575-.46-.037-.061.758-.768-.062.061-.758-1.437-.115.046-.575,1.486-1.9Zm-1.785,1.873.893.071.089-1.112c0-.043.009-.1.017-.156l.015-.134Z" transform="translate(-2136.055 -520.45)" fill="#97b2d3"/>
        <path id="Path_14809" data-name="Path 14809" d="M2205.219,532.713l-.488-.039,2.678-3.919.482.039Z" transform="translate(-2179.398 -526.577)" fill="#97b2d3"/>
        <path id="Path_14810" data-name="Path 14810" d="M2318.615,536.371a.851.851,0,0,1,.544.858.906.906,0,0,1-.408.7,1.554,1.554,0,0,1-1.029.206,1.438,1.438,0,0,1-.908-.338.833.833,0,0,1-.269-.7.76.76,0,0,1,.646-.685.822.822,0,0,1-.417-.786.889.889,0,0,1,.371-.66,1.282,1.282,0,0,1,.907-.213,1.386,1.386,0,0,1,.844.315.755.755,0,0,1,.269.646A.726.726,0,0,1,2318.615,536.371Zm-.927.329q-.42.088-.447.425a.379.379,0,0,0,.134.334.744.744,0,0,0,.438.153.81.81,0,0,0,.414-.058.292.292,0,0,0,.178-.254.352.352,0,0,0-.092-.26A2,2,0,0,0,2317.689,536.7Zm.438-.584a.412.412,0,0,0,.366-.392.4.4,0,0,0-.114-.324.587.587,0,0,0-.386-.152.493.493,0,0,0-.335.074.322.322,0,0,0-.138.247.328.328,0,0,0,.1.261A1.74,1.74,0,0,0,2318.127,536.117Z" transform="translate(-2285.508 -532.265)" fill="#97b2d3"/>
        <path id="Path_14811" data-name="Path 14811" d="M2375.313,540.913a.851.851,0,0,1,.544.858.907.907,0,0,1-.407.7,1.555,1.555,0,0,1-1.029.206,1.44,1.44,0,0,1-.908-.338.837.837,0,0,1-.269-.7.761.761,0,0,1,.646-.685.824.824,0,0,1-.417-.786.891.891,0,0,1,.372-.66,1.282,1.282,0,0,1,.907-.213,1.385,1.385,0,0,1,.843.315.755.755,0,0,1,.27.646A.727.727,0,0,1,2375.313,540.913Zm-.927.329q-.42.088-.447.425a.378.378,0,0,0,.133.334.746.746,0,0,0,.438.153.809.809,0,0,0,.414-.058.291.291,0,0,0,.178-.254.352.352,0,0,0-.091-.26A2,2,0,0,0,2374.386,541.242Zm.439-.584a.412.412,0,0,0,.365-.392.4.4,0,0,0-.114-.324.586.586,0,0,0-.386-.152.492.492,0,0,0-.335.074.322.322,0,0,0-.139.247.329.329,0,0,0,.1.261A1.727,1.727,0,0,0,2374.825,540.659Z" transform="translate(-2339.314 -536.575)" fill="#97b2d3"/>
        <path id="Path_14812" data-name="Path 14812" d="M2432.01,545.455a.851.851,0,0,1,.544.858.907.907,0,0,1-.407.7,1.555,1.555,0,0,1-1.03.206,1.438,1.438,0,0,1-.908-.338.833.833,0,0,1-.269-.7.761.761,0,0,1,.646-.685.824.824,0,0,1-.417-.786.891.891,0,0,1,.371-.66,1.283,1.283,0,0,1,.908-.213,1.385,1.385,0,0,1,.843.315.754.754,0,0,1,.269.646A.726.726,0,0,1,2432.01,545.455Zm-.927.329q-.42.087-.447.424a.38.38,0,0,0,.133.334.748.748,0,0,0,.438.153.81.81,0,0,0,.414-.058.292.292,0,0,0,.178-.254.353.353,0,0,0-.092-.26A1.993,1.993,0,0,0,2431.083,545.784Zm.438-.584a.411.411,0,0,0,.365-.392.4.4,0,0,0-.114-.324.587.587,0,0,0-.386-.152.493.493,0,0,0-.335.074.319.319,0,0,0-.138.247.329.329,0,0,0,.095.261A1.739,1.739,0,0,0,2431.522,545.2Z" transform="translate(-2393.12 -540.886)" fill="#97b2d3"/>
        <path id="Path_14813" data-name="Path 14813" d="M2488.708,550a.851.851,0,0,1,.544.858.905.905,0,0,1-.408.7,1.553,1.553,0,0,1-1.029.206,1.441,1.441,0,0,1-.908-.338.835.835,0,0,1-.269-.7.761.761,0,0,1,.646-.685.824.824,0,0,1-.417-.786.89.89,0,0,1,.371-.66,1.283,1.283,0,0,1,.908-.213,1.387,1.387,0,0,1,.843.315.756.756,0,0,1,.269.646A.727.727,0,0,1,2488.708,550Zm-.927.329q-.42.087-.447.425a.377.377,0,0,0,.133.334.748.748,0,0,0,.438.153.81.81,0,0,0,.414-.058.292.292,0,0,0,.178-.254.352.352,0,0,0-.092-.26A2,2,0,0,0,2487.781,550.326Zm.439-.584a.412.412,0,0,0,.365-.392.4.4,0,0,0-.114-.324.588.588,0,0,0-.386-.152.494.494,0,0,0-.335.074.322.322,0,0,0-.138.247.328.328,0,0,0,.1.261A1.728,1.728,0,0,0,2488.22,549.742Z" transform="translate(-2446.927 -545.195)" fill="#97b2d3"/>
      </g>
      <rect id="Rectangle_4225" data-name="Rectangle 4225" width="22.862" height="2.364" transform="matrix(0.997, 0.08, -0.08, 0.997, 5.742, 24.305)" fill="#97b2d3"/>
      <rect id="Rectangle_4226" data-name="Rectangle 4226" width="34.042" height="2.364" transform="translate(5.424 28.271) rotate(4.58)" fill="#97b2d3"/>
    </g>
    <circle id="Ellipse_234" data-name="Ellipse 234" cx="6.099" cy="6.099" r="6.099" transform="translate(122.087 -1454.875) rotate(-4.797)" fill="#003889" opacity="0.22" style="mix-blend-mode: multiply;isolation: isolate"/>
    <g id="Group_12766" data-name="Group 12766" transform="translate(121.548 -1457.292)">
      <circle id="Ellipse_235" data-name="Ellipse 235" cx="6.099" cy="6.099" r="6.099" transform="translate(0 0)" fill="#33da82"/>
      <path id="Path_14814" data-name="Path 14814" d="M2336.785,134.074a.748.748,0,0,1-.514-.255l-1.7-1.945a.75.75,0,0,1,1.131-.987l1.2,1.38,4.128-3.6a.75.75,0,1,1,.987,1.131l-4.693,4.1A.749.749,0,0,1,2336.785,134.074Z" transform="translate(-2332.133 -125.067)" fill="#fff"/>
    </g>
    <ellipse id="Ellipse_236" data-name="Ellipse 236" cx="14.888" cy="14.837" rx="14.888" ry="14.837" transform="translate(42.241 -1451.352)" fill="#003889" opacity="0.18" style="mix-blend-mode: multiply;isolation: isolate"/>
    <path id="Path_14815" data-name="Path 14815" d="M644.517,499.282l-3.594-9.775,3.083-.637a1.4,1.4,0,0,0,1.149-1.857l-2.582-7.023a2,2,0,0,0-2.256-1.153l-3.083.637-3.594-9.775a2.772,2.772,0,0,0-3.12-1.595L579.234,478.7a1.936,1.936,0,0,0-1.59,2.568l10.878,29.583a2.772,2.772,0,0,0,3.12,1.595l51.285-10.593A1.936,1.936,0,0,0,644.517,499.282Z" transform="translate(-543.315 -1904.611)" fill="#003889" opacity="0.18" style="mix-blend-mode: multiply;isolation: isolate"/>
    <path id="Path_14816" data-name="Path 14816" d="M1368.49-597.623a.333.333,0,0,1-.166-.044.334.334,0,0,1-.124-.456,18.585,18.585,0,0,1,3.093-3.755,20.679,20.679,0,0,1,9.584-5.24.334.334,0,0,1,.4.25.334.334,0,0,1-.25.4,20.009,20.009,0,0,0-9.272,5.072,18.211,18.211,0,0,0-2.976,3.6A.334.334,0,0,1,1368.49-597.623Z" transform="translate(-1293.629 -884.267)" fill="#81a4c1"/>
    <path id="Path_14817" data-name="Path 14817" d="M909.054-194.125l-.038,0a.334.334,0,0,1-.295-.369,18.585,18.585,0,0,1,1.346-4.675,20.678,20.678,0,0,1,6.711-8.618.334.334,0,0,1,.467.07.334.334,0,0,1-.07.467,20.007,20.007,0,0,0-6.482,8.317,18.317,18.317,0,0,0-1.307,4.513A.334.334,0,0,1,909.054-194.125Z" transform="translate(-857.622 -1263.178)" fill="#81a4c1"/>
    <path id="Path_14818" data-name="Path 14818" d="M966.76-106.18a.334.334,0,0,1-.334-.328,18.586,18.586,0,0,1,.733-4.809,20.677,20.677,0,0,1,5.547-9.41.334.334,0,0,1,.472.01.334.334,0,0,1-.01.472,20.008,20.008,0,0,0-5.365,9.105,18.211,18.211,0,0,0-.709,4.62.334.334,0,0,1-.328.34Z" transform="translate(-912.386 -1345.774)" fill="#81a4c1"/>
    <path id="Path_14819" data-name="Path 14819" d="M1379.692-676.926a.333.333,0,0,1-.209-.073.334.334,0,0,1-.052-.469,18.574,18.574,0,0,1,3.633-3.235,20.678,20.678,0,0,1,10.275-3.706.334.334,0,0,1,.357.309.334.334,0,0,1-.309.358,20.006,20.006,0,0,0-9.921,3.574,18.31,18.31,0,0,0-3.514,3.119A.334.334,0,0,1,1379.692-676.926Z" transform="translate(-1304.26 -810.924)" fill="#81a4c1"/>
    <path id="Path_14820" data-name="Path 14820" d="M997.333-343.251a46.708,46.708,0,0,0-5.887-2.611c-8.9-3.255-17.039-3.39-18.173-.3l-1.592,4.332a2.623,2.623,0,0,0,.086,1.858c1.148,3.032,6.69,6.961,13.978,9.626,8.9,3.255,17.039,3.39,18.173.3l1.593-4.333C1006.373-336.726,1002.94-340.261,997.333-343.251Z" transform="translate(-917.247 -1129.805)" fill="#003889" opacity="0.18" style="mix-blend-mode: multiply;isolation: isolate"/>
    <g id="Group_12769" data-name="Group 12769" transform="translate(53.501 -1482.099)">
      <path id="Path_14821" data-name="Path 14821" d="M990.291-360.726l-1.208,4.455c-.86,3.175-8.978,3.751-18.13,1.286-7.493-2.018-13.357-5.447-14.766-8.368a2.623,2.623,0,0,1-.248-1.843l1.208-4.454,6.1,1.642q.82-.011,1.7.03a39.98,39.98,0,0,1,5.8.725q1.279.249,2.6.584c.237.06.477.123.716.187a44.821,44.821,0,0,1,7.551,2.745q.545.26,1.06.528c.531.274,1.035.556,1.511.841Z" transform="translate(-955.865 372.465)" fill="#e59d29"/>
      <g id="Group_12768" data-name="Group 12768" transform="translate(1.208 0)">
        <path id="Path_14822" data-name="Path 14822" d="M1012.769-413.118c-.861,3.175-8.978,3.751-18.13,1.286a46.588,46.588,0,0,1-5.924-2.016c-5.944-2.5-9.751-5.756-9.089-8.194.86-3.175,8.978-3.751,18.13-1.286a46.709,46.709,0,0,1,6.093,2.087C1009.7-418.752,1013.423-415.53,1012.769-413.118Z" transform="translate(-979.551 424.857)" fill="#f4b545"/>
        <g id="Group_12767" data-name="Group 12767" transform="translate(7.663 3.46)">
          <path id="Path_14823" data-name="Path 14823" d="M1147.753-351.208a1.73,1.73,0,0,0-.5-.972,4.425,4.425,0,0,0-.691-.591,11.76,11.76,0,0,0-3.739-1.633,9.879,9.879,0,0,0-3.6-.446,4.105,4.105,0,0,0-.79.182,4.081,4.081,0,0,0-1.527.95,2.2,2.2,0,0,1-1.013.618,2.716,2.716,0,0,1-1.239-.1,3.278,3.278,0,0,1-1.224-.583.793.793,0,0,1-.344-.866q.271-1,2.756-.57l-.011-.031-.487-1.5a9.986,9.986,0,0,0-3.83-.112,2.215,2.215,0,0,0-1.486.889,1.292,1.292,0,0,0-.153.356q-.335,1.232,1.21,2.32a12.235,12.235,0,0,0,3.892,1.721,11.973,11.973,0,0,0,2.789.438,4.919,4.919,0,0,0,1.954-.247,4.836,4.836,0,0,0,1.445-1.055,1.545,1.545,0,0,1,.942-.5,3.21,3.21,0,0,1,1.1.127q1.561.421,1.336,1.255-.213.782-2.335.469l.532.966.3.544q4.212.59,4.692-1.177A1.176,1.176,0,0,0,1147.753-351.208Z" transform="translate(-1129.808 357.004)" fill="#fff"/>
        </g>
      </g>
    </g>
    <g id="Group_12773" data-name="Group 12773" transform="translate(31.879 -1455.143)">
      <path id="Path_14824" data-name="Path 14824" d="M585.514,113.385l-2.594,1.655-3.789-10.083a1.8,1.8,0,0,0-2.788-.883l-43.149,27.532a2.989,2.989,0,0,0-1.174,3.411l11.466,30.515a1.8,1.8,0,0,0,2.788.883l43.149-27.532a2.989,2.989,0,0,0,1.175-3.411l-3.789-10.083,2.594-1.655a2.162,2.162,0,0,0,.849-2.466l-2.722-7.244A1.3,1.3,0,0,0,585.514,113.385Z" transform="translate(-531.862 -103.729)" fill="#1061b2"/>
      <g id="Group_12771" data-name="Group 12771" transform="translate(12.936 0)">
        <ellipse id="Ellipse_237" data-name="Ellipse 237" cx="14.888" cy="14.837" rx="14.888" ry="14.837" fill="#f4b545"/>
        <g id="Group_12770" data-name="Group 12770" transform="translate(8.09 6.296)">
          <path id="Path_14825" data-name="Path 14825" d="M957.307,231.076l-3.314,1.1a2.717,2.717,0,0,0-2.832-1.967q-2.309,0-2.309,1.493a1.34,1.34,0,0,0,.432,1.008,4.345,4.345,0,0,0,1.953.717,19.414,19.414,0,0,1,3.723,1.033,4.759,4.759,0,0,1,1.989,1.681,4.423,4.423,0,0,1,.809,2.592,5.169,5.169,0,0,1-1.734,3.885,7.23,7.23,0,0,1-5.143,1.639,7.851,7.851,0,0,1-4.352-1.159,5.508,5.508,0,0,1-2.367-3.442l3.606-.813q.608,2.319,3.38,2.319a3.2,3.2,0,0,0,1.994-.516,1.529,1.529,0,0,0,.657-1.232,1.283,1.283,0,0,0-.6-1.129,7.209,7.209,0,0,0-2.3-.753,10.493,10.493,0,0,1-4.526-1.791,4.092,4.092,0,0,1-1.351-3.32,4.918,4.918,0,0,1,1.613-3.727,6.128,6.128,0,0,1,4.376-1.517Q955.907,227.179,957.307,231.076Z" transform="translate(-944.161 -227.179)" fill="#fff"/>
        </g>
      </g>
      <g id="Group_12772" data-name="Group 12772" transform="translate(0.227 11.255)">
        <path id="Path_14826" data-name="Path 14826" d="M597.8,359.388,550.886,376.9a2.3,2.3,0,0,1-2.961-1.343l-11.467-30.515a2.29,2.29,0,0,1,1.347-2.951l46.915-17.509a2.3,2.3,0,0,1,2.961,1.343l11.466,30.515A2.29,2.29,0,0,1,597.8,359.388Z" transform="translate(-536.312 -324.433)" fill="#5b83f9"/>
        <path id="Path_14827" data-name="Path 14827" d="M603.127,424.645a1.977,1.977,0,0,1-.9-.22.235.235,0,1,1,.216-.418,1.508,1.508,0,0,0,1.059.12.235.235,0,0,1,.117.455A1.958,1.958,0,0,1,603.127,424.645Zm1.615-.486a.235.235,0,0,1-.082-.455l1.182-.441a.235.235,0,1,1,.164.44l-1.182.441A.235.235,0,0,1,604.742,424.159Zm-3.232-.627a.235.235,0,0,1-.22-.153l.22-.082-.221.08-.445-1.184a.235.235,0,1,1,.44-.165l.446,1.187a.235.235,0,0,1-.22.317Zm5.595-.255a.235.235,0,0,1-.082-.455l1.182-.441a.235.235,0,0,1,.164.44l-1.182.441A.235.235,0,0,1,607.106,423.277Zm2.363-.882a.235.235,0,0,1-.082-.455l1.182-.441a.235.235,0,0,1,.164.44l-1.182.441A.237.237,0,0,1,609.469,422.4Zm2.363-.882a.235.235,0,0,1-.082-.455l1.182-.441a.235.235,0,0,1,.164.44l-1.182.441A.236.236,0,0,1,611.833,421.513Zm-11.211-.348a.235.235,0,0,1-.22-.152l-.444-1.181a.235.235,0,0,1,.44-.165l.444,1.181a.235.235,0,0,1-.22.318Zm13.575-.534a.235.235,0,0,1-.082-.455l1.182-.441a.235.235,0,0,1,.164.44l-1.182.441A.234.234,0,0,1,614.2,420.631Zm2.364-.882a.235.235,0,0,1-.082-.455l1.182-.441a.235.235,0,1,1,.164.44l-1.182.441A.234.234,0,0,1,616.559,419.749Zm2.363-.882a.235.235,0,0,1-.082-.455l1.182-.441a.235.235,0,0,1,.164.44l-1.182.441A.235.235,0,0,1,618.923,418.867Zm-19.189-.063a.235.235,0,0,1-.22-.152l-.444-1.181a.235.235,0,0,1,.44-.165l.444,1.181a.235.235,0,0,1-.22.318Zm21.552-.819a.235.235,0,0,1-.082-.455l1.182-.441a.235.235,0,0,1,.164.44l-1.182.441A.234.234,0,0,1,621.286,417.985Zm2.363-.882a.235.235,0,0,1-.082-.455l1.182-.441a.235.235,0,1,1,.164.44l-1.182.441A.236.236,0,0,1,623.65,417.1Zm-24.8-.66a.235.235,0,0,1-.22-.152l-.444-1.181a.235.235,0,1,1,.44-.165l.444,1.181a.235.235,0,0,1-.22.318Zm27.167-.222a.235.235,0,0,1-.082-.455l1.182-.441a.235.235,0,0,1,.164.44l-1.182.441A.235.235,0,0,1,626.013,416.221Zm2.363-.882a.235.235,0,0,1-.082-.455l1.182-.441a.235.235,0,1,1,.164.44l-1.182.441A.235.235,0,0,1,628.377,415.339Zm2.363-.882a.235.235,0,0,1-.082-.455l1.182-.441A.235.235,0,1,1,632,414l-1.182.441A.235.235,0,0,1,630.74,414.457Zm-32.781-.376a.235.235,0,0,1-.22-.152l-.444-1.181a.235.235,0,0,1,.44-.165l.444,1.181a.235.235,0,0,1-.22.318Zm35.144-.506a.235.235,0,0,1-.082-.455l1.182-.441a.235.235,0,1,1,.164.44l-1.182.441A.234.234,0,0,1,633.1,413.575Zm2.363-.882a.235.235,0,0,1-.082-.455l1.182-.441a.235.235,0,0,1,.164.44l-1.182.441A.235.235,0,0,1,635.467,412.693Zm2.363-.882a.235.235,0,0,1-.082-.455l1.182-.441a.235.235,0,0,1,.164.44l-1.182.441A.236.236,0,0,1,637.83,411.811Zm-40.759-.091a.235.235,0,0,1-.22-.152l-.444-1.181a.235.235,0,1,1,.44-.165l.444,1.181a.235.235,0,0,1-.22.318Zm43.122-.791a.235.235,0,0,1-.082-.455l1.182-.441a.235.235,0,1,1,.164.44l-1.182.441A.234.234,0,0,1,640.194,410.929Zm2.363-.882a.235.235,0,0,1-.082-.455l1.182-.441a.235.235,0,0,1,.164.44l-1.182.441A.234.234,0,0,1,642.557,410.047Zm-46.373-.689a.235.235,0,0,1-.22-.152l-.444-1.181a.235.235,0,1,1,.44-.165l.444,1.181a.235.235,0,0,1-.22.318Zm48.736-.194a.235.235,0,0,1-.082-.455l1.182-.441a.235.235,0,1,1,.164.44L645,409.15A.235.235,0,0,1,644.921,409.165Zm2.362-.885a.235.235,0,0,1-.094-.45,1.486,1.486,0,0,0,.758-.748.235.235,0,0,1,.428.194,1.956,1.956,0,0,1-1,.984A.234.234,0,0,1,647.283,408.28ZM595.3,407a.235.235,0,0,1-.22-.152l-.444-1.181a.235.235,0,0,1,.44-.165l.444,1.181a.235.235,0,0,1-.22.318Zm52.937-.813a.235.235,0,0,1-.224-.164c-.008-.024-.016-.048-.025-.072l-.413-1.1a.235.235,0,0,1,.44-.165l.413,1.1q.018.047.033.095a.235.235,0,0,1-.224.306Zm-53.824-1.548a.235.235,0,0,1-.22-.152l-.444-1.181a.235.235,0,1,1,.44-.165l.444,1.181a.235.235,0,0,1-.22.318Zm52.939-.814a.235.235,0,0,1-.22-.152l-.444-1.181a.235.235,0,0,1,.44-.165l.444,1.181a.235.235,0,0,1-.22.318Zm-53.826-1.547a.235.235,0,0,1-.22-.152l-.444-1.181a.235.235,0,1,1,.44-.165l.444,1.181a.235.235,0,0,1-.22.318Zm52.939-.814a.235.235,0,0,1-.22-.152l-.444-1.181a.235.235,0,1,1,.44-.165l.444,1.181a.235.235,0,0,1-.22.318Zm-53.826-1.547a.235.235,0,0,1-.22-.152l-.444-1.181a.235.235,0,0,1,.44-.165l.444,1.181a.235.235,0,0,1-.22.318Zm52.939-.814a.235.235,0,0,1-.22-.152l-.444-1.181a.235.235,0,0,1,.44-.165l.444,1.181a.235.235,0,0,1-.22.318Zm-53.826-1.547a.235.235,0,0,1-.22-.152l-.412-1.1q-.018-.049-.034-.1a.235.235,0,1,1,.448-.142q.012.037.026.074l.412,1.1a.235.235,0,0,1-.22.318Zm52.939-.814a.235.235,0,0,1-.22-.152l-.444-1.181a.235.235,0,0,1,.44-.165l.444,1.181a.235.235,0,0,1-.22.318Zm-53.305-1.6a.235.235,0,0,1-.214-.333,1.955,1.955,0,0,1,1-.982.235.235,0,0,1,.188.431,1.486,1.486,0,0,0-.759.747A.235.235,0,0,1,591.381,395.139Zm52.418-.763a.235.235,0,0,1-.22-.152l-.444-1.181a.235.235,0,0,1,.44-.165l.444,1.181a.235.235,0,0,1-.22.318Zm-50.358-.545a.235.235,0,0,1-.082-.455l1.182-.441a.235.235,0,1,1,.164.44l-1.182.441A.236.236,0,0,1,593.441,393.831Zm2.363-.882a.235.235,0,0,1-.082-.455l1.182-.441a.235.235,0,1,1,.164.44l-1.182.441A.234.234,0,0,1,595.8,392.949Zm2.363-.882a.235.235,0,0,1-.082-.455l1.182-.441a.235.235,0,1,1,.164.44l-1.182.441A.235.235,0,0,1,598.168,392.067Zm44.744-.053a.235.235,0,0,1-.22-.152l-.444-1.181a.235.235,0,0,1,.44-.165l.444,1.181a.235.235,0,0,1-.22.318Zm-42.38-.829a.235.235,0,0,1-.082-.455l1.182-.441a.235.235,0,0,1,.164.44l-1.182.441A.235.235,0,0,1,600.532,391.185Zm2.363-.882a.235.235,0,0,1-.082-.455l1.182-.441a.235.235,0,0,1,.164.44l-1.182.441A.235.235,0,0,1,602.9,390.3Zm39.129-.65a.235.235,0,0,1-.22-.152l-.444-1.181a.235.235,0,1,1,.44-.165l.444,1.181a.235.235,0,0,1-.22.318Zm-36.766-.232a.235.235,0,0,1-.082-.455l1.182-.441a.235.235,0,0,1,.164.44l-1.182.441A.234.234,0,0,1,605.259,389.421Zm2.363-.882a.235.235,0,0,1-.082-.455l1.182-.441a.235.235,0,1,1,.164.44l-1.182.441A.235.235,0,0,1,607.622,388.539Zm2.363-.882a.235.235,0,0,1-.082-.455l1.182-.441a.235.235,0,0,1,.164.44l-1.182.441A.235.235,0,0,1,609.985,387.657Zm31.152-.366a.235.235,0,0,1-.22-.152l-.444-1.181a.235.235,0,0,1,.44-.165l.444,1.181a.235.235,0,0,1-.22.318Zm-28.788-.516a.235.235,0,0,1-.082-.455l1.182-.441a.235.235,0,0,1,.164.44l-1.182.441A.236.236,0,0,1,612.349,386.775Zm2.363-.882a.235.235,0,0,1-.082-.455l1.182-.441a.235.235,0,1,1,.164.44l-1.182.441A.236.236,0,0,1,614.712,385.892Zm2.363-.882a.235.235,0,0,1-.082-.455l1.182-.441a.235.235,0,0,1,.164.44l-1.182.441A.235.235,0,0,1,617.076,385.01Zm23.174-.081a.235.235,0,0,1-.22-.152l-.444-1.181a.235.235,0,1,1,.44-.165l.444,1.181a.235.235,0,0,1-.22.318Zm-20.811-.8a.235.235,0,0,1-.082-.455l1.182-.441a.235.235,0,0,1,.164.44l-1.182.441A.237.237,0,0,1,619.439,384.128Zm2.364-.882a.235.235,0,0,1-.082-.455l1.182-.441a.235.235,0,0,1,.164.44l-1.182.441A.234.234,0,0,1,621.8,383.246Zm17.56-.678a.235.235,0,0,1-.22-.152l-.444-1.181a.235.235,0,0,1,.44-.165l.444,1.181a.235.235,0,0,1-.22.318Zm-15.2-.2a.235.235,0,0,1-.082-.455l1.182-.441a.235.235,0,0,1,.164.44l-1.182.441A.234.234,0,0,1,624.166,382.364Zm2.363-.882a.235.235,0,0,1-.082-.455l1.182-.441a.235.235,0,1,1,.164.44l-1.182.441A.235.235,0,0,1,626.53,381.482Zm2.363-.882a.235.235,0,0,1-.082-.455l1.182-.441a.235.235,0,0,1,.164.44l-1.182.441A.235.235,0,0,1,628.893,380.6Zm9.582-.394a.235.235,0,0,1-.22-.152l-.443-1.178a.235.235,0,0,1,.439-.169l0,.007.442,1.175a.235.235,0,0,1-.22.318Zm-7.219-.488a.235.235,0,0,1-.082-.455l1.182-.441a.235.235,0,1,1,.164.44l-1.182.441A.236.236,0,0,1,631.256,379.718Zm2.364-.882a.235.235,0,0,1-.082-.455l1.182-.441a.235.235,0,0,1,.164.44l-1.182.441A.236.236,0,0,1,633.62,378.836Zm3.592-.732a.234.234,0,0,1-.108-.026,1.508,1.508,0,0,0-1.059-.122.235.235,0,1,1-.116-.455,1.983,1.983,0,0,1,1.392.16.235.235,0,0,1-.108.444Z" transform="translate(-588.279 -374.738)" fill="#fff"/>
        <path id="Path_14828" data-name="Path 14828" d="M1429.155,571.022l-11.045,4.122a1.665,1.665,0,0,1-2.141-.971l-2.722-7.244a1.656,1.656,0,0,1,.974-2.133l11.045-4.122a1.665,1.665,0,0,1,2.141.971l2.722,7.244A1.656,1.656,0,0,1,1429.155,571.022Z" transform="translate(-1368.426 -548.526)" fill="#003889" opacity="0.18" style="mix-blend-mode: multiply;isolation: isolate"/>
        <path id="Path_14829" data-name="Path 14829" d="M1451.49,539.1l-11.045,4.122a1.665,1.665,0,0,1-2.141-.971l-2.722-7.244a1.656,1.656,0,0,1,.974-2.134l11.045-4.122a1.665,1.665,0,0,1,2.141.971l2.722,7.244A1.656,1.656,0,0,1,1451.49,539.1Z" transform="translate(-1389.622 -518.234)" fill="#fff"/>
        <path id="Path_14830" data-name="Path 14830" d="M1529.091,636.92a2.485,2.485,0,1,1-1.957-1.579A2.471,2.471,0,0,1,1529.091,636.92Z" transform="translate(-1473.9 -619.46)" fill="#3b82f4"/>
      </g>
    </g>
    <circle id="Ellipse_238" data-name="Ellipse 238" cx="4.224" cy="4.224" r="4.224" transform="translate(53.239 -1511.478)" fill="#fff"/>
    <circle id="Ellipse_239" data-name="Ellipse 239" cx="3.174" cy="3.174" r="3.174" transform="translate(21.192 -1494.234)" fill="#c4d7f2"/>
    <circle id="Ellipse_240" data-name="Ellipse 240" cx="5.224" cy="5.224" r="5.224" transform="translate(160.138 -1532.265)" fill="#c4d7f2"/>
    <g id="Group_12776" data-name="Group 12776" transform="translate(75.957 -1399.04)">
      <path id="Path_14831" data-name="Path 14831" d="M1417.273,1262.334l-.1-2.491-3.4.135a23.923,23.923,0,0,0-11.67.463l-3.4.135.1,2.491c.07,1.775,4.262,3.05,9.361,2.848S1417.344,1264.109,1417.273,1262.334Z" transform="translate(-1398.579 -1256.63)" fill="#9fbad6"/>
      <g id="Group_12775" data-name="Group 12775" transform="translate(0 0)">
        <ellipse id="Ellipse_241" data-name="Ellipse 241" cx="9.241" cy="3.216" rx="9.241" ry="3.216" transform="translate(0 0.732) rotate(-2.271)" fill="#c4d7f2"/>
        <g id="Group_12774" data-name="Group 12774" transform="translate(4.383 2.297)">
          <path id="Path_14832" data-name="Path 14832" d="M1489.9,1251.36l-.67-.644q1.14-.181,1.123-.618-.018-.467-.889-.432a1.726,1.726,0,0,0-.584.111.83.83,0,0,0-.4.411,2.02,2.02,0,0,1-1.536,1.217,6.433,6.433,0,0,1-1.5.223,6.578,6.578,0,0,1-2.277-.261q-.969-.313-1-1-.021-.517.641-.906a5.369,5.369,0,0,1,1.987-.558l.5.71q-1.347.177-1.324.737a.43.43,0,0,0,.317.391,1.775,1.775,0,0,0,.723.1,1.461,1.461,0,0,0,.653-.147,1.181,1.181,0,0,0,.42-.482,2.148,2.148,0,0,1,1.008-.956,5.306,5.306,0,0,1,1.924-.35,6.323,6.323,0,0,1,2.184.24q.9.291.919.849Q1492.156,1250.987,1489.9,1251.36Z" transform="translate(-1482.162 -1248.901)" fill="#fff"/>
        </g>
      </g>
    </g>
    <g id="Group_12779" data-name="Group 12779" transform="translate(90.687 -1402.121)">
      <path id="Path_14833" data-name="Path 14833" d="M1705.86,1211.571l.658-2.4-3.281-.9a23.925,23.925,0,0,0-11.265-3.084l-3.281-.9-.658,2.4c-.469,1.713,3.141,4.195,8.064,5.542S1705.39,1213.285,1705.86,1211.571Z" transform="translate(-1687.842 -1201.185)" fill="#9fbad6"/>
      <g id="Group_12778" data-name="Group 12778" transform="translate(0 0)">
        <ellipse id="Ellipse_242" data-name="Ellipse 242" cx="3.216" cy="9.241" rx="3.216" ry="9.241" transform="translate(0 6.205) rotate(-74.69)" fill="#c4d7f2"/>
        <g id="Group_12777" data-name="Group 12777" transform="translate(4.93 3.47)">
          <path id="Path_14834" data-name="Path 14834" d="M1788.828,1215.517l-.444-.817q1.142.172,1.257-.25.124-.451-.717-.68a1.737,1.737,0,0,0-.59-.071.832.832,0,0,0-.508.271,2.018,2.018,0,0,1-1.832.7,6.431,6.431,0,0,1-1.5-.241,6.581,6.581,0,0,1-2.092-.936q-.829-.591-.647-1.256.137-.5.885-.67a5.365,5.365,0,0,1,2.062.068l.265.829q-1.337-.238-1.485.3a.429.429,0,0,0,.184.468,1.769,1.769,0,0,0,.658.318,1.462,1.462,0,0,0,.667.058,1.181,1.181,0,0,0,.546-.333,2.145,2.145,0,0,1,1.249-.607,5.3,5.3,0,0,1,1.939.248,6.321,6.321,0,0,1,2.01.888q.767.548.619,1.087Q1791.1,1215.844,1788.828,1215.517Z" transform="translate(-1781.723 -1211.491)" fill="#fff"/>
        </g>
      </g>
    </g>
    <g id="Group_12782" data-name="Group 12782" transform="translate(69.05 -1397.256)">
      <path id="Path_14835" data-name="Path 14835" d="M1290.874,1303.317l-.454-2.451-3.345.619a23.924,23.924,0,0,0-11.484,2.126l-3.345.619.454,2.451c.323,1.747,4.654,2.41,9.672,1.481S1291.2,1305.064,1290.874,1303.317Z" transform="translate(-1271.661 -1297.703)" fill="#9fbad6"/>
      <g id="Group_12781" data-name="Group 12781" transform="translate(0 0)">
        <ellipse id="Ellipse_243" data-name="Ellipse 243" cx="9.241" cy="3.216" rx="9.241" ry="3.216" transform="translate(0 3.364) rotate(-10.488)" fill="#c4d7f2"/>
        <g id="Group_12780" data-name="Group 12780" transform="translate(4.759 3.175)">
          <path id="Path_14836" data-name="Path 14836" d="M1361.9,1303.552l-.755-.542q1.1-.342,1.024-.772-.085-.459-.941-.3a1.729,1.729,0,0,0-.562.193.831.831,0,0,0-.339.464,2.021,2.021,0,0,1-1.346,1.424,6.435,6.435,0,0,1-1.456.436,6.579,6.579,0,0,1-2.291.067q-1-.171-1.129-.849a1.043,1.043,0,0,1,.5-.989,5.366,5.366,0,0,1,1.886-.836l.6.631q-1.308.367-1.205.918a.43.43,0,0,0,.369.342,1.769,1.769,0,0,0,.731,0,1.457,1.457,0,0,0,.625-.239,1.178,1.178,0,0,0,.347-.537,2.147,2.147,0,0,1,.86-1.09,5.3,5.3,0,0,1,1.854-.621,6.321,6.321,0,0,1,2.2-.075q.929.159,1.031.709Q1364.081,1302.86,1361.9,1303.552Z" transform="translate(-1354.088 -1301.113)" fill="#fff"/>
        </g>
      </g>
    </g>
  </g>
</svg>
