<svg xmlns="http://www.w3.org/2000/svg" width="154.101" height="154.101" viewBox="0 0 154.101 154.101">
  <g id="svgexport-10_22_" data-name="svgexport-10 (22)" opacity="0.8">
    <g id="Page-1" transform="translate(0)">
      <g id="_048---Security" data-name="048---Security">
        <path id="Shape" d="M90.335,140.816A13.285,13.285,0,0,1,77.05,154.1H13.285A13.285,13.285,0,0,1,0,140.816V13.285A13.285,13.285,0,0,1,13.285,0H77.05A13.285,13.285,0,0,1,90.335,13.285Z" transform="translate(0)" fill="#8ba7fa"/>
        <path id="Shape-2" data-name="Shape" d="M90.335,13.285V18.6S4.942,18.6.213,143.154A13.664,13.664,0,0,1,0,140.816V13.285A13.285,13.285,0,0,1,13.285,0H77.05A13.285,13.285,0,0,1,90.335,13.285Z" transform="translate(0)" fill="#5b83f9"/>
        <path id="Shape-3" data-name="Shape" d="M64.452,0l-6.5,13A5.314,5.314,0,0,1,53.2,15.941H17.255A5.314,5.314,0,0,1,12.5,13L6,0Z" transform="translate(9.941)" fill="#3f5c6c"/>
        <path id="Shape-4" data-name="Shape" d="M53.167,58.314H10.657a2.657,2.657,0,1,1,0-5.314H53.167a2.657,2.657,0,1,1,0,5.314Z" transform="translate(13.255 87.816)" fill="#3f5c6c"/>
        <path id="Shape-5" data-name="Shape" d="M39.881,42.883,9.4,59.143a2.657,2.657,0,0,0,0,4.676L39.881,80.08v18.6a13.285,13.285,0,0,0,13.285,13.285h74.393a13.285,13.285,0,0,0,13.285-13.285V24.285A13.285,13.285,0,0,0,127.559,11H53.166A13.285,13.285,0,0,0,39.881,24.285Z" transform="translate(13.257 18.226)" fill="#ffecb6"/>
        <path id="Shape-6" data-name="Shape" d="M58.945,17.628A41.926,41.926,0,0,0,83.96,27.458a2.676,2.676,0,0,1,2.492,2.657v10.8c0,27.818-21.021,41.27-28.033,44.875a2.575,2.575,0,0,1-2.391,0C49.021,82.183,28,68.731,28,40.913V30.121a2.673,2.673,0,0,1,2.492-2.657,41.926,41.926,0,0,0,25.015-9.831,2.657,2.657,0,0,1,3.438-.005Z" transform="translate(46.393 28.167)" fill="#5cddac"/>
        <path id="Shape-7" data-name="Shape" d="M43.607,49.907a2.657,2.657,0,0,1-1.878-.778l-7.971-7.971A2.657,2.657,0,0,1,37.515,37.4l6.215,6.215,19.4-16.964a2.657,2.657,0,0,1,3.5,4L45.366,49.25a2.657,2.657,0,0,1-1.759.656Z" transform="translate(54.698 43.085)" fill="#fff"/>
        <path id="Shape-8" data-name="Shape" d="M58.883,90.39a5.234,5.234,0,0,1-2.4-.579C49.56,86.248,27,72.323,27,42.566V31.773a5.314,5.314,0,0,1,4.939-5.3,39.306,39.306,0,0,0,23.527-9.238,5.343,5.343,0,0,1,6.834,0,39.322,39.322,0,0,0,23.53,9.238,5.314,5.314,0,0,1,4.937,5.3V42.566c0,29.757-22.56,43.682-29.476,47.24a5.261,5.261,0,0,1-2.407.585Zm0-69.08h-.019a44.7,44.7,0,0,1-26.5,10.452l-.05,10.8c0,26.755,20.352,39.306,26.59,42.511,6.2-3.2,26.548-15.755,26.548-42.511V31.773A44.726,44.726,0,0,1,58.9,21.31Z" transform="translate(44.736 26.514)" fill="#28df99"/>
      </g>
    </g>
  </g>
</svg>
