<svg xmlns="http://www.w3.org/2000/svg" xmlns:xlink="http://www.w3.org/1999/xlink" width="376" height="357" viewBox="0 0 376 357">
  <defs>
    <clipPath id="clip-path">
      <rect id="Rectangle_4228" data-name="Rectangle 4228" width="376" height="357" transform="translate(0 455)" fill="#fff" stroke="#707070" stroke-width="1"/>
    </clipPath>
  </defs>
  <g id="splash_background" transform="translate(0 -455)" clip-path="url(#clip-path)">
    <g id="Group_496" data-name="Group 496" transform="translate(21.266 476.251)" opacity="0.601">
      <path id="Path_336" data-name="Path 336" d="M239.006,368.632a70.149,70.149,0,0,0,2.474-21.483c-.13-2.97.57-4.056,3.813-4.711,15.446-3.121,31.167-4.985,46.236-9.881a117.326,117.326,0,0,0,21.461-9.037c26.535-14.919,37.606-39.668,31.167-69.44-3.17-14.655-8.468-28.149-20.737-37.662-16.046-12.441-34.256-12.594-52.8-7.93-21.129,5.314-37.275,17.334-47.156,39.024-.162-4.982-.373-9.435-.777-13.653-.072-.512-.137-1.134-.194-1.884-.057-.51-.116-1.017-.181-1.521-1.247-7.364-8.018-7.418-11.519-6.927-.693.139-1.846.279-2.539.418-.006,0-.477.005-.477.005h0c-6.747,1.541-13.734,2.384-22.514,4.15h.134c-11.636,1.927-11.775,12.066-11.182,16.592a16.127,16.127,0,0,0,.5,2.683h.025c4.316,22.166,8.632,44.455,12.812,66.756,2.62,13.982,6.124,27.828,5.094,42.266Q191.5,372.43,177.4,376.81c-10.582,3.26-19.328.581-25.908-7.983a46.631,46.631,0,0,1-7.045-14.265c-5.515-16.96-6.6-34.355-5.57-51.9,0-.077,0-.145.006-.226.331-8.443-8.1-6.39-8.1-6.39l0-.014c-10.114,3.945-20.273,7.774-30.422,11.633C91.7,311,90.355,319.943,90.2,321.31c-.771,22.086,2.55,43.483,12.332,63.673,8.45,17.438,21.913,29.208,41.562,32.2,25.21,3.847,48.764-1.346,70.442-14.679C227.311,394.65,235.117,382.965,239.006,368.632Zm-1.76-73.836c2.333-14.423,7.868-27.394,18.539-37.785.137-.133.269-.272.413-.4,7.93-6.772,16.82-11.406,27.16-6.915,9.81,4.262,10.511,14.03,11.368,21.541.175,13.281-4.85,20.359-16.8,24.623-10.416,3.716-21.457,4.763-32.244,6.849C235.99,304.589,235.7,304.332,237.246,294.8Z" transform="translate(-90.093 -145.461)" fill="#416ff4"/>
      <path id="Path_337" data-name="Path 337" d="M724.759,368.2c-.026-.119-.05-.238-.075-.356l-.016-.068v0q-1.511-7.1-2.933-14.219c-.008-.032-.015-.056-.022-.089-1.951-9.518-12.157-7.989-15.552-7.2-.285.074-.572.145-.858.219-.156.043-.247.072-.247.072l0-.01c-7.135,1.806-14.359,3.249-21.644,4.371-10.388,1.6-20.8,2.822-31.063-.8-7.567-2.674-11.729-8.159-12.734-16.01-1.009-7.879,1.633-14.146,8.46-18.568a47.507,47.507,0,0,1,16.319-6.566c13.558-2.821,27.306-4.306,41.052-5.771,18.089-2.054,18.441-17.926,18.441-17.926-.372-15.429-.791-30.863-4.206-46.008-5.792-25.7-19.392-44.6-46.232-50.966-24.994-5.931-49.53-2.287-73.9,3.441-10.023,3.653-7.6,15.955-7.6,15.955l-.031-.03q.763,5.887,1.516,11.774v0s2.3,12.3,13.438,10.092l.056-.01a206.6,206.6,0,0,1,22.825-3.848c26.01-3.09,42.033,10.482,43.452,36.209.283,5.162-1.422,6.493-5.943,7.041a122,122,0,0,0-37.674,10.8c-20.042,9.481-41.37,28.076-39.228,59.958,1.574,23.438,14.623,41.577,36.674,48.7a86.749,86.749,0,0,0,24.664,3.972c21.23.516,41.823-3.279,62.233-8.366C726.523,381,725.19,370.434,724.759,368.2Z" transform="translate(-328.882 -135.722)" fill="#416ff4"/>
      <path id="Path_338" data-name="Path 338" d="M441.113,606.394c-18.628-10.255-38.716-13.633-59.613-9.341-28.566,5.865-46.88,28.339-49.317,60.036-2.266,29.479,11.839,45.886,34.8,55.2a82.164,82.164,0,0,0,16.256,5.008c16.441,2.925,32.923,5.623,49.4,8.363h0l.01,0,1.929.321c5.426.7,20.561,1.109,23.146-15.322.655-4.061,1.3-8.122,1.875-12.193,2.168-15.216,5.529-30.269,6.375-45.662a58.59,58.59,0,0,0-2.207-16.922C460.383,622.829,452.75,612.8,441.113,606.394Zm-59,61.065c-2.671-10.014-1.424-19.726,5.567-27.918,4.911-5.757,12.605-7.448,19.818-4.808s9.89,8.407,10.5,15.519c.129,1.512.019,3.043.019,4.566-.041,6.053-1.177,11.963-2.211,17.886-.015.088-.032.162-.048.255-1.7,11.016-12.237,9.506-14.914,8.936C392.449,679.935,384.587,676.716,382.117,667.459Z" transform="translate(-205.568 -331.464)" fill="#416ff4"/>
      <path id="Path_339" data-name="Path 339" d="M338.5,133.132c2.576,7.661,7.156,13.8,15.7,14.73,9.171,1,16.946-2.208,21.713-10.6,1.443-2.539,2.292-2.864,5.022-1.367,14.931,8.185,35.086-3.809,35.2-22.376a34.305,34.305,0,0,0-1.863-8.418c-1.69-5-1.618-12.543-5.609-14.259-3.808-1.637-9.889,2.308-15.053,3.42-3.423.736-3.619,2.083-2.592,5.164a151.546,151.546,0,0,1,4.1,15.954c.515,2.385-.17,4.645-3.039,5.278a4.584,4.584,0,0,1-5.628-2.75c-.479-1.029-.757-2.153-1.242-3.18-2.217-4.7-1.146-12.424-5.8-13.9-4.191-1.325-9.924,2.608-15.075,3.806-3.3.768-3.241,2.442-2.39,4.963,1.329,3.943,2.669,7.892,3.73,11.911.7,2.654,1.971,6.012-2.006,7.138-3.922,1.11-5.05-1.905-6.27-4.956-1.912-4.787-.832-12.45-5.6-13.882-4.258-1.28-10.018,2.439-15.116,3.95a5.657,5.657,0,0,1-.558.12c-2.368.453-2.945,1.613-2.154,4.007C335.631,122.918,336.809,128.11,338.5,133.132Z" transform="translate(-206.374 -90.449)" fill="#416ff4"/>
      <path id="Path_340" data-name="Path 340" d="M505.889,535.326a21.682,21.682,0,0,0,17.876,10.7c11.973.512,21.919-9.247,22.656-22.233.72-12.672-7.956-22.376-20.612-23.054-12.3-.659-22.233,8.692-22.992,21.636a23.123,23.123,0,0,0,.929,7.965c6.97,4.666,14.712,2.5,19.391-4.654,1.206-1.844,4.18-.125,2.965,1.733C521.344,534.693,513.445,538.1,505.889,535.326Zm8.07-15.558a3,3,0,1,1,3.176-2.822A3.005,3.005,0,0,1,513.959,519.768Z" transform="translate(-287.134 -286.331)" fill="#416ff4"/>
      <path id="Path_341" data-name="Path 341" d="M676.5,615.674c-17.487-2.564-34.944-5.329-53.642-8.218-2.015-1.109-2.913,1.024-3.641,3.471-1.516,5.1-2.821,10.274-4.668,15.25-1.32,3.559-.113,4.54,3.209,5.015q25.64,3.671,51.237,7.623c2.168.332,3.459.291,4.141-2.277,1.566-5.871,3.454-11.657,5.271-17.46C679,617.178,679.17,616.067,676.5,615.674Z" transform="translate(-340.248 -337.156)" fill="#416ff4"/>
      <g id="Group_496-2" data-name="Group 496" transform="translate(159.726 208.598)">
        <path id="Path_342" data-name="Path 342" d="M439.781,509.808A22.3,22.3,0,0,0,415.76,489.74c-12.058,1.108-20.9,12.146-19.92,24.867.948,12.317,12.153,21.749,24.311,20.467a21.452,21.452,0,0,0,14.489-8.248c.992-1.348-1-2.5-1.013-2.509l-12.2-6.711h0l-.193-.106c-.489-.284-1.592-1.037.461-1.037l15.5,2.318h0a1.8,1.8,0,0,0,2.05-1.5A23.783,23.783,0,0,0,439.781,509.808Zm-9.7-.075a3,3,0,1,1,2.7-3.283A3,3,0,0,1,430.081,509.733Z" transform="translate(-395.766 -489.65)" fill="#416ff4"/>
      </g>
    </g>
    <g id="Group_11171" data-name="Group 11171" transform="translate(0 455)" opacity="0.713">
      <path id="Path_336-2" data-name="Path 336" d="M261.4,393.139a80.7,80.7,0,0,0,2.846-24.713c-.15-3.417.655-4.666,4.386-5.42,17.769-3.59,35.854-5.735,53.189-11.367a134.962,134.962,0,0,0,24.688-10.4c30.525-17.162,43.261-45.633,35.854-79.883-3.647-16.859-9.741-32.383-23.855-43.326-18.459-14.312-39.407-14.488-60.741-9.123-24.307,6.113-42.88,19.941-54.248,44.893-.186-5.731-.429-10.854-.893-15.706-.083-.589-.158-1.3-.224-2.168-.066-.586-.134-1.17-.208-1.75-1.435-8.471-9.224-8.534-13.252-7.969-.8.16-2.123.321-2.921.48-.006,0-.548.006-.548.006v0c-7.761,1.773-15.8,2.742-25.9,4.775h.154c-13.386,2.217-13.546,13.881-12.863,19.086a18.548,18.548,0,0,0,.574,3.087h.029c4.965,25.5,9.93,51.14,14.738,76.795,3.014,16.084,7.045,32.012,5.86,48.622q-1.316,18.446-17.529,23.484c-12.174,3.751-22.234.668-29.8-9.184a53.649,53.649,0,0,1-8.1-16.41c-6.345-19.51-7.589-39.521-6.408-59.708,0-.088,0-.167.007-.26.38-9.713-9.312-7.352-9.312-7.352l.005-.016c-11.635,4.539-23.322,8.942-35,13.382-9.985,3.84-11.526,14.129-11.7,15.7-.886,25.407,2.934,50.022,14.187,73.248,9.72,20.061,25.208,33.6,47.812,37.047,29,4.425,56.1-1.549,81.035-16.887C247.946,423.069,256.926,409.627,261.4,393.139Zm-2.025-84.94c2.684-16.592,9.052-31.514,21.327-43.467.158-.153.309-.312.476-.454,9.123-7.791,19.349-13.121,31.244-7.955,11.285,4.9,12.092,16.14,13.078,24.78.2,15.278-5.579,23.42-19.329,28.326-11.982,4.275-24.684,5.48-37.093,7.879C257.93,319.464,257.6,319.17,259.375,308.2Z" transform="translate(-90.093 -136.407)" fill="none" stroke="#fff" stroke-width="1"/>
      <path id="Path_337-2" data-name="Path 337" d="M744.991,395.708c-.029-.137-.058-.274-.086-.41l-.019-.078v0q-1.737-8.169-3.374-16.358c-.009-.037-.018-.065-.024-.1-2.246-10.949-13.987-9.19-17.891-8.284-.327.085-.659.167-.987.252-.179.049-.284.083-.284.083l0-.011c-8.208,2.078-16.518,3.737-24.9,5.029-11.951,1.84-23.932,3.247-35.735-.925-8.706-3.076-13.492-9.385-14.648-18.418-1.161-9.063,1.877-16.273,9.732-21.36a54.657,54.657,0,0,1,18.773-7.553c15.6-3.244,31.412-4.953,47.226-6.639,20.809-2.364,21.215-20.622,21.215-20.622-.429-17.749-.91-35.5-4.838-52.927-6.664-29.562-22.309-51.3-53.186-58.63-28.753-6.823-56.978-2.631-85.013,3.958-11.531,4.2-8.744,18.354-8.744,18.354l-.035-.035q.879,6.772,1.744,13.545l0,0s2.641,14.152,15.457,11.61c.023-.005.043-.007.064-.011a237.7,237.7,0,0,1,26.257-4.427c29.921-3.554,48.354,12.058,49.985,41.655.326,5.938-1.636,7.469-6.836,8.1a140.347,140.347,0,0,0-43.34,12.42c-23.057,10.907-47.592,32.3-45.127,68.974,1.81,26.963,16.82,47.829,42.188,56.018a99.807,99.807,0,0,0,28.373,4.57c24.422.594,48.111-3.772,71.593-9.624C747.021,410.438,745.487,398.279,744.991,395.708Z" transform="translate(-289.583 -128.271)" fill="none" stroke="#fff" stroke-width="1"/>
      <path id="Path_338-2" data-name="Path 338" d="M457.53,608.071c-21.429-11.8-44.538-15.683-68.578-10.744-32.862,6.746-53.93,32.6-56.733,69.064-2.607,33.912,13.62,52.786,40.039,63.5a94.506,94.506,0,0,0,18.7,5.761c18.914,3.365,37.875,6.469,56.828,9.62h0l.011,0q1.11.186,2.22.369c6.242.8,23.653,1.275,26.627-17.626.754-4.671,1.491-9.343,2.158-14.025,2.493-17.5,6.36-34.822,7.333-52.528A67.365,67.365,0,0,0,483.593,642C479.7,626.979,470.917,615.441,457.53,608.071ZM389.662,678.32c-3.073-11.52-1.638-22.692,6.4-32.116,5.65-6.624,14.5-8.568,22.8-5.531s11.377,9.672,12.076,17.853c.149,1.739.022,3.5.022,5.253-.047,6.964-1.354,13.763-2.543,20.576-.018.1-.038.186-.056.293-1.952,12.672-14.077,10.936-17.157,10.28C401.548,692.673,392.5,688.969,389.662,678.32Z" transform="translate(-186.564 -291.798)" fill="none" stroke="#fff" stroke-width="1"/>
      <path id="Path_339-2" data-name="Path 339" d="M339.229,139.55c2.964,8.813,8.232,15.871,18.059,16.945,10.55,1.152,19.495-2.54,24.979-12.194,1.66-2.921,2.636-3.3,5.777-1.573,17.176,9.416,40.363-4.382,40.489-25.741a39.421,39.421,0,0,0-2.144-9.684c-1.943-5.753-1.861-14.429-6.452-16.4-4.381-1.883-11.376,2.656-17.316,3.934-3.938.847-4.164,2.4-2.983,5.94a174.291,174.291,0,0,1,4.719,18.353c.592,2.743-.2,5.343-3.5,6.071a5.274,5.274,0,0,1-6.474-3.164c-.551-1.184-.871-2.477-1.429-3.658-2.551-5.4-1.318-14.293-6.675-15.986-4.821-1.524-11.416,3-17.342,4.378-3.8.883-3.728,2.809-2.75,5.709,1.529,4.535,3.071,9.079,4.291,13.7.805,3.053,2.268,6.916-2.307,8.212-4.513,1.277-5.81-2.192-7.213-5.7-2.2-5.507-.957-14.322-6.438-15.969-4.9-1.473-11.524,2.806-17.39,4.544a6.481,6.481,0,0,1-.642.138c-2.724.521-3.388,1.856-2.478,4.609C335.931,127.8,337.287,133.774,339.229,139.55Z" transform="translate(-187.236 -90.449)" fill="none" stroke="#fff" stroke-width="1"/>
      <path id="Path_340-2" data-name="Path 340" d="M506.357,540.532a24.94,24.94,0,0,0,20.564,12.308c13.773.59,25.215-10.637,26.063-25.576.828-14.577-9.152-25.741-23.711-26.521-14.145-.758-25.577,10-26.45,24.89a26.594,26.594,0,0,0,1.068,9.163c8.017,5.368,16.924,2.875,22.308-5.354,1.387-2.122,4.809-.144,3.41,1.994C524.135,539.8,515.048,543.726,506.357,540.532Zm9.283-17.9a3.456,3.456,0,1,1,3.654-3.247A3.458,3.458,0,0,1,515.64,522.634Z" transform="translate(-254.705 -254.093)" fill="none" stroke="#fff" stroke-width="1"/>
      <path id="Path_341-2" data-name="Path 341" d="M685.891,616.955c-20.114-2.949-40.2-6.129-61.708-9.453-2.318-1.276-3.351,1.177-4.189,3.992-1.744,5.863-3.244,11.82-5.368,17.543-1.519,4.094-.13,5.223,3.691,5.77q29.5,4.223,58.941,8.769c2.5.383,3.979.334,4.766-2.618,1.8-6.755,3.974-13.41,6.062-20.087C688.77,618.685,688.967,617.408,685.891,616.955Z" transform="translate(-299.079 -296.554)" fill="none" stroke="#fff" stroke-width="1"/>
      <g id="Group_496-3" data-name="Group 496" transform="translate(183.746 239.967)">
        <path id="Path_342-2" data-name="Path 342" d="M446.4,512.839a25.654,25.654,0,0,0-27.634-23.086c-13.871,1.275-24.043,13.973-22.915,28.606,1.091,14.169,13.98,25.02,27.967,23.544a24.677,24.677,0,0,0,16.667-9.488c1.141-1.551-1.155-2.881-1.165-2.887l-14.034-7.721h0l-.222-.122c-.562-.326-1.831-1.192.53-1.192l17.832,2.667h0a2.069,2.069,0,0,0,2.359-1.73A27.366,27.366,0,0,0,446.4,512.839Zm-11.159-.086a3.455,3.455,0,1,1,3.1-3.777A3.455,3.455,0,0,1,435.241,512.753Z" transform="translate(-395.766 -489.649)" fill="none" stroke="#fff" stroke-width="1"/>
      </g>
    </g>
  </g>
</svg>
