<svg xmlns="http://www.w3.org/2000/svg" xmlns:xlink="http://www.w3.org/1999/xlink" width="134.8" height="127.321" viewBox="0 0 134.8 127.321">
  <defs>
    <linearGradient id="linear-gradient" x1="0.5" y1="1.006" x2="0.5" y2="0.455" gradientUnits="objectBoundingBox">
      <stop offset="0" stop-color="#fff"/>
      <stop offset="1" stop-color="#e2e5ec"/>
    </linearGradient>
  </defs>
  <g id="Group_12080" data-name="Group 12080" transform="translate(-116.8 -459.68)">
    <g id="_43" data-name="43" transform="translate(132.61 459.68)">
      <path id="Path" d="M109.779,54.89A54.889,54.889,0,1,1,54.889,0,54.562,54.562,0,0,1,109.779,54.89Z" fill="#5b83f9" opacity="0.15"/>
      <path id="Path-2" data-name="Path" d="M83.083,80.09A54.955,54.955,0,0,1,0,81.51a26.486,26.486,0,0,1,6.495-3.64l2-.78c3.783-1.5,8.708-3.36,15.346-6.14a6.275,6.275,0,0,0,3.355-3.28,6.53,6.53,0,0,0,.571-2.64V52.68a5.433,5.433,0,0,1-.571-.79,11.851,11.851,0,0,1-2-5.42l-1.071-.5c-3.212.78-3-2.64-3.783-9.21-.357-2.71.072-3.28,1.285-3.71l1-1.36c-6.138-13.92-3.069-22.62,3-25.69-2-4.43-2.141-6-2.141-6S36.4,2.14,40.9,1.29c5.639-1.15,14.347.21,17.559,7.7,5.353,2.15,7.5,5.5,7.923,9.21.785,5.86-2.57,12.28-3.212,14.78.071.14.143.21.143.28.856.43,1.142,1.14.856,3.5-.785,6.21-.571,10.06-3.783,9.21L57.53,50.96a11.266,11.266,0,0,0-.214,1.22c-.143.93-.071,2.78-.071,12.99a6.568,6.568,0,0,0,1,3.42,6.413,6.413,0,0,0,3,2.5.225.225,0,0,1,.143.07c7.351,3.07,12.633,5.07,16.488,6.57A26.855,26.855,0,0,1,83.083,80.09Z" transform="translate(13.99 9.99)" fill="#fff"/>
      <path id="Path-3" data-name="Path" d="M43.893,32.91c.285-1.57-.429-3.5-1-4.86a7.457,7.457,0,0,1-.285-.71c-2.5-5-7.994-7-13.276-7.28-13.491-.72-14.7,1.85-18.915-2,1.284,2,1.427,5.07-.571,8.92-1.428,2.71-4.14,3.93-6.5,4.71C-2.788,17.77.281,9.07,6.348,6c-2-4.43-2.141-6-2.141-6S17.126,2.14,21.551,1.29C27.19.14,35.9,1.5,39.11,8.99c5.354,2.15,7.424,5.5,7.923,9.21C47.818,23.98,44.535,30.34,43.893,32.91Z" transform="translate(33.409 9.99)" fill="#404254"/>
      <path id="Path-4" data-name="Path" d="M31.192,17.27V19.7H0V16.56a6.51,6.51,0,0,0,.571-2.64V1.5A5.358,5.358,0,0,1,0,.71V0A10.6,10.6,0,0,0,2.569,3.07l9.779,6.78a6.232,6.232,0,0,0,7.923.14l9.136-8.21c.286-.28.643-.57.928-.85-.143.92-.071,2.78-.071,12.99A5.415,5.415,0,0,0,31.192,17.27Z" transform="translate(41.185 61.17)" fill="url(#linear-gradient)"/>
      <path id="Path-5" data-name="Path" d="M40.1,24.491a27.87,27.87,0,0,1-1.761,5.18,20.337,20.337,0,0,1-8.908,8.8,19.935,19.935,0,0,1-13.258,1.76A20.3,20.3,0,0,1,24.356.461,21.5,21.5,0,0,1,34.61,5.951,20.231,20.231,0,0,1,40.1,24.491Z" transform="translate(36.612 86.639)" fill="#ffcb42"/>
      <path id="Path-6" data-name="Path" d="M14.836,7.458,12.635,9.6l.52,3.028a1.883,1.883,0,0,1-2.732,1.985L7.7,13.186,4.983,14.617A1.868,1.868,0,0,1,3,14.473a1.87,1.87,0,0,1-.75-1.842L2.77,9.6.57,7.459A1.883,1.883,0,0,1,1.614,4.247L4.654,3.8,6.014,1.05a1.881,1.881,0,0,1,3.378,0L10.751,3.8l3.04.442a1.883,1.883,0,0,1,1.045,3.211Z" transform="translate(49.283 99.139)" fill="#fff"/>
    </g>
    <path id="Path-7" data-name="Path" d="M4.1,8.2A4.1,4.1,0,1,0,0,4.1,4.1,4.1,0,0,0,4.1,8.2Z" transform="translate(237.8 473.199)" fill="#416ff4" opacity="0.15"/>
    <path id="Path-8" data-name="Path" d="M2.8,5.6A2.8,2.8,0,1,0,0,2.8,2.8,2.8,0,0,0,2.8,5.6Z" transform="translate(246 496.6)" fill="#416ff4" opacity="0.15"/>
    <path id="Path-9" data-name="Path" d="M2.8,5.6A2.8,2.8,0,1,0,0,2.8,2.8,2.8,0,0,0,2.8,5.6Z" transform="translate(124.4 478.598)" fill="#416ff4" opacity="0.15"/>
    <path id="Path-10" data-name="Path" d="M5.2,10.4A5.2,5.2,0,1,0,0,5.2,5.2,5.2,0,0,0,5.2,10.4Z" transform="translate(116.8 534.701)" fill="#416ff4" opacity="0.15"/>
  </g>
</svg>
