<svg id="about_dars" xmlns="http://www.w3.org/2000/svg" width="18.055" height="18.055" viewBox="0 0 18.055 18.055">
  <path id="Path_4975" data-name="Path 4975" d="M236.172,107.42a.752.752,0,1,1-.752-.752A.752.752,0,0,1,236.172,107.42Zm0,0" transform="translate(-226.393 -102.907)" fill="#8ba7fa"/>
  <path id="Path_4976" data-name="Path 4976" d="M204.549,199.523a.564.564,0,0,1-.564-.564v-5.83h-.752a.564.564,0,0,1,0-1.128h1.316a.564.564,0,0,1,.564.564v6.394A.564.564,0,0,1,204.549,199.523Zm0,0" transform="translate(-195.521 -185.229)" fill="#8ba7fa"/>
  <path id="Path_4977" data-name="Path 4977" d="M9.027,18.055a9.027,9.027,0,1,1,9.027-9.027A9.037,9.037,0,0,1,9.027,18.055Zm0-16.926a7.9,7.9,0,1,0,7.9,7.9A7.908,7.908,0,0,0,9.027,1.128Zm0,0" fill="#8ba7fa"/>
  <path id="Path_4978" data-name="Path 4978" d="M195.95,374.46h-3.385a.564.564,0,1,1,0-1.128h3.385a.564.564,0,1,1,0,1.128Zm0,0" transform="translate(-185.229 -360.167)" fill="#8ba7fa"/>
</svg>
