<svg xmlns="http://www.w3.org/2000/svg" width="21.144" height="20.828" viewBox="0 0 21.144 20.828">
  <g id="add-user" transform="translate(0 -0.066)">
    <path id="Path_15179" data-name="Path 15179" d="M16.135,293.973A4.967,4.967,0,0,0,12.5,295.54a7.614,7.614,0,0,0-4.777-1.662H7.705a7.557,7.557,0,0,0-5.455,2.291A8.091,8.091,0,0,0,0,301.9a.47.47,0,0,0,.132.323.45.45,0,0,0,.323.132l11.954-.023c.027.032.055.059.082.091a5.011,5.011,0,1,0,3.643-8.452ZM.925,301.441A7.121,7.121,0,0,1,2.9,296.8a6.641,6.641,0,0,1,4.8-2.013h.014a6.72,6.72,0,0,1,4.217,1.466,5.02,5.02,0,0,0-.173,5.169Zm15.21,1.639a4.1,4.1,0,1,1,4.1-4.1A4.1,4.1,0,0,1,16.135,303.081Zm0,0" transform="translate(0 -283.101)" fill="#416ff4"/>
    <path id="Path_15180" data-name="Path 15180" d="M84.262,9.693A4.814,4.814,0,1,0,79.449,4.88,4.814,4.814,0,0,0,84.262,9.693Zm0-8.716a3.9,3.9,0,1,1-3.9,3.9,3.9,3.9,0,0,1,3.9-3.9Zm0,0" transform="translate(-76.553)" fill="#416ff4"/>
    <path id="Path_15181" data-name="Path 15181" d="M383.648,372.672h-1.389v-1.389a.455.455,0,0,0-.911,0v1.389H379.96a.455.455,0,1,0,0,.911h1.389v1.389a.455.455,0,0,0,.911,0v-1.389h1.389a.455.455,0,0,0,0-.911Zm0,0" transform="translate(-365.669 -357.246)" fill="#416ff4"/>
  </g>
</svg>
