<svg id="Group" xmlns="http://www.w3.org/2000/svg" width="16.571" height="20.698" viewBox="0 0 16.571 20.698">
  <path id="Combined_Shape" data-name="Combined Shape" d="M8.286,20.7a1.755,1.755,0,0,1-1.362-.654c-2.2-2.691-5.071-6.534-5.1-6.573l-.006-.008A8.194,8.194,0,0,1,0,8.286a8.288,8.288,0,1,1,14.758,5.172l0,.007-.017.027c-.372.5-.8,1.057-1.225,1.62-1.049,1.378-2.572,3.353-3.865,4.934A1.757,1.757,0,0,1,8.286,20.7Zm0-18.636A6.231,6.231,0,0,0,2.062,8.286a6.149,6.149,0,0,0,1.364,3.888l.006.007c.12.15.237.308.349.46.058.079.116.157.173.233.4.536.816,1.078,1.223,1.61.816,1.066,2.017,2.62,3.108,3.968.846-1.043,1.895-2.38,3.116-3.974.519-.678.953-1.251,1.225-1.612.068-.09.134-.181.2-.272.1-.14.207-.284.316-.421a6.149,6.149,0,0,0,1.364-3.888A6.23,6.23,0,0,0,8.286,2.062Z" transform="translate(0)" fill="#ffd24c"/>
  <path id="Combined_Shape-2" data-name="Combined Shape" d="M3.11,6.22A3.11,3.11,0,1,1,6.22,3.11,3.114,3.114,0,0,1,3.11,6.22Zm0-4.147A1.037,1.037,0,1,0,4.146,3.11,1.038,1.038,0,0,0,3.11,2.073Z" transform="translate(5.217 5.331)" fill="#ffd24c"/>
</svg>
