<svg xmlns="http://www.w3.org/2000/svg" width="19.828" height="19.508" viewBox="0 0 19.828 19.508">
  <g id="Work" transform="translate(0.005 0)">
    <path id="Stroke_1" data-name="Stroke 1" d="M0,0S.14,1.716.173,2.258a3.776,3.776,0,0,0,.792,2.1A2.931,2.931,0,0,0,3.443,5.438c1.222,0,10.1,0,11.326,0a2.931,2.931,0,0,0,2.478-1.081,3.784,3.784,0,0,0,.793-2.1c.032-.541.172-2.258.172-2.258" transform="translate(0.803 13.318)" fill="none" stroke="#ffcb42" stroke-linecap="round" stroke-linejoin="round" stroke-miterlimit="10" stroke-width="1.5"/>
    <path id="Stroke_3" data-name="Stroke 3" d="M0,2.547V2.18A2.18,2.18,0,0,1,2.18,0H4.73a2.18,2.18,0,0,1,2.18,2.18v.366" transform="translate(6.424 0.751)" fill="none" stroke="#ffcb42" stroke-linecap="round" stroke-linejoin="round" stroke-miterlimit="10" stroke-width="1.5"/>
    <path id="Stroke_5" data-name="Stroke 5" d="M.5,1.278V0" transform="translate(9.38 13.227)" fill="none" stroke="#ffcb42" stroke-linecap="round" stroke-linejoin="round" stroke-miterlimit="10" stroke-width="1.5"/>
    <path id="Stroke_7" data-name="Stroke 7" d="M0,3.02V6.444A16.124,16.124,0,0,0,6.654,8.915a2.548,2.548,0,0,1,4.923.01A16.122,16.122,0,0,0,18.26,6.444V3.02A3.013,3.013,0,0,0,15.241,0H3.029A3.021,3.021,0,0,0,0,3.02Z" transform="translate(0.75 3.299)" fill="none" stroke="#ffcb42" stroke-linecap="round" stroke-linejoin="round" stroke-miterlimit="10" stroke-width="1.5"/>
  </g>
</svg>
