<svg id="Bold_2px_presentation" data-name="Bold 2px/presentation" xmlns="http://www.w3.org/2000/svg" width="20.571" height="18" viewBox="0 0 20.571 18">
  <path id="Combined_Shape" data-name="Combined Shape" d="M14.026,18a.947.947,0,0,1-.661-.264l-2.144-2.064V16.2a.936.936,0,0,1-1.87,0v-.527L7.206,17.736a.961.961,0,0,1-1.322,0,.878.878,0,0,1,0-1.273l3.466-3.336V12.6H3.74a2.757,2.757,0,0,1-2.8-2.7V1.8A.92.92,0,0,1,0,.9.919.919,0,0,1,.935,0h18.7a.919.919,0,0,1,.935.9.919.919,0,0,1-.935.9V9.9a2.757,2.757,0,0,1-2.8,2.7H11.221v.526l3.466,3.336a.878.878,0,0,1,0,1.273A.947.947,0,0,1,14.026,18ZM2.8,1.8V9.9a.919.919,0,0,0,.935.9H16.831a.919.919,0,0,0,.935-.9V1.8Z" transform="translate(0)" fill="#ffd24c"/>
  <path id="Ellipse_201_Stroke_" data-name="Ellipse 201 (Stroke)" d="M2.571,5.143A2.571,2.571,0,1,1,5.143,2.571,2.574,2.574,0,0,1,2.571,5.143Zm0-3.429a.857.857,0,1,0,.857.857A.858.858,0,0,0,2.571,1.714Z" transform="translate(3.857 3.857)" fill="#ffd24c"/>
  <path id="Vector_607_Stroke_" data-name="Vector 607 (Stroke)" d="M.925,0H2.774a.925.925,0,1,1,0,1.849H.925A.925.925,0,0,1,.925,0Z" transform="translate(11.66 4.262)" fill="#ffd24c"/>
  <path id="Vector_608_Stroke_" data-name="Vector 608 (Stroke)" d="M.925,0H2.774a.925.925,0,1,1,0,1.849H.925A.925.925,0,0,1,.925,0Z" transform="translate(11.66 7.961)" fill="#ffd24c"/>
</svg>
