<svg xmlns="http://www.w3.org/2000/svg" width="18.167" height="16.003" viewBox="0 0 18.167 16.003">
  <path id="Shape" d="M9.083,16a.874.874,0,0,1-.287-.048L7.2,15.4a5.244,5.244,0,0,0-1.723-.291H2.725A2.784,2.784,0,0,1,0,12.277V2.833A2.784,2.784,0,0,1,2.725,0H6.359A3.576,3.576,0,0,1,9.083,1.279,3.577,3.577,0,0,1,11.808,0h3.634a2.784,2.784,0,0,1,2.725,2.833v9.444a2.784,2.784,0,0,1-2.725,2.834H12.693a5.244,5.244,0,0,0-1.723.291l-1.6.554A.874.874,0,0,1,9.083,16ZM11.808,1.889A1.854,1.854,0,0,0,10,3.637l0,.14v9.971l.4-.139a7.033,7.033,0,0,1,1.964-.38l.334-.008h2.749a.922.922,0,0,0,.9-.835l.006-.11V2.833a.931.931,0,0,0-.8-.937l-.105-.007Zm-9.083,0a.921.921,0,0,0-.9.835l-.007.11v9.444a.932.932,0,0,0,.8.938l.105.007H5.474a7.027,7.027,0,0,1,1.978.285l.32.1.4.139V3.777A1.867,1.867,0,0,0,6.494,1.894l-.136-.005Z" fill="#ffcb42"/>
</svg>
