<svg xmlns="http://www.w3.org/2000/svg" width="122.593" height="118.226" viewBox="0 0 122.593 118.226">
  <g id="Group_15470" data-name="Group 15470" transform="translate(-374.876 -315.958)">
    <g id="Group_15461" data-name="Group 15461" transform="translate(397.775 333.921)">
      <path id="Path_16136" data-name="Path 16136" d="M717.821,552.452V618.97a9.422,9.422,0,0,1-9.422,9.422H654.272a9.422,9.422,0,0,1-9.422-9.422V539.312a9.422,9.422,0,0,1,9.422-9.422h42.29A4.425,4.425,0,0,1,699.8,531.3l16.834,18.137A4.425,4.425,0,0,1,717.821,552.452Z" transform="translate(-643.969 -529.009)" fill="#fff"/>
      <path id="Path_16137" data-name="Path 16137" d="M699.28,620.153H645.153a10.315,10.315,0,0,1-10.3-10.3V530.193a10.315,10.315,0,0,1,10.3-10.3h42.29a5.322,5.322,0,0,1,3.889,1.7l16.834,18.137a5.29,5.29,0,0,1,1.417,3.61V609.85A10.315,10.315,0,0,1,699.28,620.153Zm-54.127-98.5a8.551,8.551,0,0,0-8.541,8.541V609.85a8.551,8.551,0,0,0,8.541,8.541H699.28a8.551,8.551,0,0,0,8.541-8.541V543.333a3.533,3.533,0,0,0-.947-2.411L690.04,522.785a3.555,3.555,0,0,0-2.6-1.133Z" transform="translate(-634.85 -519.89)" fill="#5b83f9"/>
    </g>
    <g id="Group_15462" data-name="Group 15462" transform="translate(451.417 334.969)">
      <path id="Path_16138" data-name="Path 16138" d="M1271.807,561.57h-17.48a.481.481,0,0,1-.481-.481V542.474a.678.678,0,0,1,1.176-.462l17.223,18.555A.6.6,0,0,1,1271.807,561.57Z" transform="translate(-1252.965 -540.913)" fill="#e0deda"/>
      <path id="Path_16139" data-name="Path 16139" d="M1262.688,553.331h-17.48a1.364,1.364,0,0,1-1.362-1.362V533.354a1.559,1.559,0,0,1,2.7-1.061l17.223,18.555a1.478,1.478,0,0,1-1.083,2.483Zm-17.08-1.762h16.429l-16.429-17.7Z" transform="translate(-1243.846 -531.793)" fill="#5b83f9"/>
    </g>
    <rect id="Rectangle_4261" data-name="Rectangle 4261" width="30.781" height="2.977" transform="translate(407.179 345.738)" fill="silver"/>
    <rect id="Rectangle_4262" data-name="Rectangle 4262" width="40.817" height="2.977" transform="translate(407.179 407.044)" fill="silver"/>
    <rect id="Rectangle_4263" data-name="Rectangle 4263" width="51.916" height="2.977" transform="translate(407.179 414.443)" fill="silver"/>
    <rect id="Rectangle_4264" data-name="Rectangle 4264" width="25.958" height="2.977" transform="translate(433.136 420.917)" fill="silver"/>
    <g id="Group_15464" data-name="Group 15464" transform="translate(414.354 358.788)">
      <circle id="Ellipse_255" data-name="Ellipse 255" cx="20.387" cy="20.387" r="20.387" transform="translate(0.396 0.396)" fill="#e25f64"/>
      <g id="Group_15463" data-name="Group 15463" transform="translate(0 0)">
        <path id="Path_16140" data-name="Path 16140" d="M847.962,806.706a20.387,20.387,0,1,0,20.387,20.387A20.387,20.387,0,0,0,847.962,806.706Zm0,38.683A18.087,18.087,0,1,1,866.049,827.3,18.087,18.087,0,0,1,847.962,845.389Z" transform="translate(-827.179 -806.31)" fill="#fff"/>
        <path id="Path_16141" data-name="Path 16141" d="M843.858,843.772a20.783,20.783,0,1,1,14.7-6.087A20.647,20.647,0,0,1,843.858,843.772Zm0-40.774a19.99,19.99,0,1,0,19.991,19.99A20.013,20.013,0,0,0,843.858,803Zm0,38.683A18.483,18.483,0,1,1,862.342,823.2,18.5,18.5,0,0,1,843.858,841.681Zm0-36.174A17.691,17.691,0,1,0,861.549,823.2,17.711,17.711,0,0,0,843.858,805.507Z" transform="translate(-823.075 -802.206)" fill="#e25f64"/>
      </g>
      <path id="Path_16142" data-name="Path 16142" d="M933.586,929.923l15.488,13.3a3.657,3.657,0,0,0,5.157-.391h0a3.657,3.657,0,0,0-.391-5.157l-15.488-13.3a3.657,3.657,0,0,0-5.157.391h0A3.657,3.657,0,0,0,933.586,929.923Z" transform="translate(-922.69 -912.809)" fill="#fff"/>
      <path id="Path_16143" data-name="Path 16143" d="M953.84,929.923l-15.488,13.3a3.657,3.657,0,0,1-5.157-.391h0a3.657,3.657,0,0,1,.391-5.157l15.488-13.3a3.657,3.657,0,0,1,5.157.391h0A3.657,3.657,0,0,1,953.84,929.923Z" transform="translate(-922.69 -912.809)" fill="#fff"/>
    </g>
    <circle id="Ellipse_256" data-name="Ellipse 256" cx="2.841" cy="2.841" r="2.841" transform="translate(384.369 405.235) rotate(-45)" fill="#5b83f9" opacity="0.6"/>
    <g id="Group_15465" data-name="Group 15465" transform="translate(480.278 406.071)">
      <path id="Path_16144" data-name="Path 16144" d="M1574.475,1343.794l-2.978-4.289.724-.5,2.507,3.611,4.12-2.479,2.742,3.95,4.12-2.479,2.977,4.289-.724.5-2.507-3.611-4.12,2.479-2.742-3.95Z" transform="translate(-1571.497 -1339.003)" fill="#5b83f9" opacity="0.6"/>
    </g>
    <g id="Group_15466" data-name="Group 15466" transform="translate(374.876 339.234)">
      <path id="Path_16145" data-name="Path 16145" d="M377.238,585.264l-2.362-4.656.786-.4,1.989,3.92,4.421-1.891,2.175,4.288,4.421-1.891,2.362,4.656-.786.4-1.988-3.92-4.421,1.891-2.175-4.288Z" transform="translate(-374.876 -580.209)" fill="#5b83f9" opacity="0.6"/>
    </g>
    <g id="Group_15467" data-name="Group 15467" transform="translate(375.21 416.249)" opacity="0.6">
      <path id="Path_16146" data-name="Path 16146" d="M383.488,1462.446l-4.819-2.011.339-.813,4.057,1.693,2.138-4.307,4.437,1.852,2.137-4.307,4.818,2.011-.339.813-4.057-1.693-2.137,4.307-4.437-1.852Z" transform="translate(-378.67 -1454.552)" fill="#5b83f9"/>
    </g>
    <g id="Group_15468" data-name="Group 15468" transform="translate(476.13 351.438)">
      <path id="Path_16147" data-name="Path 16147" d="M1534.932,718.758l5.209.356-.06.879-4.386-.3-.64,4.766-4.8-.328-.64,4.766-5.209-.356.06-.879,4.385.3.64-4.766,4.8.328Z" transform="translate(-1524.41 -718.758)" fill="#5b83f9" opacity="0.6"/>
    </g>
    <g id="Group_15469" data-name="Group 15469" transform="translate(442.753 315.958)">
      <path id="Path_16148" data-name="Path 16148" d="M1149.318,318.024l4.053-2.066.349.684-3.413,1.74,1.655,3.849-3.733,1.9,1.655,3.849-4.053,2.066-.349-.684,3.413-1.739-1.655-3.849,3.733-1.9Z" transform="translate(-1145.483 -315.958)" fill="#5b83f9" opacity="0.6"/>
    </g>
    <circle id="Ellipse_257" data-name="Ellipse 257" cx="2.425" cy="2.425" r="2.425" transform="translate(478.383 371.361) rotate(-45)" fill="#5b83f9" opacity="0.6"/>
    <circle id="Ellipse_258" data-name="Ellipse 258" cx="2.841" cy="2.841" r="2.841" transform="translate(476.13 417.42)" fill="#5b83f9" opacity="0.6"/>
    <circle id="Ellipse_259" data-name="Ellipse 259" cx="2.841" cy="2.841" r="2.841" transform="translate(377.469 356.344)" fill="#5b83f9" opacity="0.6"/>
  </g>
</svg>
