<svg xmlns="http://www.w3.org/2000/svg" width="20.924" height="20.924" viewBox="0 0 20.924 20.924">
  <g id="Category" transform="translate(0.75 0.75)">
    <path id="Stroke_1" data-name="Stroke 1" d="M2.378,0H5.551A2.389,2.389,0,0,1,7.928,2.4V5.6A2.389,2.389,0,0,1,5.551,8H2.378A2.389,2.389,0,0,1,0,5.6V2.4A2.389,2.389,0,0,1,2.378,0Z" transform="translate(11.496 0)" fill="none" stroke="#ffcb42" stroke-linecap="round" stroke-linejoin="round" stroke-miterlimit="10" stroke-width="1.5"/>
    <path id="Stroke_3" data-name="Stroke 3" d="M2.378,0H5.55A2.389,2.389,0,0,1,7.928,2.4V5.6A2.389,2.389,0,0,1,5.55,8H2.378A2.389,2.389,0,0,1,0,5.6V2.4A2.389,2.389,0,0,1,2.378,0Z" transform="translate(0 0)" fill="none" stroke="#ffcb42" stroke-linecap="round" stroke-linejoin="round" stroke-miterlimit="10" stroke-width="1.5"/>
    <path id="Stroke_5" data-name="Stroke 5" d="M2.378,0H5.55A2.389,2.389,0,0,1,7.928,2.4V5.6A2.389,2.389,0,0,1,5.55,8H2.378A2.389,2.389,0,0,1,0,5.6V2.4A2.389,2.389,0,0,1,2.378,0Z" transform="translate(0 11.427)" fill="none" stroke="#ffcb42" stroke-linecap="round" stroke-linejoin="round" stroke-miterlimit="10" stroke-width="1.5"/>
    <path id="Stroke_7" data-name="Stroke 7" d="M2.378,0H5.551A2.389,2.389,0,0,1,7.928,2.4V5.6A2.389,2.389,0,0,1,5.551,8H2.378A2.389,2.389,0,0,1,0,5.6V2.4A2.389,2.389,0,0,1,2.378,0Z" transform="translate(11.496 11.427)" fill="none" stroke="#ffcb42" stroke-linecap="round" stroke-linejoin="round" stroke-miterlimit="10" stroke-width="1.5"/>
  </g>
</svg>
