<svg xmlns="http://www.w3.org/2000/svg" width="19.575" height="19.575" viewBox="0 0 19.575 19.575">
  <g id="chat" transform="translate(0.75 0.75)">
    <path id="Combined_Shape" data-name="Combined Shape" d="M8.211,1.054A1.056,1.056,0,1,1,9.268,2.111,1.057,1.057,0,0,1,8.211,1.054Zm-4.105,0A1.056,1.056,0,1,1,5.162,2.111,1.056,1.056,0,0,1,4.106,1.054ZM0,1.054A1.056,1.056,0,1,1,1.056,2.111,1.056,1.056,0,0,1,0,1.054Z" transform="translate(4.091 8.184)" fill="#d6d4d4"/>
    <path id="Stroke_7" data-name="Stroke 7" d="M9.056,0A9.043,9.043,0,0,0,0,9.051a9.565,9.565,0,0,0,1.22,4.516.95.95,0,0,1,.063.816L.678,16.41a.564.564,0,0,0,.741.705l1.826-.542a1.533,1.533,0,0,1,1.347.326A9.035,9.035,0,1,0,9.056,0Z" fill="none" stroke="#d6d4d4" stroke-linecap="round" stroke-linejoin="round" stroke-miterlimit="10" stroke-width="1.5"/>
  </g>
</svg>
