<svg xmlns="http://www.w3.org/2000/svg" width="19.942" height="14.077" viewBox="0 0 19.942 14.077">
  <path id="Shape" d="M18.945,14.077H1a1,1,0,0,1-.991-.889L0,13.071V8.044A3.008,3.008,0,0,1,2.815,5.032l.176,0H5.983V3.016A3.006,3.006,0,0,1,8.8.005L8.974,0h1.994a3,3,0,0,1,2.987,2.839l.005.177V7.038h2.991a3,3,0,0,1,2.987,2.839l0,.177v3.016a1,1,0,0,1-.88,1ZM13.96,8.546v4.022h4.487V10.055a1.5,1.5,0,0,0-1.5-1.508ZM8.974,1.508a1.5,1.5,0,0,0-1.5,1.508v9.552h4.986V3.016a1.5,1.5,0,0,0-1.5-1.508ZM2.991,6.535A1.494,1.494,0,0,0,1.5,7.9L1.5,8.044v4.525H5.983V6.535Z" fill="#ffd24c"/>
</svg>
