<svg id="Regular_1.5px_payment" data-name="Regular 1.5px/payment" xmlns="http://www.w3.org/2000/svg" width="20" height="16" viewBox="0 0 20 16">
  <path id="Shape" d="M17,16H3A3,3,0,0,1,.005,13.176L0,13V3A3,3,0,0,1,2.823.005L3,0H17a3,3,0,0,1,3,2.823L20,3V13a3,3,0,0,1-2.823,3ZM1.5,5.75V13a1.492,1.492,0,0,0,1.355,1.493L3,14.5H17a1.493,1.493,0,0,0,1.493-1.355L18.5,13V5.75ZM3,1.5A1.5,1.5,0,0,0,1.5,3V4.25h17V3A1.5,1.5,0,0,0,17,1.5Zm7,10.25H4a.751.751,0,0,1-.1-1.494L4,10.25h6a.75.75,0,0,1,.1,1.493Z" transform="translate(0 0)" fill="#ffcb42"/>
</svg>
