<svg id="Bold_2px_sort_decending" data-name="Bold 2px/sort_decending" xmlns="http://www.w3.org/2000/svg" width="20" height="16.086" viewBox="0 0 20 16.086">
  <g id="Group">
    <path id="Union" d="M4,0A1,1,0,0,0,3,1V13.086L1.707,11.793A1,1,0,0,0,.293,13.207L2.586,15.5a2,2,0,0,0,2.828,0l2.293-2.293a1,1,0,0,0-1.414-1.414L5,13.086V1A1,1,0,0,0,4,0Z" transform="translate(0 0)" fill="#707070"/>
    <path id="Path_13_Copy_5_Stroke_" data-name="Path 13 Copy 5 (Stroke)" d="M1,0H9A1,1,0,0,1,9,2H1A1,1,0,0,1,1,0Z" transform="translate(10 2)" fill="#707070"/>
    <path id="Path_13_Copy_6_Stroke_" data-name="Path 13 Copy 6 (Stroke)" d="M1,0H6A1,1,0,0,0,7-1,1,1,0,0,0,6-2H1A1,1,0,0,0,0-1,1,1,0,0,0,1,0Z" transform="translate(10 9)" fill="#707070"/>
    <path id="Path_13_Copy_7_Stroke_" data-name="Path 13 Copy 7 (Stroke)" d="M1,0H3A1,1,0,0,0,4-1,1,1,0,0,0,3-2H1A1,1,0,0,0,0-1,1,1,0,0,0,1,0Z" transform="translate(10 14)" fill="#707070"/>
  </g>
</svg>
