<svg xmlns="http://www.w3.org/2000/svg" width="18.524" height="18.73" viewBox="0 0 18.524 18.73">
  <g id="Group_15561" data-name="Group 15561" transform="translate(-16.25 -55.94)">
    <path id="Stroke_1" data-name="Stroke 1" d="M7.9,0H4.521C1.742,0,0,1.967,0,4.753v7.514c0,2.785,1.734,4.753,4.521,4.753H12.5c2.788,0,4.522-1.967,4.522-4.753V8.626" transform="translate(17 56.901)" fill="none" stroke="#5b83f9" stroke-linecap="round" stroke-linejoin="round" stroke-miterlimit="10" stroke-width="1.5"/>
    <path id="Stroke_3" data-name="Stroke 3" d="M.659,7.384,7.413.63a2.156,2.156,0,0,1,3.047,0l1.1,1.1a2.154,2.154,0,0,1,0,3.047L4.773,11.563a1.962,1.962,0,0,1-1.387.575H0L.085,8.722A1.961,1.961,0,0,1,.659,7.384Z" transform="translate(21.834 56.866)" fill="none" stroke="#5b83f9" stroke-linecap="round" stroke-linejoin="round" stroke-miterlimit="10" stroke-width="1.5"/>
    <path id="Stroke_5" data-name="Stroke 5" d="M0,0,4.127,4.127" transform="translate(28.22 58.54)" fill="none" stroke="#5b83f9" stroke-linecap="round" stroke-linejoin="round" stroke-miterlimit="10" stroke-width="1.5"/>
  </g>
</svg>
