<svg xmlns="http://www.w3.org/2000/svg" width="15" height="12" viewBox="0 0 15 12">
  <path id="Shape" d="M12.75,12H2.25A2.253,2.253,0,0,1,0,9.75V2.25A2.252,2.252,0,0,1,2.25,0h10.5A2.252,2.252,0,0,1,15,2.25v7.5A2.253,2.253,0,0,1,12.75,12ZM1.125,3.176V9.75A1.126,1.126,0,0,0,2.25,10.875h10.5A1.126,1.126,0,0,0,13.875,9.75V3.176L8.644,6.664a2.063,2.063,0,0,1-2.288,0ZM2.25,1.125a1.131,1.131,0,0,0-1.018.645l-.041.1L6.98,5.727a.937.937,0,0,0,.943.057l.1-.057,5.788-3.859a1.129,1.129,0,0,0-.948-.738l-.111-.005Z" fill="#d6d4d4"/>
</svg>
