<svg xmlns="http://www.w3.org/2000/svg" width="24" height="24" viewBox="0 0 24 24">
  <g id="Group_2901" data-name="Group 2901" transform="translate(-84.17 -207.946)">
    <path id="Path_5123" data-name="Path 5123" d="M108.17,219.945A12,12,0,1,0,94.295,231.8v-8.385H91.248v-3.469h3.047V217.3c0-3.007,1.791-4.669,4.533-4.669a18.461,18.461,0,0,1,2.686.234v2.953H100a1.734,1.734,0,0,0-1.956,1.874v2.251h3.328l-.532,3.469h-2.8V231.8A12,12,0,0,0,108.17,219.945Z" fill="#4676ed"/>
    <path id="Path_5124" data-name="Path 5124" d="M133.662,245.19l.537-3.5h-3.358V239.42a1.75,1.75,0,0,1,1.973-1.891h1.527v-2.98a18.624,18.624,0,0,0-2.71-.236c-2.766,0-4.573,1.676-4.573,4.71v2.667h-3.074v3.5h3.074v8.46a12.239,12.239,0,0,0,3.783,0v-8.46Z" transform="translate(-32.783 -21.851)" fill="#fff"/>
  </g>
</svg>
