<svg xmlns="http://www.w3.org/2000/svg" width="17" height="18" viewBox="0 0 17 18">
  <path id="Combined_Shape" data-name="Combined Shape" d="M.944,18A.924.924,0,0,1,0,17.1V.9A.924.924,0,0,1,.944,0a.924.924,0,0,1,.944.9H6.636a5.927,5.927,0,0,1,1.792.277l1.089.346a5.9,5.9,0,0,0,1.792.277h2.859A2.772,2.772,0,0,1,17,4.5V9.9a2.772,2.772,0,0,1-2.833,2.7H11.308a5.9,5.9,0,0,1-1.792-.278l-1.089-.345A5.9,5.9,0,0,0,6.636,11.7H1.889v5.4A.924.924,0,0,1,.944,18ZM1.889,2.7V9.9H6.636a7.882,7.882,0,0,1,2.389.369l1.089.346a3.94,3.94,0,0,0,1.194.185h2.859a.924.924,0,0,0,.944-.9V4.5a.924.924,0,0,0-.944-.9H11.308A7.89,7.89,0,0,1,8.919,3.23L7.83,2.884A3.94,3.94,0,0,0,6.636,2.7Z" fill="#ffcb42"/>
</svg>
