<svg id="headphone" xmlns="http://www.w3.org/2000/svg" width="21.726" height="23.722" viewBox="0 0 21.726 23.722">
  <g id="Group_12345" data-name="Group 12345" transform="translate(0)">
    <path id="Path_14070" data-name="Path 14070" d="M37.193,9.806h-.059V8.367a8.367,8.367,0,1,0-16.734,0V9.806h-.352a2.391,2.391,0,0,0-2.29,2.466v3.67a2.319,2.319,0,0,0,2.26,2.377h2.2a.558.558,0,0,0,.531-.583c0-.011,0-.022,0-.033V10.51c0-.352-.206-.7-.528-.7h-.646V8.367a7.193,7.193,0,1,1,14.386,0V9.806h-.646c-.323,0-.528.352-.528.7V17.7a.558.558,0,0,0,.5.614l.033,0h.675l-.059.088a4.639,4.639,0,0,1-3.729,1.85,2.906,2.906,0,0,0-5.754.558,2.936,2.936,0,0,0,2.936,2.906,3.024,3.024,0,0,0,2.114-.91,2.584,2.584,0,0,0,.7-1.409,5.813,5.813,0,0,0,4.668-2.319l.558-.822a2,2,0,0,0,2.055-2.026v-3.67C39.483,11.3,38.543,9.806,37.193,9.806Zm-15.619,7.34H20.047a1.145,1.145,0,0,1-1.117-1.172q0-.016,0-.031v-3.67a1.217,1.217,0,0,1,1.116-1.292h1.527Zm9.072,4.844a1.732,1.732,0,0,1-1.262.558,1.791,1.791,0,0,1-1.762-1.732,1.732,1.732,0,1,1,3.464,0h0A1.556,1.556,0,0,1,30.646,21.99Zm7.663-5.754c0,.793-.763.91-1.116.91H35.959V10.98h1.233c.646,0,1.116.91,1.116,1.585Z" transform="translate(-17.756)" fill="#8ba7fa"/>
  </g>
</svg>
