<svg xmlns="http://www.w3.org/2000/svg" width="21.459" height="18.565" viewBox="0 0 21.459 18.565">
  <path id="Path_5524" data-name="Path 5524" d="M162.652,405.7A5.546,5.546,0,0,0,158.6,404a5.22,5.22,0,0,0-3.184,1.058,6.421,6.421,0,0,0-1.287,1.295,6.42,6.42,0,0,0-1.287-1.295A5.22,5.22,0,0,0,149.659,404a5.546,5.546,0,0,0-4.052,1.7A5.972,5.972,0,0,0,144,409.866a7.125,7.125,0,0,0,2.01,4.756,42.269,42.269,0,0,0,5.03,4.548c.7.572,1.487,1.221,2.307,1.912a1.223,1.223,0,0,0,1.567,0c.82-.691,1.61-1.34,2.308-1.912a42.239,42.239,0,0,0,5.029-4.549,7.121,7.121,0,0,0,2.01-4.755A5.972,5.972,0,0,0,162.652,405.7Z" transform="translate(-143.4 -403.4)" fill="none" stroke="#5b83f9" stroke-width="1.2"/>
</svg>
