<svg xmlns="http://www.w3.org/2000/svg" width="14" height="20" viewBox="0 0 14 20">
  <path id="Fill_174" data-name="Fill 174" d="M7,20c-3.86,0-7-2.8-7-6.251a5.767,5.767,0,0,1,1.4-3.738V5C1.4,2.243,3.912,0,7,0s5.6,2.243,5.6,5v5.012A5.767,5.767,0,0,1,14,13.75C14,17.2,10.86,20,7,20ZM7,8.75c-3.088,0-5.6,2.243-5.6,5s2.512,5,5.6,5,5.6-2.243,5.6-5C12.6,11.087,9.983,8.75,7,8.75Zm0-7.5A4,4,0,0,0,2.8,5V8.758A7.51,7.51,0,0,1,7,7.5a7.5,7.5,0,0,1,4.2,1.258V5A4,4,0,0,0,7,1.25Zm0,15a.666.666,0,0,1-.7-.625v-2.5a.7.7,0,0,1,1.4,0v2.5A.666.666,0,0,1,7,16.25Z" fill="#8ba7fa"/>
</svg>
