<svg xmlns="http://www.w3.org/2000/svg" width="21.093" height="21.093" viewBox="0 0 21.093 21.093">
  <g id="logout" transform="translate(0 -0.008)">
    <path id="Path_99" data-name="Path 99" d="M286.026,209.28h-8.058a.636.636,0,1,1,0-1.272h8.058a.636.636,0,1,1,0,1.272Zm0,0" transform="translate(-265.57 -199.411)" fill="#e25f64"/>
    <path id="Path_100" data-name="Path 100" d="M400.64,135.605a.637.637,0,0,1-.45-1.087l2.731-2.731-2.731-2.731a.636.636,0,1,1,.9-.9l3.181,3.181a.636.636,0,0,1,0,.9l-3.181,3.181A.632.632,0,0,1,400.64,135.605Zm0,0" transform="translate(-383.364 -122.58)" fill="#e25f64"/>
    <path id="Path_101" data-name="Path 101" d="M6.785,21.1a1.692,1.692,0,0,1-.526-.082l-5.1-1.762A1.77,1.77,0,0,1,0,17.586V1.766A1.73,1.73,0,0,1,1.7.008,1.693,1.693,0,0,1,2.222.09l5.1,1.762A1.77,1.77,0,0,1,8.481,3.524v15.82a1.73,1.73,0,0,1-1.7,1.758ZM1.7,1.326a.433.433,0,0,0-.424.439v15.82a.456.456,0,0,0,.294.424l5.081,1.754a.446.446,0,0,0,.138.019.433.433,0,0,0,.424-.439V3.524A.456.456,0,0,0,6.915,3.1L1.834,1.346A.445.445,0,0,0,1.7,1.326Zm0,0" transform="translate(0 0)" fill="#e25f64"/>
    <path id="Path_102" data-name="Path 102" d="M38.542,6.793a.636.636,0,0,1-.636-.636V2.341a1.062,1.062,0,0,0-1.06-1.06H27.3a.636.636,0,1,1,0-1.272h9.542a2.334,2.334,0,0,1,2.332,2.333V6.157A.636.636,0,0,1,38.542,6.793Zm0,0" transform="translate(-25.608 0)" fill="#e25f64"/>
    <path id="Path_103" data-name="Path 103" d="M185.361,284.125h-3.393a.636.636,0,1,1,0-1.272h3.393a1.062,1.062,0,0,0,1.06-1.06v-3.817a.636.636,0,1,1,1.272,0v3.817A2.334,2.334,0,0,1,185.361,284.125Zm0,0" transform="translate(-173.744 -265.569)" fill="#e25f64"/>
  </g>
</svg>
