<svg xmlns="http://www.w3.org/2000/svg" width="24.172" height="30.94" viewBox="0 0 24.172 30.94">
  <g id="svgexport-6" transform="translate(0 0)">
    <path id="Path_13885" data-name="Path 13885" d="M72.219,0a8.219,8.219,0,0,0-4.351,15.192v2.7a.483.483,0,0,0,.483.483h7.735a.483.483,0,0,0,.483-.483v-2.7A8.219,8.219,0,0,0,72.219,0Zm0,0" transform="translate(-60.132 0)" fill="#ffe06f"/>
    <path id="Path_13886" data-name="Path 13886" d="M70.285,17.887v-2.7A8.22,8.22,0,0,1,73.427.089a8.219,8.219,0,0,0-5.56,15.1v2.7a.483.483,0,0,0,.483.483h2.417a.483.483,0,0,1-.483-.483Zm0,0" transform="translate(-60.132 0)" fill="#ffcb0f"/>
    <g id="Group_12243" data-name="Group 12243" transform="translate(0 1.933)">
      <path id="Path_13887" data-name="Path 13887" d="M143.252,128h-6.768a.483.483,0,1,0,0,.967h2.9v9.669h.967v-9.669h2.9a.483.483,0,1,0,0-.967Zm0,0" transform="translate(-127.781 -122.199)" fill="#ffb047"/>
      <path id="Path_13888" data-name="Path 13888" d="M1.45,128.967H.483a.483.483,0,0,1,0-.967H1.45a.483.483,0,0,1,0,.967Zm0,0" transform="translate(0 -122.199)" fill="#ffb047"/>
      <path id="Path_13889" data-name="Path 13889" d="M26.2,217.448a.483.483,0,0,1-.242-.9l.837-.483a.484.484,0,0,1,.483.838l-.837.483A.481.481,0,0,1,26.2,217.448Zm0,0" transform="translate(-24.166 -204.878)" fill="#ffb047"/>
      <path id="Path_13890" data-name="Path 13890" d="M27.043,33.449a.482.482,0,0,1-.241-.065l-.837-.483a.484.484,0,0,1,.483-.838l.837.483a.483.483,0,0,1-.242.9Zm0,0" transform="translate(-24.168 -31.998)" fill="#ffb047"/>
      <path id="Path_13891" data-name="Path 13891" d="M369.45,128.967h-.967a.483.483,0,1,1,0-.967h.967a.483.483,0,0,1,0,.967Zm0,0" transform="translate(-345.762 -122.199)" fill="#ffb047"/>
      <path id="Path_13892" data-name="Path 13892" d="M345.742,217.448a.482.482,0,0,1-.241-.065l-.837-.483a.484.484,0,1,1,.483-.838l.837.483a.483.483,0,0,1-.242.9Zm0,0" transform="translate(-323.608 -204.878)" fill="#ffb047"/>
      <path id="Path_13893" data-name="Path 13893" d="M344.9,33.448a.483.483,0,0,1-.242-.9l.837-.483a.484.484,0,0,1,.483.838l-.837.483A.482.482,0,0,1,344.9,33.448Zm0,0" transform="translate(-323.605 -31.997)" fill="#ffb047"/>
    </g>
    <path id="Path_13894" data-name="Path 13894" d="M136.219,288h-7.735a.484.484,0,0,0-.483.483v4.834a.484.484,0,0,0,.051.216l3.868,7.735a.484.484,0,0,0,.865,0l3.868-7.735a.484.484,0,0,0,.051-.216v-4.834A.484.484,0,0,0,136.219,288Zm0,0" transform="translate(-120.265 -270.596)" fill="#ffebd1"/>
    <path id="Path_13895" data-name="Path 13895" d="M130.468,293.534a.484.484,0,0,1-.051-.216v-4.834A.483.483,0,0,1,130.9,288h-2.417a.483.483,0,0,0-.483.483v4.834a.484.484,0,0,0,.051.216l3.868,7.735a.484.484,0,0,0,.865,0l.776-1.552Zm0,0" transform="translate(-120.265 -270.596)" fill="#ffc475"/>
    <path id="Path_13896" data-name="Path 13896" d="M171.055,464l1.317,2.633a.483.483,0,0,0,.865,0l.776-1.552L173.472,464Zm0,0" transform="translate(-160.718 -435.96)" fill="#685064"/>
    <path id="Path_13897" data-name="Path 13897" d="M211.055,464l.541,1.081.541-1.081Zm0,0" transform="translate(-198.301 -435.96)" fill="#867383"/>
    <path id="Path_13898" data-name="Path 13898" d="M136.7,288H128v4.834a.483.483,0,0,0,.483.483h7.735a.483.483,0,0,0,.483-.483Zm0,0" transform="translate(-120.265 -270.596)" fill="#5b83f9"/>
    <path id="Path_13899" data-name="Path 13899" d="M130.417,292.834v-4.351A.483.483,0,0,1,130.9,288h-2.417a.484.484,0,0,0-.483.483v4.351a.483.483,0,0,0,.483.483H130.9A.483.483,0,0,1,130.417,292.834Zm0,0" transform="translate(-120.265 -270.596)" fill="#416ff4"/>
    <path id="Path_13900" data-name="Path 13900" d="M168,288h3.868v5.318H168Zm0,0" transform="translate(-157.848 -270.596)" fill="#96d6a4"/>
  </g>
</svg>
