<svg id="Group" xmlns="http://www.w3.org/2000/svg" width="20" height="20" viewBox="0 0 20 20">
  <path id="Combined_Shape" data-name="Combined Shape" d="M2.01,20a1.984,1.984,0,0,1-1.393-.592A2.172,2.172,0,0,1,0,17.861V3.2A3.11,3.11,0,0,1,3,0H17a3.11,3.11,0,0,1,3,3.2V13.878a3.11,3.11,0,0,1-3,3.2H6L3.281,19.5A1.893,1.893,0,0,1,2.01,20ZM3,1.6A1.554,1.554,0,0,0,1.5,3.2V17.861A.52.52,0,0,0,2,18.4a.474.474,0,0,0,.317-.124l2.72-2.42A1.447,1.447,0,0,1,6,15.48H17a1.555,1.555,0,0,0,1.5-1.6V3.2A1.555,1.555,0,0,0,17,1.6Z" transform="translate(0 0)" fill="#ffcb42"/>
  <path id="Vector_409_Stroke_" data-name="Vector 409 (Stroke)" d="M.792,0H9.236a.792.792,0,1,1,0,1.583H.792A.792.792,0,1,1,.792,0Z" transform="translate(4.986 5.61)" fill="#ffcb42"/>
  <path id="Vector_410_Stroke_" data-name="Vector 410 (Stroke)" d="M.792,0H5.014a.792.792,0,1,1,0,1.583H.792A.792.792,0,1,1,.792,0Z" transform="translate(5.139 9.885)" fill="#ffcb42"/>
</svg>
