<svg xmlns="http://www.w3.org/2000/svg" width="14" height="21" viewBox="0 0 14 21">
  <g id="device" transform="translate(-5 -1.5)">
    <path id="Path_16154" data-name="Path 16154" d="M16.424,1.5H7.576A2.579,2.579,0,0,0,5,4.076V19.924A2.579,2.579,0,0,0,7.576,22.5h8.848A2.579,2.579,0,0,0,19,19.924V4.076A2.579,2.579,0,0,0,16.424,1.5ZM18,19.924A1.578,1.578,0,0,1,16.424,21.5H7.576A1.578,1.578,0,0,1,6,19.924V4.076A1.578,1.578,0,0,1,7.576,2.5h8.848A1.578,1.578,0,0,1,18,4.076Z" fill="#d6d4d4"/>
    <path id="Path_16155" data-name="Path 16155" d="M14,3.5H10a.5.5,0,0,0,0,1h4a.5.5,0,0,0,0-1Z" fill="#d6d4d4"/>
    <path id="Path_16156" data-name="Path 16156" d="M12,17.5A1.5,1.5,0,1,0,13.5,19,1.5,1.5,0,0,0,12,17.5Zm0,2a.5.5,0,1,1,.5-.5A.5.5,0,0,1,12,19.5Z" fill="#d6d4d4"/>
  </g>
</svg>
