<svg id="Group_12786" data-name="Group 12786" xmlns="http://www.w3.org/2000/svg" width="31.086" height="26.725" viewBox="0 0 31.086 26.725">
  <g id="Group_12785" data-name="Group 12785" transform="translate(0 0)">
    <path id="Path_14837" data-name="Path 14837" d="M31.042,43.71h0L25.173,28.973a.61.61,0,0,0-.793-.341h0L.569,38.113a.6.6,0,0,0-.244.194.6.6,0,0,0-.325.53V54.7a.61.61,0,0,0,.61.61H26.24a.61.61,0,0,0,.61-.61V46.038L30.7,44.5A.61.61,0,0,0,31.042,43.71ZM25.63,54.092H1.22V39.447H25.63ZM10.182,38.23,20.4,34.158a4.855,4.855,0,0,0,3.5,1.508l1.019,2.563Zm16.668,6.5v-5.89a.61.61,0,0,0-.61-.61h-.01l-1.293-3.248a.505.505,0,0,0-.05-.077.6.6,0,0,0-.638-.47,3.649,3.649,0,0,1-3.2-1.378.6.6,0,0,0-.783-.137.685.685,0,0,0-.086.016L7.707,37.9a.6.6,0,0,0-.335.326H3.583l20.682-8.235,5.418,13.6Z" transform="translate(0 -28.588)" fill="#ffcb42"/>
    <path id="Path_14838" data-name="Path 14838" d="M32.436,196.25a3.649,3.649,0,0,1,2.463,2.46.61.61,0,0,0,.585.436.557.557,0,0,0,.094-.014.566.566,0,0,0,.084.017H50.307a.524.524,0,0,0,.074-.015.568.568,0,0,0,.686-.418v0a3.648,3.648,0,0,1,2.463-2.463.6.6,0,0,0,.419-.671.615.615,0,0,0,.018-.09v-4.882a.551.551,0,0,0-.018-.09.6.6,0,0,0-.419-.671,3.645,3.645,0,0,1-2.462-2.464.6.6,0,0,0-.676-.419.582.582,0,0,0-.086-.017H35.661a.578.578,0,0,0-.091.018.6.6,0,0,0-.671.419,3.649,3.649,0,0,1-2.463,2.463.6.6,0,0,0-.419.671.617.617,0,0,0-.017.09v4.882a.562.562,0,0,0,.017.085A.6.6,0,0,0,32.436,196.25Zm.785-5.4a4.842,4.842,0,0,0,2.689-2.689H50.058a4.844,4.844,0,0,0,2.689,2.689v4.386a4.848,4.848,0,0,0-2.689,2.689H35.909a4.848,4.848,0,0,0-2.689-2.689Z" transform="translate(-29.559 -174.866)" fill="#ffcb42"/>
    <path id="Path_14839" data-name="Path 14839" d="M131.661,226.268A3.661,3.661,0,1,0,128,222.606,3.661,3.661,0,0,0,131.661,226.268Zm0-6.1a2.441,2.441,0,1,1-2.441,2.441A2.441,2.441,0,0,1,131.661,220.165Z" transform="translate(-118.236 -204.425)" fill="#ffcb42"/>
    <path id="Path_14840" data-name="Path 14840" d="M76.915,256.776A.915.915,0,1,0,76,255.86.915.915,0,0,0,76.915,256.776Zm0-1.22a.305.305,0,1,1-.305.305A.305.305,0,0,1,76.915,255.555Z" transform="translate(-70.203 -237.679)" fill="#ffcb42"/>
    <path id="Path_14841" data-name="Path 14841" d="M252.915,256.776a.915.915,0,1,0-.915-.915A.915.915,0,0,0,252.915,256.776Zm0-1.22a.305.305,0,1,1-.305.305A.305.305,0,0,1,252.915,255.555Z" transform="translate(-232.778 -237.679)" fill="#ffcb42"/>
  </g>
</svg>
