<svg xmlns="http://www.w3.org/2000/svg" width="32.229" height="32.229" viewBox="0 0 32.229 32.229">
  <g id="notebook_1_" data-name="notebook (1)" transform="translate(0 -0.004)">
    <path id="Path_14996" data-name="Path 14996" d="M137.85,88.675H127.366a.472.472,0,0,0-.472.472v7.792a.472.472,0,0,0,.472.472h10.485a.472.472,0,0,0,.472-.472V89.147A.472.472,0,0,0,137.85,88.675Zm-.472,7.792h-9.54V89.619h9.54v6.848Z" transform="translate(-118.906 -83.089)" fill="#5b83f9"/>
    <path id="Path_14997" data-name="Path 14997" d="M169.036,133.515h5.238a.472.472,0,0,0,0-.944h-5.238a.472.472,0,1,0,0,.944Z" transform="translate(-157.953 -124.222)" fill="#5b83f9"/>
    <path id="Path_14998" data-name="Path 14998" d="M169.036,169.513h5.238a.472.472,0,0,0,0-.944h-5.238a.472.472,0,1,0,0,.944Z" transform="translate(-157.953 -157.954)" fill="#5b83f9"/>
    <path id="Path_14999" data-name="Path 14999" d="M32.148,7.883a1.6,1.6,0,0,0-.8-.933l-.684-.345a1.636,1.636,0,0,0-2.16.712l-.543,1.077a1.418,1.418,0,0,0-1.507,1.778,1.423,1.423,0,0,0-.673,2.1L24.251,15.3V1.234A1.232,1.232,0,0,0,23.019,0H2.267A2.27,2.27,0,0,0,0,2.271V29.966a2.27,2.27,0,0,0,2.267,2.267H23.072a1.178,1.178,0,0,0,1.178-1.174V25.2a.472.472,0,0,0-.017-.122l3.195-6.339a.472.472,0,0,0-.843-.425l-2.96,5.873a3.029,3.029,0,0,0-2.233-1.126l5.149-10.216,2.233,1.126-.808,1.6A.473.473,0,0,0,28.81,16l.887-1.759a1.422,1.422,0,0,0,1.284-1.787,1.415,1.415,0,0,0,.533-2.27l.542-1.076a1.6,1.6,0,0,0,.091-1.228Zm-2.42-.472a.66.66,0,0,1,.507.038l.684.345a.664.664,0,0,1,.294.892l-.505,1-1.87-.943.505-1a.661.661,0,0,1,.385-.332ZM27.384,9.576a.451.451,0,0,1,.606-.2L30.7,10.744a.452.452,0,0,1-.407.806l-2.713-1.368A.452.452,0,0,1,27.384,9.576Zm-4.32,15.466-.562.432a2.073,2.073,0,0,0-1.474-.728l.013-.724A2.109,2.109,0,0,1,23.064,25.042Zm-2.07,1.592.018-.943a1.153,1.153,0,0,1,.74.361Zm-.839-3.212a.5.5,0,0,0-.05.2l-.073,3.963c.057.344.375.688.76.392l1.863-1.432h0l.653-.5v5.011a.232.232,0,0,1-.234.23H4.275V10.933a.472.472,0,1,0-.944,0V31.288H2.267A1.324,1.324,0,0,1,.944,29.965V2.271A1.324,1.324,0,0,1,2.267.948H3.33V8.416a.472.472,0,0,0,.944,0V.948H23.019a.287.287,0,0,1,.287.286V17.169Zm9.891-10.369a.477.477,0,0,1-.606.2l-2.714-1.368c-.511-.258-.088-1.055.407-.806l2.714,1.368A.451.451,0,0,1,30.046,13.053Z" transform="translate(0)" fill="#5b83f9"/>
  </g>
</svg>
