<svg xmlns="http://www.w3.org/2000/svg" width="22" height="22" viewBox="0 0 22 22">
  <g id="profile" transform="translate(0.001)">
    <path id="Path_123" data-name="Path 123" d="M18.778,3.222A11,11,0,0,0,3.221,18.778,11,11,0,0,0,18.778,3.222Zm-14,15.224A6.293,6.293,0,0,1,11,12.908a6.27,6.27,0,0,1,6.226,5.538,9.691,9.691,0,0,1-12.452,0ZM11,11.58a3.341,3.341,0,1,1,3.341-3.341A3.345,3.345,0,0,1,11,11.58Zm7.336,5.776a7.578,7.578,0,0,0-4.743-5.283,4.63,4.63,0,1,0-5.183,0,7.571,7.571,0,0,0-4.746,5.28,9.711,9.711,0,1,1,14.672,0Zm0,0" transform="translate(0 0)" fill="#d6d4d4"/>
  </g>
</svg>
