<svg xmlns="http://www.w3.org/2000/svg" width="18.081" height="19.978" viewBox="0 0 18.081 19.978">
  <path id="ic_assignment_ind_24px" d="M18.183,2.9H14.216a2.835,2.835,0,0,0-5.352,0H4.9A1.9,1.9,0,0,0,3,4.8V18.081a1.9,1.9,0,0,0,1.9,1.9H18.183a1.9,1.9,0,0,0,1.9-1.9V4.8A1.9,1.9,0,0,0,18.183,2.9Zm-6.642,0a.949.949,0,1,1-.949.949A.952.952,0,0,1,11.54,2.9Zm0,3.8A2.847,2.847,0,1,1,8.694,9.54,2.843,2.843,0,0,1,11.54,6.694Zm5.694,11.387H5.847V16.752c0-1.9,3.8-2.942,5.694-2.942s5.694,1.044,5.694,2.942Z" transform="translate(-2.5 -0.5)" fill="none" stroke="#8ba7fa" stroke-width="1"/>
</svg>
