<svg id="svgexport-6_5_" data-name="svgexport-6 (5)" xmlns="http://www.w3.org/2000/svg" width="30.253" height="26.425" viewBox="0 0 30.253 26.425">
  <path id="Path_5440" data-name="Path 5440" d="M389.067,350.337a36.547,36.547,0,0,0-5.03-1.738.8.8,0,0,1-.571-.955l.787-3.386a40.911,40.911,0,0,1,6.534,2.18c.321.142.341.536.038.635q-.934.305-1.847.667a.309.309,0,0,0-.171.423q.39.873.729,1.766A.334.334,0,0,1,389.067,350.337Zm0,0" transform="translate(-360.788 -323.946)" fill="#f4b425"/>
  <path id="Path_5441" data-name="Path 5441" d="M1.974,350.337A36.544,36.544,0,0,1,7,348.6a.8.8,0,0,0,.571-.955l-.787-3.386a40.909,40.909,0,0,0-6.534,2.18c-.321.142-.341.536-.038.635q.933.305,1.847.667a.309.309,0,0,1,.171.423q-.39.873-.729,1.766a.334.334,0,0,0,.47.408Zm0,0" transform="translate(0 -323.946)" fill="#f4b425"/>
  <path id="Path_5442" data-name="Path 5442" d="M56.908,295.035l1.014,3.164a.469.469,0,0,0,.579.307,35.571,35.571,0,0,1,20.3,0,.469.469,0,0,0,.579-.307l1.014-3.164a.471.471,0,0,0-.316-.595,39.855,39.855,0,0,0-22.854,0,.471.471,0,0,0-.316.595Zm0,0" transform="translate(-53.524 -275.498)" fill="#fcdf6c"/>
  <path id="Path_5443" data-name="Path 5443" d="M67.939,26.225C79.987,19.131,79.211,7.71,78.818,4.918a.739.739,0,0,0-.725-.637h-.024A17.191,17.191,0,0,1,67.85.78,1.443,1.443,0,0,0,67.134.5h0a1.443,1.443,0,0,0-.716.28A17.193,17.193,0,0,1,56.2,4.28h-.024a.739.739,0,0,0-.725.637c-.393,2.792-1.17,14.213,10.878,21.308a1.588,1.588,0,0,0,1.612,0Zm0,0" transform="translate(-52.006 -0.5)" fill="#5b83f9"/>
  <path id="Path_5444" data-name="Path 5444" d="M108.826,71.358a20.421,20.421,0,0,1-5.9-5.394,17.671,17.671,0,0,1-2.866-6.382,19.257,19.257,0,0,1-.466-5.059,19.87,19.87,0,0,0,9.227-3.324,19.872,19.872,0,0,0,9.225,3.324,19.249,19.249,0,0,1-.513,5.265,18.5,18.5,0,0,1-8.712,11.57Zm0,0" transform="translate(-93.698 -48.203)" fill="#f8fbff"/>
  <path id="Path_5445" data-name="Path 5445" d="M225.473,99.853a19.8,19.8,0,0,1-2.809-.478,19.168,19.168,0,0,1-.526,4.16A18.409,18.409,0,0,1,213.75,114.9a23.059,23.059,0,0,0,2.5,1.789,18.505,18.505,0,0,0,8.712-11.57,19.26,19.26,0,0,0,.513-5.265Zm0,0" transform="translate(-201.12 -93.533)" fill="#e4eaf7"/>
</svg>
