<svg id="svgexport-10_25_" data-name="svgexport-10 (25)" xmlns="http://www.w3.org/2000/svg" width="22.127" height="29.661" viewBox="0 0 22.127 29.661">
  <path id="Path_5453" data-name="Path 5453" d="M133.842,302.441l-6.035-9.3h-8.346l8.114,12.506a.379.379,0,0,0,.64-.007l1.715-2.779a.55.55,0,0,1,.544-.256l3,.419a.379.379,0,0,0,.37-.582Zm0,0" transform="translate(-112.569 -276.158)" fill="#fcdf6c"/>
  <path id="Path_5454" data-name="Path 5454" d="M210.911,302.441l-6.035-9.3h-3.607l6,9.5a.551.551,0,0,1,.271-.032l3,.419A.379.379,0,0,0,210.911,302.441Zm0,0" transform="translate(-189.638 -276.158)" fill="#f4b425"/>
  <path id="Path_5455" data-name="Path 5455" d="M14.241,302.441l6.035-9.3h8.346l-8.114,12.506a.379.379,0,0,1-.64-.007l-1.715-2.779a.55.55,0,0,0-.544-.256l-3,.419a.379.379,0,0,1-.37-.582Zm0,0" transform="translate(-13.387 -276.158)" fill="#fcdf6c"/>
  <path id="Path_5456" data-name="Path 5456" d="M93.148,293.141l-6.527,10.081,1.492,2.418a.379.379,0,0,0,.64.007l8.114-12.506Zm0,0" transform="translate(-81.632 -276.158)" fill="#f4b425"/>
  <path id="Path_5457" data-name="Path 5457" d="M11.874.715,13.3.067a.754.754,0,0,1,.862.172l1.071,1.145a.754.754,0,0,0,.576.239l1.567-.053a.753.753,0,0,1,.731.489l.551,1.468a.754.754,0,0,0,.441.441l1.468.551a.754.754,0,0,1,.489.731L21,6.815a.754.754,0,0,0,.239.576l1.145,1.071a.754.754,0,0,1,.172.862l-.649,1.427a.755.755,0,0,0,0,.624l.649,1.427a.754.754,0,0,1-.172.862l-1.145,1.071A.754.754,0,0,0,21,15.31l.053,1.567a.754.754,0,0,1-.489.731l-1.468.551a.754.754,0,0,0-.441.441l-.551,1.468a.754.754,0,0,1-.731.489L15.81,20.5a.754.754,0,0,0-.576.239l-1.071,1.145a.754.754,0,0,1-.862.172l-1.427-.649a.755.755,0,0,0-.623,0l-1.427.649a.754.754,0,0,1-.862-.172L7.89,20.742a.754.754,0,0,0-.576-.239l-1.567.053a.754.754,0,0,1-.731-.489L4.466,18.6a.754.754,0,0,0-.441-.441l-1.468-.551a.753.753,0,0,1-.489-.731l.053-1.567a.754.754,0,0,0-.239-.576L.738,13.664A.754.754,0,0,1,.566,12.8l.649-1.427a.755.755,0,0,0,0-.624L.566,9.324a.754.754,0,0,1,.172-.862L1.883,7.391a.754.754,0,0,0,.239-.576L2.069,5.248a.753.753,0,0,1,.489-.731l1.468-.551a.754.754,0,0,0,.441-.441l.551-1.468a.753.753,0,0,1,.731-.489l1.567.053a.754.754,0,0,0,.576-.239L8.961.238A.754.754,0,0,1,9.823.067L11.25.715a.755.755,0,0,0,.623,0Zm0,0" transform="translate(-0.499 0.001)" fill="#5b83f9"/>
  <path id="Path_5458" data-name="Path 5458" d="M73.479,65.248a7.732,7.732,0,1,1-7.732-7.732,7.732,7.732,0,0,1,7.732,7.732Zm0,0" transform="translate(-54.684 -54.184)" fill="#f8fbff"/>
  <path id="Path_5459" data-name="Path 5459" d="M166.682,57.515a7.779,7.779,0,0,0-1.525.151,7.733,7.733,0,0,1,0,15.162,7.732,7.732,0,1,0,1.525-15.312Zm0,0" transform="translate(-155.618 -54.183)" fill="#e4eaf7"/>
</svg>
