<svg id="questions" xmlns="http://www.w3.org/2000/svg" width="21.022" height="21.022" viewBox="0 0 21.022 21.022">
  <path id="Path_14071" data-name="Path 14071" d="M21.022,14.227a6.811,6.811,0,0,0-4.976-6.548A8.027,8.027,0,1,0,1.113,12.107L.03,16.024l3.917-1.083a8,8,0,0,0,3.732,1.1,6.8,6.8,0,0,0,10.006,4.032l3.308.915-.915-3.308a6.771,6.771,0,0,0,.945-3.458ZM4.141,13.609,1.8,14.258l.649-2.345L2.3,11.681a6.793,6.793,0,1,1,2.076,2.076Zm15.085,5.617-1.74-.481-.232.151a5.566,5.566,0,0,1-8.3-2.9A8.042,8.042,0,0,0,16,8.952a5.566,5.566,0,0,1,2.9,8.3l-.151.232Zm0,0" fill="#8ba7fa"/>
  <path id="Path_14072" data-name="Path 14072" d="M180.5,271h1.232v1.232H180.5Zm0,0" transform="translate(-173.089 -259.873)" fill="#8ba7fa"/>
  <path id="Path_14073" data-name="Path 14073" d="M139.2,92.464a1.219,1.219,0,0,1-.4.909L137.348,94.7v1.5h1.232v-.961l1.047-.958a2.463,2.463,0,1,0-4.126-1.818h1.232a1.232,1.232,0,1,1,2.464,0Zm0,0" transform="translate(-129.937 -86.305)" fill="#8ba7fa"/>
</svg>
