<svg id="svgexport-7" xmlns="http://www.w3.org/2000/svg" width="26.424" height="26.424" viewBox="0 0 26.424 26.424">
  <path id="Path_5434" data-name="Path 5434" d="M15.027.944a2.217,2.217,0,0,0,2.749.736,2.217,2.217,0,0,1,3.143,1.814,2.217,2.217,0,0,0,2.012,2.012A2.217,2.217,0,0,1,24.745,8.65a2.217,2.217,0,0,0,.737,2.749,2.217,2.217,0,0,1,0,3.629,2.217,2.217,0,0,0-.737,2.749,2.217,2.217,0,0,1-1.814,3.142,2.217,2.217,0,0,0-2.012,2.012,2.217,2.217,0,0,1-3.143,1.814,2.217,2.217,0,0,0-2.749.737,2.217,2.217,0,0,1-3.629,0,2.217,2.217,0,0,0-2.749-.737,2.217,2.217,0,0,1-3.143-1.814,2.217,2.217,0,0,0-2.012-2.012A2.217,2.217,0,0,1,1.68,17.776a2.217,2.217,0,0,0-.736-2.749,2.217,2.217,0,0,1,0-3.629A2.217,2.217,0,0,0,1.68,8.65,2.217,2.217,0,0,1,3.495,5.507,2.217,2.217,0,0,0,5.507,3.495,2.217,2.217,0,0,1,8.649,1.68,2.217,2.217,0,0,0,11.4.944a2.217,2.217,0,0,1,3.629,0Zm0,0" transform="translate(-0.001 -0.001)" fill="#5b83f9"/>
  <path id="Path_5435" data-name="Path 5435" d="M229.047.952a2.217,2.217,0,0,0,2.749.736,2.232,2.232,0,0,1,.629-.186,2.219,2.219,0,0,1-.554-.55,2.218,2.218,0,0,0-3.226-.436,2.237,2.237,0,0,1,.4.436Zm0,0" transform="translate(-216.844 -0.009)" fill="#5db2f0"/>
  <path id="Path_5436" data-name="Path 5436" d="M79.762,69.619A10.142,10.142,0,1,1,69.619,59.477,10.142,10.142,0,0,1,79.762,69.619Zm0,0" transform="translate(-56.407 -56.407)" fill="#f8fbff"/>
  <path id="Path_5437" data-name="Path 5437" d="M230.056,59.477a10.222,10.222,0,0,0-1.412.1,10.143,10.143,0,0,1,0,20.088,10.143,10.143,0,1,0,1.412-20.186Zm0,0" transform="translate(-216.844 -56.407)" fill="#e4eaf7"/>
  <path id="Path_5438" data-name="Path 5438" d="M134,123.625l1.488,3.958,4.224.192a.5.5,0,0,1,.291.9l-3.3,2.638,1.122,4.076a.5.5,0,0,1-.763.554l-3.53-2.327L130,135.94a.5.5,0,0,1-.763-.554l1.122-4.076-3.3-2.638a.5.5,0,0,1,.291-.9l4.224-.192,1.488-3.958a.5.5,0,0,1,.943,0Zm0,0" transform="translate(-120.314 -116.936)" fill="#fcdf6c"/>
  <path id="Path_5439" data-name="Path 5439" d="M268.582,208.216l-2.173-.1-3.662,2.924L263.838,215l2.091,1.378a.5.5,0,0,0,.763-.554l-1.123-4.076,3.3-2.638A.5.5,0,0,0,268.582,208.216Zm0,0" transform="translate(-249.186 -197.376)" fill="#f4b425"/>
</svg>
