<svg xmlns="http://www.w3.org/2000/svg" width="18.395" height="23.492" viewBox="0 0 18.395 23.492">
  <g id="Quality" transform="translate(-5.395 -1.024)">
    <path id="Path_16091" data-name="Path 16091" d="M21.616,16.365l.009-.025a2.418,2.418,0,0,1,.29-.666,2.319,2.319,0,0,1,.564-.432,2.442,2.442,0,0,0,1.008-.959,2.5,2.5,0,0,0,.1-1.381,2.463,2.463,0,0,1-.019-.743,2.349,2.349,0,0,1,.32-.63,2.515,2.515,0,0,0,.5-1.32,2.518,2.518,0,0,0-.5-1.319,2.347,2.347,0,0,1-.32-.631,2.46,2.46,0,0,1,.019-.742,2.5,2.5,0,0,0-.1-1.381,2.445,2.445,0,0,0-1.007-.959,2.321,2.321,0,0,1-.565-.433,2.425,2.425,0,0,1-.291-.666,2.479,2.479,0,0,0-.687-1.211,2.384,2.384,0,0,0-1.312-.419,2.281,2.281,0,0,1-.7-.142,2.334,2.334,0,0,1-.531-.462,2.43,2.43,0,0,0-1.152-.8,2.368,2.368,0,0,0-1.346.205,2.331,2.331,0,0,1-.7.185,2.324,2.324,0,0,1-.7-.185,2.359,2.359,0,0,0-1.347-.2,2.427,2.427,0,0,0-1.151.8,2.309,2.309,0,0,1-.531.462,2.281,2.281,0,0,1-.7.142,2.384,2.384,0,0,0-1.312.419A2.484,2.484,0,0,0,8.77,4.078a2.418,2.418,0,0,1-.29.666,2.319,2.319,0,0,1-.564.432,2.442,2.442,0,0,0-1.008.959,2.5,2.5,0,0,0-.1,1.381,2.463,2.463,0,0,1,.019.743,2.349,2.349,0,0,1-.32.63,2.515,2.515,0,0,0-.5,1.32,2.518,2.518,0,0,0,.5,1.319,2.347,2.347,0,0,1,.32.631A2.46,2.46,0,0,1,6.8,12.9a2.5,2.5,0,0,0,.1,1.381,2.445,2.445,0,0,0,1.007.959,2.321,2.321,0,0,1,.565.433,2.425,2.425,0,0,1,.291.666l.009.027-.006.007L6.138,20.94a1.022,1.022,0,0,0,1.039,1.521l1.779-.27.656,1.677a1.014,1.014,0,0,0,.875.646q.04,0,.079,0a1.014,1.014,0,0,0,.883-.511l2.73-4.729c.109-.035.214-.073.316-.111a2.331,2.331,0,0,1,.7-.185,2.324,2.324,0,0,1,.7.185c.1.037.209.074.318.11l0,.007,2.727,4.723a1.014,1.014,0,0,0,.883.511q.04,0,.079,0a1.015,1.015,0,0,0,.875-.647l.655-1.677,1.778.27a1.022,1.022,0,0,0,1.04-1.521ZM10.563,23.495l-.8-2.057a.513.513,0,0,0-.553-.319l-2.183.332,2.32-4.019a1.375,1.375,0,0,0,.114.119,2.384,2.384,0,0,0,1.312.419,2.281,2.281,0,0,1,.7.142,2.334,2.334,0,0,1,.531.462,2.743,2.743,0,0,0,.983.735Zm5.687-5.289a3.113,3.113,0,0,0-1.053-.246,3.1,3.1,0,0,0-1.053.246,1.677,1.677,0,0,1-.765.17,1.74,1.74,0,0,1-.647-.51,3.039,3.039,0,0,0-.815-.669,3.07,3.07,0,0,0-1.037-.241,1.657,1.657,0,0,1-.777-.195,1.786,1.786,0,0,1-.365-.744,3.141,3.141,0,0,0-.455-.971,3.054,3.054,0,0,0-.824-.668,1.71,1.71,0,0,1-.629-.53,1.781,1.781,0,0,1-.013-.828,3.277,3.277,0,0,0,0-1.082,3.1,3.1,0,0,0-.452-.95,1.767,1.767,0,0,1-.347-.778,1.765,1.765,0,0,1,.347-.778,3.085,3.085,0,0,0,.452-.95,3.277,3.277,0,0,0,0-1.082,1.773,1.773,0,0,1,.013-.828,1.706,1.706,0,0,1,.629-.531,3.052,3.052,0,0,0,.825-.668,3.142,3.142,0,0,0,.454-.97,1.792,1.792,0,0,1,.365-.744,1.657,1.657,0,0,1,.777-.195,3.07,3.07,0,0,0,1.037-.242,3.02,3.02,0,0,0,.815-.669,1.74,1.74,0,0,1,.647-.51,1.688,1.688,0,0,1,.765.17,3.113,3.113,0,0,0,1.052.247,3.1,3.1,0,0,0,1.053-.246,1.691,1.691,0,0,1,.765-.17,1.741,1.741,0,0,1,.647.51,3.039,3.039,0,0,0,.815.669,3.07,3.07,0,0,0,1.037.241,1.657,1.657,0,0,1,.777.195,1.786,1.786,0,0,1,.365.744,3.141,3.141,0,0,0,.455.971,3.054,3.054,0,0,0,.824.668,1.71,1.71,0,0,1,.629.53,1.781,1.781,0,0,1,.013.828,3.277,3.277,0,0,0,0,1.082,3.1,3.1,0,0,0,.452.95,1.767,1.767,0,0,1,.347.778,1.765,1.765,0,0,1-.347.778,3.085,3.085,0,0,0-.452.95,3.277,3.277,0,0,0,0,1.082,1.773,1.773,0,0,1-.013.828,1.706,1.706,0,0,1-.629.531,3.052,3.052,0,0,0-.825.668,3.141,3.141,0,0,0-.454.97,1.792,1.792,0,0,1-.365.744,1.657,1.657,0,0,1-.777.195,3.07,3.07,0,0,0-1.037.242,3.021,3.021,0,0,0-.815.669,1.74,1.74,0,0,1-.647.51,1.7,1.7,0,0,1-.765-.17Zm4.939,2.913a.514.514,0,0,0-.553.319l-.8,2.057-2.417-4.187a2.741,2.741,0,0,0,.983-.734,2.309,2.309,0,0,1,.531-.462,2.281,2.281,0,0,1,.7-.142,2.384,2.384,0,0,0,1.312-.419,1.378,1.378,0,0,0,.114-.12l2.32,4.019Zm.141-10.909A6.132,6.132,0,1,0,15.2,16.341a6.132,6.132,0,0,0,6.132-6.132ZM15.2,15.319a5.11,5.11,0,1,1,5.11-5.11A5.11,5.11,0,0,1,15.2,15.319Zm2.327-7.068a.511.511,0,0,1,.142.709l-2.044,3.066a.511.511,0,0,1-.375.225l-.05,0a.511.511,0,0,1-.361-.15L13.3,10.571a.511.511,0,1,1,.723-.723l1.092,1.092,1.7-2.547a.511.511,0,0,1,.709-.142Z" transform="translate(-0.605)" fill="#ffcb42"/>
  </g>
</svg>
