<svg xmlns="http://www.w3.org/2000/svg" width="11.892" height="11.434" viewBox="0 0 11.892 11.434">
  <path id="star_1_" data-name="star (1)" d="M10.841,4.428a.577.577,0,0,0-.5-.4L7.207,3.746,5.966.843A.578.578,0,0,0,4.9.843l-1.241,2.9L.525,4.031A.578.578,0,0,0,.2,5.042l2.371,2.08-.7,3.08a.577.577,0,0,0,.859.624L5.435,9.209,8.14,10.826A.578.578,0,0,0,9,10.2l-.7-3.08,2.371-2.079A.578.578,0,0,0,10.841,4.428Zm0,0" transform="translate(0.511 0.008)" fill="none" stroke="#bebaba" stroke-width="1"/>
</svg>
