<svg xmlns="http://www.w3.org/2000/svg" width="34.386" height="34.388" viewBox="0 0 34.386 34.388">
  <g id="management_1_" data-name="management (1)" transform="translate(-0.014)">
    <g id="Group_14341" data-name="Group 14341" transform="translate(0.014 7.956)">
      <g id="Group_14340" data-name="Group 14340">
        <path id="Path_15050" data-name="Path 15050" d="M30.81,133.344l-2.242-.536v-.787a4.2,4.2,0,0,0,2.071-3.618V125.43a4.205,4.205,0,0,0-4.2-4.2h-.465a4.19,4.19,0,0,0-3.119,1.391,5.911,5.911,0,0,0-11.3,0A4.19,4.19,0,0,0,8.44,121.23H7.975a4.205,4.205,0,0,0-4.2,4.2V128.4a4.2,4.2,0,0,0,2.071,3.618v.787l-2.242.536a4.662,4.662,0,0,0-3.59,4.549v2.022a.672.672,0,0,0,.672.672H6.11a6.339,6.339,0,0,0-.052.807v2.148H2.029a.672.672,0,0,0,0,1.343H32.385a.672.672,0,0,0,0-1.343h-4.03V141.4a6.336,6.336,0,0,0-.052-.81h5.425a.672.672,0,0,0,.672-.672v-2.022A4.662,4.662,0,0,0,30.81,133.344Zm-7.693-7.913a2.86,2.86,0,0,1,2.857-2.857h.465A2.86,2.86,0,0,1,29.3,125.43v.172a5.071,5.071,0,0,1-2.722-.829.671.671,0,0,0-.735,0,5.07,5.07,0,0,1-2.722.829v-.172Zm0,2.424v-.908a6.408,6.408,0,0,0,3.089-.825,6.407,6.407,0,0,0,3.089.825V128.4a2.86,2.86,0,0,1-2.857,2.857h-.465a2.86,2.86,0,0,1-2.857-2.857v-.548Zm1.288,7.73a6.336,6.336,0,0,0-.848-.268l-2.134-.51a3.333,3.333,0,0,1,.49-.159l2.122-.508Zm-.556-3.562v.78l-2.249.539a4.667,4.667,0,0,0-1.367.569v-.982a5.954,5.954,0,0,0,2.187-2.293A4.231,4.231,0,0,0,23.849,132.023Zm-2.075-4.169a4.567,4.567,0,0,1-9.134,0v-1.967h.738a8.65,8.65,0,0,0,5.159-1.694l.154.23a3.292,3.292,0,0,0,2.741,1.464h.342v1.967Zm-9.134-3.492a4.567,4.567,0,0,1,9.134,0v.182h-.342a1.951,1.951,0,0,1-1.625-.868l-.248-.371q.3-.306.577-.645a.672.672,0,0,0-1.045-.844,7.313,7.313,0,0,1-5.713,2.728H12.64Zm-.646,6.275a5.953,5.953,0,0,0,2.194,2.3v.982a4.668,4.668,0,0,0-1.374-.573l-2.249-.539v-.78A4.233,4.233,0,0,0,11.994,130.637Zm.99,4.168-2.132.511a6.327,6.327,0,0,0-.843.266l.37-1.441,2.121.508A3.326,3.326,0,0,1,12.984,134.8ZM5.118,125.43a2.86,2.86,0,0,1,2.857-2.857H8.44A2.86,2.86,0,0,1,11.3,125.43v.172a5.071,5.071,0,0,1-2.722-.829.671.671,0,0,0-.735,0,5.069,5.069,0,0,1-2.722.829v-.172Zm0,2.972v-1.456a6.408,6.408,0,0,0,3.089-.825,6.407,6.407,0,0,0,3.089.825V128.4a2.86,2.86,0,0,1-2.857,2.857H7.975A2.86,2.86,0,0,1,5.118,128.4Zm1.319,10.841H1.357v-1.35a3.323,3.323,0,0,1,2.559-3.243l2.115-.505,1,3.894A6.214,6.214,0,0,0,6.437,139.243Zm.752-6.715a4.2,4.2,0,0,0,.786.075H8.44a4.2,4.2,0,0,0,.782-.074v.719l-.842,3.28c-.1.079-.195.16-.288.245l-.9-3.52v-.726ZM7.4,143.541v-2.148A4.892,4.892,0,0,1,9.453,137.4l6.141,6.141Zm3.306-6.786c.149-.051.3-.1.458-.134l3.207-.769L15.949,142Zm4.823-1.794v-1.438a5.914,5.914,0,0,0,3.359,0v1.448l-1.678,6.542Zm4.517.9,3.2.764c.161.038.318.085.471.138l-5.246,5.246Zm6.965,7.682H18.837l6.133-6.133a4.891,4.891,0,0,1,2.043,3.988Zm.213-10.288h0l-.9,3.522c-.093-.084-.189-.165-.286-.244l-.843-3.284v-.719a4.2,4.2,0,0,0,.782.074h.465a4.2,4.2,0,0,0,.786-.075v.725Zm5.832,5.99H27.976a6.219,6.219,0,0,0-.592-1.2l1-3.9,2.115.505a3.323,3.323,0,0,1,2.559,3.243v1.35Z" transform="translate(-0.014 -118.452)" fill="#ffcb42"/>
      </g>
    </g>
    <g id="Group_14343" data-name="Group 14343" transform="translate(16.535)">
      <g id="Group_14342" data-name="Group 14342">
        <path id="Path_15051" data-name="Path 15051" d="M246.672,0A.672.672,0,0,0,246,.672V3.547a.672.672,0,1,0,1.343,0V.672A.672.672,0,0,0,246.672,0Z" transform="translate(-246)" fill="#ffcb42"/>
      </g>
    </g>
    <g id="Group_14345" data-name="Group 14345" transform="translate(16.535 5.211)">
      <g id="Group_14344" data-name="Group 14344">
        <path id="Path_15052" data-name="Path 15052" d="M247.145,77.782a.671.671,0,1,0,.2.475A.677.677,0,0,0,247.145,77.782Z" transform="translate(-245.999 -77.585)" fill="#ffcb42"/>
      </g>
    </g>
    <g id="Group_14347" data-name="Group 14347" transform="translate(9.106 2.876)">
      <g id="Group_14346" data-name="Group 14346">
        <path id="Path_15053" data-name="Path 15053" d="M139.019,45.5,136.53,43.01a.672.672,0,0,0-.95.95l2.489,2.488a.672.672,0,1,0,.95-.95Z" transform="translate(-135.384 -42.813)" fill="#ffcb42"/>
      </g>
    </g>
    <g id="Group_14349" data-name="Group 14349" transform="translate(21.425 2.771)">
      <g id="Group_14348" data-name="Group 14348">
        <path id="Path_15054" data-name="Path 15054" d="M322.59,41.456a.672.672,0,0,0-.95,0L319,44.1a.672.672,0,0,0,.95.95l2.64-2.64A.672.672,0,0,0,322.59,41.456Z" transform="translate(-318.803 -41.26)" fill="#ffcb42"/>
      </g>
    </g>
  </g>
</svg>
