<svg id="Group" xmlns="http://www.w3.org/2000/svg" width="19.326" height="19.326" viewBox="0 0 19.326 19.326">
  <path id="Combined_Shape" data-name="Combined Shape" d="M9.663,19.326a9.663,9.663,0,1,1,9.663-9.663A9.674,9.674,0,0,1,9.663,19.326Zm0-17.394a7.731,7.731,0,1,0,7.731,7.731A7.739,7.739,0,0,0,9.663,1.932Z" fill="#ffd24c"/>
  <path id="Vector_479_Stroke_" data-name="Vector 479 (Stroke)" d="M1.933.966V5.4L4.065,7.53A.966.966,0,0,1,2.7,8.9L.566,6.764A1.933,1.933,0,0,1,0,5.4V.966a.966.966,0,0,1,1.933,0Z" transform="translate(8.697 3.865)" fill="#ffd24c"/>
</svg>
