<svg id="Group" xmlns="http://www.w3.org/2000/svg" width="19.998" height="17.332" viewBox="0 0 19.998 17.332">
  <path id="Combined_Shape" data-name="Combined Shape" d="M17,14.443H3a2.949,2.949,0,0,1-3-2.889V2.888A2.949,2.949,0,0,1,3,0H17a2.949,2.949,0,0,1,3,2.888v8.666A2.949,2.949,0,0,1,17,14.443ZM3,1.926a.983.983,0,0,0-1,.963v8.666a.983.983,0,0,0,1,.963H17a.983.983,0,0,0,1-.963V2.888a.983.983,0,0,0-1-.963Z" fill="#ffd24c"/>
  <path id="Vector_20_Stroke_" data-name="Vector 20 (Stroke)" d="M1,0H9a.982.982,0,0,1,1,.963.982.982,0,0,1-1,.963H1A.982.982,0,0,1,0,.963.982.982,0,0,1,1,0Z" transform="translate(4.999 15.406)" fill="#ffd24c"/>
</svg>
