<svg xmlns="http://www.w3.org/2000/svg" width="19.435" height="17.815" viewBox="0 0 19.435 17.815">
  <path id="folder-upload" d="M15.386,2.62H10.1a.812.812,0,0,1-.362-.085L7.185,1.259A2.439,2.439,0,0,0,6.1,1H4.049A4.052,4.052,0,0,0,0,5.049v9.718a4.054,4.054,0,0,0,4.049,4.049H6.478a.81.81,0,0,0,0-1.62H4.049A2.432,2.432,0,0,1,1.62,14.767V7.479h16.2v7.288A2.432,2.432,0,0,1,15.386,17.2H12.957a.81.81,0,1,0,0,1.62h2.429a4.054,4.054,0,0,0,4.049-4.049v-8.1A4.054,4.054,0,0,0,15.386,2.62ZM1.62,5.049A2.432,2.432,0,0,1,4.049,2.62H6.1a.807.807,0,0,1,.362.086L9.014,3.983a2.444,2.444,0,0,0,1.086.256h5.286a2.426,2.426,0,0,1,2.28,1.62H1.62v-.81Zm9.955,8.014-1.047-1.047v5.99a.81.81,0,0,1-1.62,0v-5.99L7.861,13.063a.81.81,0,1,1-1.145-1.145l1.306-1.306a2.455,2.455,0,0,1,3.391,0l1.306,1.306a.81.81,0,0,1-1.145,1.145Z" transform="translate(0 -1.001)" fill="#5b83f9"/>
</svg>
