<svg xmlns="http://www.w3.org/2000/svg" width="47.282" height="14.555" viewBox="0 0 47.282 14.555">
  <g id="Group_1585" data-name="Group 1585" transform="translate(-23.723 -45.029)">
    <path id="Path" d="M10.689,0H7.72A1.912,1.912,0,0,0,5.706,1.17L0,14.094H4.036s.658-1.738.808-2.118l4.922.006c.115.492.469,2.112.469,2.112H13.8Z" transform="translate(57.207 45.286)" fill="#5b83f9"/>
    <path id="Path-2" data-name="Path" d="M0,5.287c.316-.81,1.531-3.941,1.531-3.941C1.51,1.385,1.844.531,2.043,0L2.3,1.216l.891,4.072Z" transform="translate(63.156 49.089)" fill="#fff"/>
    <path id="Path-3" data-name="Path" d="M10.975,9.736c-.028,2.929-2.653,4.819-6.693,4.819A12.172,12.172,0,0,1,0,13.8l.541-3.156.5.225a8.067,8.067,0,0,0,3.619.738c1.1,0,2.286-.433,2.3-1.377.007-.618-.5-1.058-1.993-1.75C3.5,7.81,1.57,6.679,1.594,4.654,1.615,1.913,4.292,0,8.09,0a9.92,9.92,0,0,1,3.443.592l-.52,3.056-.347-.163a7.1,7.1,0,0,0-2.876-.54c-1.5,0-2.2.627-2.2,1.213-.008.66.815,1.1,2.159,1.75C9.967,6.911,10.992,8.134,10.975,9.736Z" transform="translate(46.5 45.029)" fill="#5b83f9"/>
    <path id="Path-4" data-name="Path" d="M0,.283.049,0H6.008A1.546,1.546,0,0,1,7.682,1.146l1.3,6.231C7.705,4.118,4.637,1.407,0,.283Z" transform="translate(23.723 45.15)" fill="#ffcb42"/>
    <path id="Path-5" data-name="Path" d="M13.561,0,7.508,14.075l-4.067.007L0,2.322A15.088,15.088,0,0,1,5.324,8.168l.4,1.452L9.489,0l4.072,0Z" transform="translate(27.541 45.284)" fill="#5b83f9"/>
    <path id="Path-6" data-name="Path" d="M2.4,0H6.248l-2.4,14.1H0Z" transform="translate(40.252 45.272)" fill="#5b83f9"/>
  </g>
</svg>
