<svg xmlns="http://www.w3.org/2000/svg" xmlns:xlink="http://www.w3.org/1999/xlink" width="25" height="25" viewBox="0 0 25 25">
  <defs>
    <linearGradient id="linear-gradient" x1="0.5" y1="0.927" x2="0.5" y2="-0.073" gradientUnits="objectBoundingBox">
      <stop offset="0" stop-color="#78cd51"/>
      <stop offset="1" stop-color="#a0fc84"/>
    </linearGradient>
  </defs>
  <g id="Group_2892" data-name="Group 2892" transform="translate(-756.75 -208.031)">
    <circle id="Ellipse_41" data-name="Ellipse 41" cx="12.5" cy="12.5" r="12.5" transform="translate(756.75 208.031)" fill="url(#linear-gradient)"/>
    <g id="Group_2891" data-name="Group 2891" transform="translate(761.62 212.306)">
      <path id="WA_Logo" data-name="WA Logo" d="M1.131,11.949a7.97,7.97,0,1,1,6.905,3.99h0a7.966,7.966,0,0,1-3.808-.97L0,16.077ZM4.662,13.67a6.611,6.611,0,0,0,3.371.923h0a6.622,6.622,0,1,0-5.611-3.1l.158.25-.669,2.443,2.507-.657Zm4.674-1.989A11.429,11.429,0,0,1,8.2,11.261,8.873,8.873,0,0,1,4.8,8.256,3.872,3.872,0,0,1,3.987,6.2a2.232,2.232,0,0,1,.7-1.661.731.731,0,0,1,.531-.249c.133,0,.265,0,.381.007h.045c.116,0,.261,0,.4.341.166.4.564,1.378.614,1.478a.366.366,0,0,1,.017.349,1.357,1.357,0,0,1-.2.332c-.1.116-.209.26-.3.349s-.2.207-.087.406A6,6,0,0,0,7.2,8.928a5.434,5.434,0,0,0,1.6.988c.2.1.315.083.431-.05s.5-.581.63-.781.265-.166.448-.1,1.161.548,1.361.648.332.15.382.233a1.664,1.664,0,0,1-.116.947,2.051,2.051,0,0,1-1.344.947,3.271,3.271,0,0,1-.483.038A2.528,2.528,0,0,1,9.337,11.681Z" transform="translate(0 0)" fill="#fff"/>
    </g>
  </g>
</svg>
