<svg xmlns="http://www.w3.org/2000/svg" width="22.475" height="22.963" viewBox="0 0 22.475 22.963">
  <g id="google_logo" transform="translate(0 0)">
    <path id="Path_58654" data-name="Path 58654" d="M310.419,75.505a13.305,13.305,0,0,0-.183-2.172H299.425v4.315h6.19a5.328,5.328,0,0,1-2.3,3.425v2.87h3.694A11.228,11.228,0,0,0,310.419,75.505Z" transform="translate(-287.943 -63.765)" fill="#4285f4"/>
    <path id="Path_58655" data-name="Path 58655" d="M300.747,86.2a10.936,10.936,0,0,0,7.587-2.784l-3.693-2.87a6.927,6.927,0,0,1-3.895,1.11,6.856,6.856,0,0,1-6.439-4.746H290.5v2.957A11.465,11.465,0,0,0,300.747,86.2Z" transform="translate(-289.266 -63.236)" fill="#34a853"/>
    <path id="Path_58656" data-name="Path 58656" d="M294.467,77.855a6.671,6.671,0,0,1-.363-2.191,6.92,6.92,0,0,1,.363-2.191V70.517h-3.807a11.351,11.351,0,0,0,0,10.3Z" transform="translate(-289.425 -64.183)" fill="#fbbc05"/>
    <path id="Path_58657" data-name="Path 58657" d="M300.747,69.545a6.228,6.228,0,0,1,4.4,1.722l3.272-3.272A10.977,10.977,0,0,0,300.747,65,11.465,11.465,0,0,0,290.5,71.334l3.808,2.957A6.856,6.856,0,0,1,300.747,69.545Z" transform="translate(-289.266 -65)" fill="#ea4335"/>
  </g>
</svg>
